<?xml version="1.0" encoding="utf-8"?>
<!-- Generator: Adobe Illustrator 16.0.0, SVG Export Plug-In . SVG Version: 6.00 Build 0)  -->
<!DOCTYPE svg PUBLIC "-//W3C//DTD SVG 1.1//EN" "http://www.w3.org/Graphics/SVG/1.1/DTD/svg11.dtd">
<svg version="1.1" id="Layer_1" xmlns="http://www.w3.org/2000/svg" xmlns:xlink="http://www.w3.org/1999/xlink" x="0px" y="0px"
	 width="257.448px" height="242.493px" viewBox="301.727 317.188 257.448 242.493"
	 enable-background="new 301.727 317.188 257.448 242.493" xml:space="preserve">
<g id="Layer_4">
	<g>
		<path fill="#3A4000" d="M392.411,348.541c25.336-5.844,94.559,9.033,110.506,71.714c4.83,18.985-14.498,10.012-15.67,2.942
			c-4.346-26.178-42.947-78.086-94.111-72.5c17.611,24,41.984,5.795,72.183,89.972c6.598,18.393-8.429,11.899-10.865,5.295
			c-19.953-54.017-62.779-85.876-64.029-94.593c-2.313,43.896-26.34,44.525-12.194,135.326c4.514,28.967-16.505,16.353-18.404,1.959
			c-10.521-79.657,20.375-91.459,27.615-136.133"/>
		<path fill="#1D2000" d="M392.411,348.541c3.061-0.721,6.207-1.037,9.346-1.188c3.146-0.166,6.293-0.041,9.437,0.156
			c6.274,0.477,12.512,1.52,18.627,3.042c6.113,1.526,12.092,3.599,17.881,6.101c5.785,2.512,11.373,5.496,16.652,8.959
			c5.274,3.467,10.271,7.392,14.77,11.842c4.506,4.438,8.559,9.341,12.047,14.617c3.492,5.275,6.416,10.922,8.765,16.801l1.6,4.47
			c0.283,0.737,0.51,1.496,0.721,2.262l0.658,2.277l0.658,2.297c0.164,0.774,0.373,1.51,0.485,2.336
			c0.269,1.604,0.429,3.231,0.152,4.912c-0.172,0.828-0.365,1.686-0.856,2.446c-0.466,0.761-1.142,1.443-1.966,1.845
			c-1.674,0.789-3.481,0.637-5.075,0.231c-1.603-0.442-3.101-1.143-4.459-2.043c-1.354-0.908-2.621-1.967-3.64-3.291
			c-0.516-0.649-0.965-1.377-1.271-2.19c-0.322-0.855-0.404-1.631-0.574-2.394c-0.146-0.776-0.312-1.541-0.521-2.274
			c-0.202-0.74-0.364-1.488-0.622-2.229c-0.884-2.979-2.085-5.865-3.371-8.705c-2.627-5.66-5.832-11.057-9.472-16.143
			c-3.631-5.09-7.653-9.902-12.026-14.379c-8.773-8.896-19.027-16.461-30.513-21.489c-5.723-2.53-11.748-4.407-17.932-5.462
			c-6.182-1.062-12.514-1.275-18.768-0.648h-0.007l0,0c1.644,2.153,3.455,4.172,5.474,5.975c2.01,1.812,4.235,3.361,6.539,4.773
			c4.614,2.816,9.559,5.07,14.188,7.914c4.642,2.812,8.979,6.166,12.812,10.021c3.844,3.85,7.246,8.11,10.317,12.586
			c3.074,4.477,5.847,9.153,8.354,13.965c1.311,2.377,2.442,4.842,3.662,7.266c1.131,2.465,2.293,4.916,3.362,7.406
			c2.154,4.977,4.199,10,6.093,15.08c0.924,2.551,1.971,5.043,2.719,7.691c0.352,1.331,0.67,2.676,0.762,4.077
			c0.09,1.382,0.014,2.896-0.832,4.22c-0.436,0.649-1.139,1.139-1.883,1.342c-0.75,0.207-1.512,0.184-2.227,0.063
			c-1.435-0.262-2.722-0.891-3.894-1.653c-1.168-0.771-2.221-1.715-3.111-2.81c-0.438-0.553-0.829-1.145-1.151-1.789
			c-0.312-0.676-0.523-1.28-0.773-1.92c-1.877-5.092-4.065-10.002-6.401-14.883c-2.336-4.871-4.921-9.621-7.673-14.271
			c-2.756-4.646-5.676-9.197-8.739-13.65c-6.154-8.895-12.92-17.357-20.021-25.521c-3.531-4.103-7.16-8.119-10.762-12.164
			c-1.797-2.023-3.592-4.056-5.309-6.153c-0.851-1.054-1.697-2.112-2.449-3.241c-0.746-1.117-1.519-2.285-1.763-3.631l-0.006-0.018
			l0,0c-0.483,6.664-1.153,13.352-2.83,19.848c-1.573,6.508-3.75,12.85-5.846,19.195c-2.164,6.325-3.934,12.776-5.223,19.325
			l-0.857,4.933c-0.297,1.645-0.396,3.312-0.604,4.971c-0.164,1.66-0.406,3.312-0.509,4.979l-0.243,5.002l-0.123,2.5l-0.062,1.25
			l0.006,1.254l0.037,5.01c0.021,1.67,0.006,3.34,0.06,5.008l0.291,5.002c0.258,6.681,1.071,13.314,1.729,19.965
			c0.842,6.636,1.857,13.226,2.729,19.875c0.166,1.687,0.299,3.369,0.256,5.062c-0.004,1.688-0.203,3.397-0.664,5.061
			c-0.109,0.418-0.24,0.83-0.433,1.228l-0.258,0.604l-0.344,0.566c-0.443,0.764-1.102,1.43-1.877,1.896
			c-0.775,0.506-1.719,0.656-2.605,0.677c-0.901-0.002-1.766-0.236-2.586-0.531c-1.633-0.631-3.045-1.65-4.311-2.793
			c-1.26-1.152-2.361-2.465-3.312-3.877c-1.895-2.812-3.182-6.092-3.479-9.49c-0.65-6.656-1.562-13.283-1.713-20.002l-0.238-5.021
			c-0.061-0.836-0.051-1.674-0.029-2.512l0.037-2.514l0.076-5.023l0.039-2.514l0.207-2.506c0.451-6.685,1.287-13.353,2.742-19.896
			l1.125-4.899c0.391-1.629,0.94-3.216,1.406-4.822l0.729-2.406l0.361-1.201l0.436-1.18l1.734-4.717
			c0.543-1.586,1.262-3.103,1.893-4.65c0.662-1.537,1.271-3.102,1.982-4.613c1.387-3.045,2.768-6.094,4.201-9.112
			c1.438-3.021,2.799-6.07,4.184-9.113c1.26-3.096,2.654-6.139,3.711-9.311c0.541-1.58,1.178-3.132,1.641-4.734l1.384-4.817
			c0.512-1.597,0.811-3.242,1.149-4.877l1.019-4.912l-0.97,4.922c-0.323,1.641-0.608,3.291-1.104,4.893l-1.336,4.838
			c-0.447,1.611-1.07,3.17-1.599,4.758c-1.024,3.188-2.395,6.248-3.625,9.359c-1.354,3.061-2.688,6.131-4.098,9.162
			c-1.404,3.035-2.787,6.078-4.156,9.127c-0.709,1.516-1.309,3.074-1.965,4.608c-0.623,1.55-1.334,3.064-1.871,4.646l-1.713,4.703
			l-0.428,1.18l-0.359,1.197l-0.715,2.397c-0.457,1.604-1.002,3.188-1.385,4.812l-1.105,4.883
			c-1.426,6.521-2.233,13.16-2.662,19.818l-0.198,2.494l-0.029,2.504l-0.061,5.008l-0.027,2.504
			c-0.021,0.836-0.023,1.67,0.037,2.502l0.258,4.998c0.17,6.67,1.104,13.311,1.775,19.965c0.297,3.273,1.541,6.416,3.387,9.135
			c0.92,1.359,1.988,2.621,3.199,3.722c1.213,1.09,2.563,2.053,4.062,2.623c1.48,0.562,3.168,0.707,4.488-0.088
			c1.336-0.765,2.104-2.289,2.557-3.812c0.438-1.559,0.644-3.201,0.648-4.854c0.049-1.648-0.076-3.308-0.23-4.951
			c-0.842-6.611-1.842-13.252-2.66-19.89c-0.635-6.666-1.428-13.315-1.664-20.014l-0.271-5.016
			c-0.047-1.675-0.023-3.351-0.039-5.021l-0.021-5.022l-0.002-1.257l0.064-1.254l0.133-2.51l0.264-5.02
			c0.105-1.673,0.355-3.332,0.525-4.998c0.217-1.66,0.322-3.336,0.627-4.982l0.879-4.949c1.318-6.567,3.115-13.041,5.308-19.362
			c2.161-6.33,4.396-12.636,6.036-19.117c1.734-6.465,2.476-13.135,3.027-19.795l0,0l0.004,0.017
			c0.267,1.341,1.051,2.493,1.812,3.597c0.768,1.113,1.629,2.16,2.494,3.198c1.741,2.069,3.563,4.071,5.391,6.069
			c3.658,3.99,7.35,7.955,10.945,12.008c7.182,8.113,14.026,16.539,20.274,25.408c3.121,4.438,6.074,8.99,8.849,13.653
			c2.772,4.662,5.385,9.427,7.743,14.312c2.354,4.881,4.591,9.865,6.476,14.936c0.242,0.621,0.488,1.289,0.744,1.845
			c0.289,0.565,0.646,1.104,1.051,1.61c0.82,1.007,1.812,1.888,2.9,2.604c1.092,0.709,2.293,1.279,3.53,1.5
			c1.229,0.223,2.515-0.021,3.162-1.004c0.644-0.979,0.771-2.322,0.685-3.611c-0.076-1.307-0.378-2.611-0.709-3.896
			c-0.712-2.568-1.748-5.089-2.654-7.632c-1.865-5.077-3.879-10.1-6.002-15.069c-1.058-2.49-2.203-4.938-3.318-7.398
			c-1.199-2.422-2.318-4.885-3.611-7.256c-2.477-4.805-5.211-9.475-8.245-13.938c-3.031-4.464-6.396-8.714-10.188-12.55
			c-3.779-3.852-8.07-7.178-12.658-10.021c-4.562-2.894-9.475-5.221-14.065-8.111c-2.289-1.449-4.506-3.037-6.494-4.883
			c-1.996-1.836-3.783-3.885-5.396-6.062l0,0h0.004c6.242-0.735,12.595-0.639,18.82,0.319c6.229,0.949,12.33,2.729,18.146,5.179
			c11.625,4.953,22.045,12.478,30.987,21.367c4.472,4.461,8.554,9.306,12.23,14.438c3.69,5.125,6.951,10.567,9.637,16.305
			c1.314,2.875,2.547,5.805,3.461,8.852c0.262,0.746,0.438,1.535,0.652,2.308c0.223,0.777,0.395,1.549,0.535,2.315
			c0.168,0.771,0.274,1.574,0.521,2.185c0.25,0.656,0.635,1.285,1.097,1.861c1.854,2.309,4.563,4.053,7.413,4.848
			c1.423,0.361,2.943,0.434,4.146-0.15c1.197-0.59,1.877-1.887,2.109-3.312c0.245-1.433,0.108-2.984-0.136-4.465
			c-0.094-0.734-0.311-1.521-0.469-2.281l-0.637-2.232l-0.644-2.252c-0.207-0.754-0.428-1.502-0.702-2.229l-1.562-4.414
			c-2.299-5.806-5.164-11.381-8.594-16.597c-6.836-10.454-15.965-19.346-26.363-26.284c-10.402-6.951-22.027-12.06-34.139-15.281
			c-6.056-1.616-12.242-2.762-18.49-3.342c-3.127-0.25-6.268-0.428-9.404-0.312C398.627,347.609,395.487,347.871,392.411,348.541z"
			/>
	</g>
	<g>
		<path fill="#1D2000" d="M392.434,348.541l-4.977,3.982c-0.496,3.062-1.105,5.969-1.807,8.756c1.776-1.693,2.606-1.498,4.203-3.814
			c0.209-1.94,0.477-3.965,0.588-6.094c0.323,2.27,3.473,6.109,8.295,11.498c0.229-1.949,0.01-4.396-0.543-6.504
			c-1.736-1.606-3.416-3.457-5.037-5.668c3.254-0.354,6.457-0.476,9.604-0.387c1.709-0.721,2.474-1.83,4.203-2.893
			C401.313,347.23,396.348,347.639,392.434,348.541z"/>
		<path fill="#1D2000" d="M392.489,348.656l-4.951,3.965l0.045-0.078l-0.873,4.39l-1.057,4.346l0,0l0,0
			c0.354-0.317,0.709-0.635,1.096-0.915c0.381-0.283,0.781-0.544,1.164-0.826c0.188-0.146,0.383-0.283,0.553-0.451
			c0.179-0.156,0.354-0.316,0.506-0.502c0.156-0.18,0.324-0.351,0.46-0.547l0.428-0.572l0,0l0,0l0.271-3.049l0.189-3.051
			l0.053-0.843l0.197,0.832l0,0c0.188,1.142,0.828,2.187,1.451,3.183c0.647,0.994,1.364,1.944,2.104,2.879
			c1.48,1.863,3.043,3.662,4.615,5.453l0,0c0.225-2.177-0.006-4.388-0.543-6.504l0,0l0,0c-0.461-0.436-0.928-0.863-1.383-1.304
			c-0.438-0.457-0.89-0.903-1.316-1.369c-0.418-0.478-0.842-0.948-1.252-1.433l-1.188-1.487l0,0l-0.139-0.179l0.226-0.021
			l2.397-0.221l2.404-0.139l2.408-0.055l2.407,0.024l-0.053,0.01c0.387-0.161,0.764-0.347,1.123-0.563
			c0.355-0.229,0.701-0.475,1.037-0.734c0.672-0.521,1.352-1.048,2.09-1.477l0,0c-1.217-0.021-2.434-0.031-3.65-0.002
			c-1.216,0.031-2.434,0.082-3.646,0.18c-0.605,0.035-1.211,0.107-1.816,0.168c-0.604,0.053-1.205,0.148-1.809,0.229
			c-0.604,0.072-1.197,0.199-1.797,0.297C393.655,348.394,393.075,348.533,392.489,348.656z M392.407,348.42
			c0.6-0.115,1.195-0.25,1.799-0.348c0.604-0.088,1.203-0.207,1.812-0.269c0.604-0.069,1.211-0.155,1.817-0.198
			c0.605-0.05,1.213-0.111,1.822-0.137c1.217-0.076,2.436-0.107,3.651-0.115c1.22-0.01,2.438,0.023,3.652,0.062l0,0
			c-0.717,0.465-1.363,1.019-2.012,1.574c-0.324,0.278-0.662,0.543-1.014,0.795c-0.357,0.241-0.736,0.45-1.13,0.639l-0.021,0.01
			h-0.031l-2.397-0.025l-2.398,0.057l-2.396,0.138l-2.394,0.22l0.088-0.197l0,0l1.131,1.519c0.396,0.494,0.802,0.978,1.199,1.468
			c0.414,0.477,0.849,0.938,1.271,1.408c0.438,0.454,0.893,0.896,1.338,1.348l0,0l0,0c0.537,2.115,0.77,4.326,0.543,6.504l0,0
			c-1.604-1.764-3.195-3.535-4.713-5.375c-0.754-0.924-1.488-1.863-2.16-2.854c-0.646-0.999-1.314-2.027-1.545-3.251l0,0l0.25-0.011
			l-0.316,3.05l-0.396,3.036l0,0l0,0l-0.427,0.572c-0.137,0.196-0.305,0.367-0.461,0.547c-0.149,0.186-0.328,0.344-0.506,0.502
			c-0.168,0.168-0.363,0.305-0.551,0.451c-0.385,0.28-0.783,0.541-1.166,0.824c-0.385,0.28-0.74,0.598-1.094,0.918l0,0l0,0
			l0.932-4.371l0.75-4.404l0,0l0.01-0.049l0.035-0.028l5-4.002L392.407,348.42z"/>
	</g>
	<g>
		<path fill="#6B750B" d="M389.184,348.541c24.066-19.23,60.716-17.336,86.322-6.896c16.488,6.723-0.141,15.239-8.344,7.391
			c-13.5-12.916-47.914-13.897-69.713-0.492c26.879,3.156,32.371,10.836,33.791,14.496c1.422,3.661-16.504,14.18-16.541,4.42
			s-8.976-14.192-20.371-14.933c6.666,13.84,2.377,36.938-5.146,54.89c-7.521,17.95-12.786,0.979-7.52-2.74
			c5.266-3.717,16.475-25.06,8.756-52.146c-11.426,13.506-33.561,8.797-29.051,24.547s-12.074,7-12.074-0.395
			c0-16.578,20.305-13.326,34.668-24.152C386.081,352.615,390.329,349.281,389.184,348.541z"/>
		<path fill="#404609" d="M389.184,348.541c6.216-5.065,13.479-8.799,21.128-11.236c7.661-2.436,15.698-3.584,23.731-3.773
			c8.039-0.193,16.096,0.618,23.961,2.291c3.935,0.834,7.822,1.883,11.644,3.148c1.911,0.624,3.799,1.329,5.668,2.066
			c1.868,0.744,3.756,1.619,5.395,2.922c0.812,0.656,1.58,1.447,2.037,2.494c0.227,0.521,0.34,1.121,0.279,1.715
			c-0.05,0.597-0.291,1.156-0.607,1.631c-0.664,0.941-1.604,1.552-2.572,1.982c-0.973,0.428-2.002,0.678-3.036,0.807
			c-2.07,0.248-4.193-0.012-6.144-0.77c-0.973-0.377-1.897-0.883-2.736-1.509c-0.852-0.642-1.532-1.343-2.301-1.996
			c-3.008-2.491-6.604-4.319-10.324-5.655c-3.739-1.322-7.639-2.193-11.582-2.727c-3.938-0.549-7.936-0.74-11.92-0.631
			c-3.983,0.104-7.969,0.492-11.895,1.207c-3.928,0.703-7.816,1.669-11.588,2.992c-3.769,1.334-7.426,2.996-10.869,5.041l0,0h0.006
			c1.838,0.226,3.687,0.401,5.521,0.668c1.832,0.287,3.674,0.53,5.489,0.916c1.828,0.328,3.625,0.804,5.435,1.246l2.674,0.797
			c0.891,0.27,1.758,0.617,2.639,0.92c0.881,0.311,1.726,0.718,2.588,1.072c0.845,0.399,1.679,0.827,2.496,1.284
			c1.623,0.935,3.168,2.033,4.519,3.367c0.332,0.338,0.67,0.672,0.957,1.056c0.312,0.358,0.59,0.747,0.846,1.151
			c0.273,0.392,0.484,0.828,0.703,1.254c0.1,0.229,0.188,0.412,0.295,0.688c0.033,0.088,0.07,0.254,0.084,0.428
			c0.006,0.146-0.002,0.293-0.025,0.43c-0.229,1.09-0.905,1.828-1.549,2.531c-0.666,0.688-1.396,1.293-2.16,1.852
			c-1.537,1.097-3.194,2.009-4.955,2.697c-1.754,0.65-3.651,1.209-5.635,0.84c-0.973-0.188-1.953-0.795-2.438-1.717
			c-0.506-0.896-0.586-1.945-0.586-2.855c-0.027-1.815-0.404-3.612-1.166-5.254c-0.771-1.635-1.949-3.062-3.354-4.223
			c-1.41-1.16-3.031-2.054-4.729-2.757c-3.4-1.419-7.088-2.093-10.773-2.409l0,0l0.002,0.004c1.25,2.572,2.101,5.33,2.629,8.143
			c0.273,1.406,0.469,2.826,0.601,4.252c0.145,1.427,0.2,2.857,0.231,4.29c0.082,5.731-0.578,11.457-1.686,17.077
			c-1.117,5.623-2.664,11.16-4.604,16.562c-0.485,1.35-0.985,2.691-1.522,4.023c-0.527,1.336-1.101,2.666-1.773,3.961
			c-0.676,1.289-1.434,2.559-2.473,3.684c-0.527,0.551-1.135,1.082-1.939,1.408c-0.791,0.354-1.896,0.271-2.637-0.271l0.086-0.125
			c-0.689-0.483-1.111-1.164-1.42-1.842c-0.312-0.686-0.5-1.397-0.615-2.119c-0.221-1.44-0.164-2.924,0.262-4.338
			c0.216-0.705,0.541-1.393,1.009-1.994c0.233-0.299,0.51-0.571,0.815-0.805c0.263-0.211,0.576-0.418,0.799-0.643
			c0.976-0.88,1.847-1.978,2.615-3.103c1.545-2.272,2.799-4.754,3.857-7.309c0.52-1.279,1.008-2.576,1.426-3.896
			c0.434-1.315,0.799-2.651,1.141-3.996c0.656-2.692,1.131-5.434,1.422-8.192c0.293-2.759,0.402-5.539,0.339-8.314
			c-0.031-1.391-0.119-2.777-0.229-4.162c-0.139-1.383-0.287-2.766-0.504-4.139c-0.088-0.69-0.225-1.373-0.346-2.06
			c-0.117-0.687-0.248-1.369-0.404-2.047c-0.277-1.363-0.639-2.707-0.984-4.056l0,0l-0.004,0.005
			c-1.459,1.814-3.207,3.4-5.123,4.739c-1.912,1.349-3.985,2.456-6.108,3.431c-2.136,0.959-4.322,1.777-6.498,2.594
			c-2.174,0.824-4.355,1.631-6.367,2.716c-1.984,1.075-3.854,2.53-4.613,4.596c-0.778,2.057-0.446,4.381,0.199,6.561
			c0.312,1.128,0.582,2.306,0.693,3.505c0.104,1.194,0.104,2.465-0.429,3.688c-0.27,0.603-0.723,1.17-1.321,1.529
			c-0.603,0.358-1.285,0.502-1.937,0.51c-1.305,0-2.498-0.424-3.577-0.975c-2.148-1.132-3.998-2.777-5.298-4.849
			c-0.637-1.035-1.123-2.213-1.221-3.487c-0.033-1.236,0.049-2.408,0.275-3.599c0.42-2.367,1.555-4.646,3.256-6.365
			c1.688-1.742,3.803-2.93,5.938-3.891c2.15-0.961,4.369-1.705,6.584-2.43c2.217-0.719,4.435-1.416,6.625-2.18
			c4.385-1.5,8.672-3.388,12.465-6.104l0,0h0.002c0.607,0.014,1.193-0.188,1.742-0.426c0.556-0.242,1.078-0.547,1.576-0.885
			c0.498-0.342,0.973-0.717,1.393-1.15c0.207-0.217,0.404-0.45,0.556-0.712c0.067-0.134,0.133-0.273,0.146-0.427
			C389.393,348.775,389.315,348.621,389.184,348.541z M389.184,348.541c0.132,0.08,0.209,0.234,0.191,0.387
			c-0.014,0.15-0.076,0.292-0.146,0.425c-0.148,0.263-0.349,0.495-0.556,0.713c-0.42,0.435-0.895,0.81-1.393,1.149
			c-0.498,0.339-1.023,0.644-1.576,0.885c-0.549,0.236-1.135,0.438-1.742,0.427h-0.002l0,0c-3.652,2.907-7.943,4.916-12.289,6.584
			c-2.182,0.83-4.395,1.562-6.588,2.328c-2.191,0.767-4.379,1.552-6.459,2.533c-2.072,0.979-4.057,2.178-5.617,3.795
			c-1.565,1.607-2.584,3.686-2.967,5.9c-0.205,1.098-0.271,2.264-0.237,3.35c0.086,1.055,0.51,2.092,1.096,3.025
			c1.188,1.868,2.945,3.42,4.916,4.436c0.983,0.49,2.055,0.863,3.088,0.867c1.041,0.02,1.93-0.482,2.332-1.414
			c0.416-0.926,0.455-2.066,0.358-3.172c-0.098-1.119-0.336-2.224-0.639-3.338c-0.641-2.232-1.031-4.793-0.123-7.146
			c0.438-1.168,1.205-2.188,2.105-3.002c0.903-0.822,1.938-1.45,2.985-1.998c2.113-1.08,4.328-1.842,6.521-2.623
			c2.194-0.771,4.389-1.536,6.521-2.438c2.137-0.891,4.226-1.912,6.164-3.18s3.732-2.764,5.283-4.502l0.004-0.005l0,0
			c0.367,1.343,0.748,2.683,1.045,4.043c0.168,0.677,0.312,1.357,0.438,2.044c0.131,0.684,0.276,1.364,0.375,2.055
			c0.235,1.373,0.405,2.756,0.565,4.143c0.131,1.387,0.238,2.775,0.293,4.17c0.105,2.787,0.039,5.582-0.213,8.361
			c-0.252,2.778-0.688,5.545-1.311,8.271c-0.322,1.357-0.675,2.713-1.091,4.049c-0.401,1.341-0.877,2.658-1.383,3.964
			c-1.033,2.604-2.266,5.137-3.815,7.493c-0.785,1.177-1.632,2.298-2.711,3.302c-0.273,0.271-0.543,0.446-0.818,0.676
			c-0.244,0.19-0.465,0.416-0.656,0.666c-0.377,0.508-0.653,1.102-0.834,1.729c-0.36,1.259-0.396,2.629-0.176,3.933
			c0.229,1.271,0.734,2.629,1.676,3.291l0.086-0.125c0.435,0.305,0.914,0.362,1.449,0.164c0.527-0.201,1.047-0.605,1.508-1.078
			c0.924-0.959,1.681-2.146,2.351-3.371c0.67-1.228,1.252-2.519,1.799-3.826c0.559-1.309,1.08-2.633,1.588-3.961
			c2.023-5.318,3.666-10.787,4.883-16.354c1.207-5.562,1.973-11.244,2-16.945c-0.006-1.424-0.037-2.851-0.152-4.27
			c-0.104-1.423-0.271-2.839-0.516-4.244c-0.475-2.812-1.27-5.576-2.469-8.17l-0.002-0.007l0,0
			c3.692,0.189,7.414,0.732,10.918,2.054c1.738,0.672,3.416,1.558,4.895,2.726c1.478,1.169,2.74,2.64,3.586,4.347
			c0.843,1.705,1.273,3.613,1.306,5.496c0.006,0.931,0.1,1.797,0.514,2.531c0.396,0.732,1.139,1.191,1.977,1.357
			c1.703,0.315,3.537-0.195,5.209-0.841c1.689-0.672,3.298-1.569,4.771-2.635c0.734-0.531,1.438-1.106,2.066-1.748
			c0.604-0.633,1.207-1.368,1.356-2.118c0.019-0.091,0.021-0.179,0.021-0.263c-0.009-0.062-0.009-0.123-0.054-0.252l-0.252-0.59
			c-0.203-0.396-0.391-0.806-0.646-1.173c-0.236-0.381-0.496-0.747-0.789-1.09c-0.271-0.36-0.588-0.684-0.902-1.008
			c-1.279-1.281-2.77-2.358-4.348-3.281c-0.797-0.45-1.613-0.871-2.438-1.276c-0.844-0.365-1.664-0.781-2.524-1.104
			c-0.863-0.316-1.715-0.678-2.593-0.961l-2.637-0.842c-1.785-0.477-3.562-0.979-5.377-1.35c-1.795-0.445-3.621-0.754-5.438-1.102
			c-1.82-0.33-3.658-0.57-5.488-0.861h-0.008l0,0c6.805-4.247,14.481-7.01,22.358-8.555c3.945-0.771,7.951-1.211,11.972-1.369
			c4.02-0.162,8.055-0.021,12.053,0.483c4.002,0.476,7.957,1.377,11.775,2.698c3.812,1.355,7.477,3.179,10.657,5.795
			c0.761,0.643,1.488,1.374,2.242,1.934c0.771,0.566,1.617,1.027,2.514,1.371c1.789,0.688,3.761,0.92,5.662,0.684
			c1.861-0.237,3.843-0.944,4.881-2.368c0.494-0.706,0.593-1.567,0.238-2.366c-0.342-0.799-0.994-1.509-1.731-2.104
			c-1.5-1.202-3.283-2.053-5.125-2.791c-1.851-0.738-3.716-1.442-5.605-2.067c-3.777-1.269-7.629-2.321-11.527-3.164
			c-7.795-1.678-15.774-2.519-23.756-2.437c-7.973,0.092-15.957,1.172-23.604,3.468
			C402.805,340.029,395.498,343.599,389.184,348.541z"/>
	</g>
	<path fill="#9BAA66" d="M421.745,336.031c7.748-1.586,21.5-1.584,31.75,0.666s7.666,4.469-1.084,2.776s-16.25-3.442-28.166-1.526
		C412.329,339.865,414.827,337.447,421.745,336.031z"/>
	<path fill="#9BAA66" d="M356.493,366.447c3.434-3.432,12.416-5,17.584-7.416c5.166-2.418,4.951,1-1.857,3
		c-6.808,2-10.643,4.082-11.477,6.166C359.911,370.281,354.327,368.613,356.493,366.447z"/>
	<path fill="#9BAA66" d="M407.161,354.531c4.646,2.078,7.363,4.838,7.834,7.305c0.471,2.47,11.85-0.979,7.258-4.686
		S400.827,351.697,407.161,354.531z"/>
	<path fill="#50611D" d="M414.997,348.697c4.486,0.391,10.488,1.555,13.188,2.562c7.188,2.688-3.375,2.25-7.529,0.938
		C416.497,350.887,410.37,348.297,414.997,348.697z"/>
	<path fill="#504647" d="M382.553,353.531c2.443-1.791,2.125-2.484,3.859-3.791c2.232-1.681,2.584-1.418,9.896-6.086
		c5.146-3.285,6.097,2.189,1.144,4.889c6.359,0.891,3.086,4.352-3.121,3.982c1.508,3.852-2.65,5.034-3.908,0
		C387.829,356.24,377.68,357.107,382.553,353.531z"/>
	<g>
		<path fill="#60343C" d="M396.008,351.855c-2.637-2.795-2.885-2.562-4.541-4.363c0.498,0.797,2.488,3.189,3.722,4.828
			C395.459,352.203,395.737,352.045,396.008,351.855z"/>
		<path fill="#472C2D" d="M391.467,347.492c1.142,2.277,2.228,3.326,2.867,5.064c-0.004-0.01,0-0.02-0.004-0.029
			c0.268-0.002,0.559-0.08,0.855-0.207C393.956,350.683,391.965,348.289,391.467,347.492z"/>
		<path fill="#60343C" d="M389.821,352.896c0.477-0.961,1.336-3.141,1.196-4.488c-0.37,1.15-0.309,1.723-2.145,4.717
			C389.209,353.097,389.53,353.019,389.821,352.896z"/>
		<path fill="#472C2D" d="M389.821,352.896c0.223-0.096,0.43-0.214,0.602-0.369c0.004,0.01,0.013,0.018,0.017,0.027
			c0.303-1.115,0.896-2.551,0.582-4.146C391.157,349.756,390.297,351.936,389.821,352.896z"/>
		<path fill="#60343C" d="M391.184,350.441c0.209-0.871,0.007-1.74-0.163-2.033c0.312,1.598-0.279,3.029-0.582,4.146
			c0.096,0.238,0.28,0.421,0.521,0.559C390.612,352.349,391.012,351.16,391.184,350.441z"/>
		<path fill="#64484B" d="M397.471,348.551c-0.594-0.02-1.112-0.264-4.973-0.643c1.994-0.504,3.506,0.164,5.299-0.488
			c0.109-1.646-0.541-4.313-2.916-2.854c-3.194,1.961-3.383,1.013-4.383,1.597s-2.297,0.75-3.875,2.75
			c-2.248,2.847,0.213,4.391,2.25,4.215c1.838-2.994,1.773-3.565,2.146-4.715c0.17,0.291,0.37,1.162,0.164,2.03
			c-0.175,0.72-0.57,1.907-0.226,2.673c1.15,0.661,3.576,0.241,3.373-0.557c-0.643-1.736-1.729-2.786-2.865-5.064
			c1.654,1.801,1.902,1.567,4.541,4.362C397.526,350.793,398.799,348.816,397.471,348.551z"/>
		<path fill="#60343C" d="M392.498,347.908c1.473-0.096,3.857,0.271,5.162,0.291c0.066-0.203,0.117-0.471,0.137-0.779
			C396.004,348.072,394.493,347.404,392.498,347.908z"/>
		<path fill="#472C2D" d="M397.661,348.197c-1.305-0.021-3.689-0.387-5.162-0.289c3.857,0.377,4.379,0.623,4.973,0.642
			c-0.008-0.001-0.012-0.005-0.02-0.005C397.534,348.494,397.604,348.367,397.661,348.197z"/>
		<path fill="#7D6367" d="M387.088,349.799c-0.812,1.201,1,1.904,1.834,0.863C389.754,349.621,389.504,346.225,387.088,349.799z"/>
		<path fill="#7D6367" d="M391.706,348.658c-0.25,0.041,0.199,1.143-0.125,2.08c-0.518,1.492,3.115,2.924,1.449,0.066
			C392.211,349.4,391.956,348.615,391.706,348.658z"/>
		<path fill="#7D6367" d="M395.704,348.545c-1.912-0.194-4-0.721-2.729,0.113c1.271,0.834,1.688,1.752,2.729,1.293
			S396.688,348.645,395.704,348.545z"/>
		<path fill="#7D6367" d="M393.137,345.885c1.312-0.658,2.254-1.684,2.816-0.725c0.834,1.416-1.793,0.834-2.334,1.125
			C393.077,346.576,392.893,346.006,393.137,345.885z"/>
		<path fill="#967E83" d="M394.573,348.795c0.375,0.719,1.619,0.859,1.543,0.343S394.432,348.521,394.573,348.795z"/>
		<path fill="#967E83" d="M388.413,348.795c-0.783,0.949-1.225,1.801-0.391,1.621C389.184,350.17,388.846,348.268,388.413,348.795z"
			/>
	</g>
</g>
<g id="Layer_2">
	
		<ellipse fill="#181F46" stroke="#181F46" stroke-width="2" stroke-miterlimit="10" cx="422.391" cy="463.727" rx="45.404" ry="47.89"/>
	
		<ellipse fill="#181F46" stroke="#181F46" stroke-width="2" stroke-miterlimit="10" cx="472.75" cy="420.908" rx="45.404" ry="47.888"/>
	<path fill="#242957" stroke="#181F46" stroke-width="2" stroke-miterlimit="10" d="M383.965,412.41
		c0,23.66-18.666,47.466-40.619,42.843c-25.307-5.33-40.619-15.179-40.619-38.839c0-23.661,16.146-40.452,37.617-44.846
		C362.323,367.07,383.965,388.749,383.965,412.41z"/>
	<path fill="#242957" stroke="#181F46" stroke-width="2" stroke-miterlimit="10" d="M482.754,517.205
		c0,23.306-20.113,44.162-42.008,41.193c-22.371-3.033-38.004-17.891-38.004-41.193c0-23.305,17.91-42.194,40.006-42.194
		S482.754,493.9,482.754,517.205z"/>
	<path fill="#181F46" d="M333.495,452.77c-8.725-3.17,8.867-21.654,15.279-9.354c4.992,9.584,5.426,9.907,0,10.87
		C343.346,455.253,336.67,453.925,333.495,452.77z"/>
	<path fill="#181F46" d="M440.096,506.597c2.138,8.604,20.146,19.736,32.076,19.067c11.93-0.666,12.178-8.262,10.385-12.639
		c-1.793-4.375-20.088-8.695-26.104-8.026C450.437,505.667,438.424,499.859,440.096,506.597z"/>
	
		<ellipse fill="#2E3C7B" stroke="#181F46" stroke-width="2" stroke-miterlimit="10" cx="365.163" cy="498.958" rx="45.402" ry="47.888"/>
	<path fill="#242957" d="M346.103,523.322c6.53-15.229,36.651-10.377,38.991-20.016c2.34-9.641-7.403-17.826-10.03-26.232
		c-2.63-8.405,16.812-6.284,26.038,10.261c9.229,16.543,7.847,29.334-5.077,40.668c-12.923,11.332-19.371,18.571-33.25,17.771
		C349.435,545.003,340.102,537.311,346.103,523.322z"/>
	<path fill="#181F46" d="M407.768,485.585c-0.764-2.808-1.77-5.441-2.965-7.921c-1.901-0.627-4.116-0.778-6.664-0.336
		c-30.7,5.338,8.064,12.396,4.604,30.998c-4.898,26.314-46.945,24.291-41.857,37.306c1.73,0.17,3.502,0.244,5.32,0.203
		C393.356,545.208,416.776,518.785,407.768,485.585z"/>
	<path fill="#242957" stroke="#181F46" stroke-width="2" stroke-miterlimit="10" d="M558.002,439.976
		c-2.438,26.713-13.127,41.373-39.121,41.373c-22.715,0-41.125-17.418-41.125-41.373c0-23.957,18.89-45.016,41.125-40.373
		C542.114,404.449,560.145,416.49,558.002,439.976z"/>
	<path fill="#3A4785" d="M503.844,436.39c-8.955-8.346,3.799-9.203,10.697-8.992c6.896,0.213,19.229-1.506,20.227-5.652
		c2.5-10.409-5.479-18.01,0.875-15.993c9.332,2.959,35.479,29.506,7.783,28.198C515.437,432.63,511.825,443.824,503.844,436.39z"/>
	<path fill="#2E3C7B" stroke="#181F46" stroke-width="2" stroke-miterlimit="10" d="M525.995,403.726
		c-34.137,37.299-78.129-6.766-78.129-34.789c0-28.028,21.541-50.748,48.11-50.748C522.549,318.188,571.252,354.273,525.995,403.726
		z"/>
	<path fill="#181F46" d="M508.44,463.727c8-4.73,20.334,8.061,31,0c10.666-8.062,11.653-13.066,16.327-10.23
		c-3.834,11.671-10.266,31.316-44.842,27.119C476.35,476.417,508.44,463.727,508.44,463.727z"/>
	<path fill="#181F46" d="M522.393,405.96c8.306,3.854,6.369,16.805-12.631,17.922c-19,1.119-29.02-0.06-27.01,5.862
		c2.01,5.925-20.729,2.396-17.029-7.553c2.996-8.051,6.099-12.199,24.373-9.692C508.373,415.005,513.688,401.917,522.393,405.96z"/>
	<path fill="#3C498C" stroke="#181F46" stroke-width="2" stroke-miterlimit="10" d="M511.346,470.27
		c0,25.49-14.688,43.375-41.123,43.375c-32.485,0-44.127-9.822-44.127-43.375c0-23.957,21.414-43.377,44.127-43.377
		C492.937,426.893,511.346,446.312,511.346,470.27z"/>
	<path fill="#242957" d="M448.184,510.169c16.15,4.481,41.201,5.604,53.99-11.865c4.406-6.021,6.799-13.318,7.781-20.654
		c-0.975-5.328-5.342-8.393-13.773-7.377c-15.239,1.832-17.752,26.729-27.461,31.305c-9.709,4.576-25.291,2.162-32.291-12.75
		c-5.067-10.807-8.19-13.909-9.071-9.907C428.446,486.792,428.78,504.783,448.184,510.169z"/>
	<path fill="#181F46" d="M464.893,512.992c10.533,0.361,29.511-1.84,35.88-12.909c6.366-11.068-2.695-7.785-10.896,1.491
		c-19.229,21.756-55.633,3.979-47.205,7.533C451.102,512.664,455.018,512.652,464.893,512.992z"/>
	<path fill="#7075B7" d="M467.793,475.011c7.322-25.597,24.603-34.842,7.59-39.678c-13.49-3.835-40.723,2.063-44.723,26.084
		C426.096,488.824,462.655,492.97,467.793,475.011z"/>
	<path fill="#242957" d="M522.393,405.96c12.486-11.912,21.703-27.564,20.994-43.818c-29.258-4.601-32.354,45.025-58.52,37.67
		c-8.688-2.441-17.512-0.736-19.979,2.588C487.004,422.929,507.668,420.003,522.393,405.96z"/>
	<path fill="#3A4785" d="M356.219,373.683c-15.924-5.777-33.973,5.375-41.201,12.9c-6.352,6.61-12.921,21.409-10.785,36.77
		c1.828,4.389,4.641,6.545,7.883,2.693c18.898-22.445,69.065-12.816,68.08-28.849C377.442,391.186,369.977,378.673,356.219,373.683z
		"/>
	<path fill="#3C498C" stroke="#181F46" stroke-width="2" stroke-miterlimit="10" d="M390.422,397.572
		c-22.084-5.309-41.125,17.418-41.125,41.375c0,23.955,18.412,43.373,41.125,43.373s41.123-19.418,41.123-43.373
		C431.545,414.99,413.803,403.191,390.422,397.572z"/>
	<path fill="#242957" d="M422.389,434.259c-7.049,2.584-15.592,22.766-34.284,21.574c-29.462-1.875-27.646,9.836-16.646,20.686
		c7.217,4.01,17.355,5.965,27.322,3.883c7.852-5.024,16.049-13.112,23.606-20.332C437.34,445.794,429.438,431.675,422.389,434.259z"
		/>
	<path fill="#7075B7" d="M381.153,399.505L381.153,399.505L381.153,399.505c-10.99,2.717-23.75,11.088-25.244,24.377
		c-1.129,10.022,3.856,5.672,12.356-1.688c13.984-12.104,25.078,15.144,29.138-17.358
		C398.143,398.892,390.256,397.257,381.153,399.505z"/>
	<path fill="#AAB1EF" d="M388.42,399.507c-10.717,0.147-15.451,5.326-15.451,5.326c-2.733,6.84,15.994,17.182,18.226,4.495
		C392.192,403.63,394.352,399.425,388.42,399.507z"/>
	
		<ellipse fill="#3A4785" stroke="#181F46" stroke-width="2" stroke-miterlimit="10" cx="434.258" cy="398.649" rx="41.125" ry="43.374"/>
	<path fill="#AAB1EF" d="M430.452,380.479c-3.402,6.244-15.262,3.791-19.777,11.033c-4.664,7.477-13.274,16.578-12.479,1.018
		c1.453-28.527,36.928-41.345,48.01-30.539C451.315,366.977,440.538,361.97,430.452,380.479z"/>
	<path fill="#CED7F8" d="M427.198,374.294c-9.89,2.346-7.697-10.755-0.48-12.538c17.802-4.387,16.029,2.578,9.312,5.478
		C432.381,368.802,433.258,372.857,427.198,374.294z"/>
	<path fill="#181F46" d="M453.815,418.406c-14.855,9.058-23.363,5.476-30.164,3.785c-12.814-3.186-11.006,17.021-0.045,18.726
		s18.664,0.745,23.68-1.654c5.014-2.402,10.281-4.572,12.787-7.131C472.659,419.283,477.756,403.812,453.815,418.406z"/>
	<ellipse fill="#3A4785" cx="447.866" cy="398.956" rx="12.746" ry="13.295"/>
	<path fill="#3C498C" d="M382.147,435.408c9.112-11.977-5.812-17.914-13.363-10.196c-4.879,4.983-7.729,19.819,5.82,22.897
		C388.153,451.188,386.754,445.224,382.147,435.408z"/>
	<path fill="#7075B7" d="M502.745,340.738c4.438-9.736-4.496-15.172-0.807-18.431c1.021-0.899,1.594-1.647,1.803-2.261
		c-6.924-1.365-13.685-0.967-19.988,0.809c-13.106,4.473-18.578,13.078-17.983,27.396
		C466.793,373.027,495.756,356.06,502.745,340.738z"/>
	<path fill="#AAB1EF" d="M489.172,319.695c-9.646,4.793-7.522,18.877,2.006,19.653c17.59,1.435,4.447-9.802,9.595-16.974
		c0.811-1.127,1.153-1.991,1.114-2.65C497.549,319.062,493.288,319.086,489.172,319.695z"/>
	<path fill="#181F46" d="M406.403,459.835c-11.039,15.584-44.81,3.895-22.439,21.516c5.103,4.016,22.439-2.426,22.439-2.426
		C440.268,459.835,438.768,414.142,406.403,459.835z"/>
	<path fill="#7075B7" d="M315.018,386.585c-3.65,3.801-7.373,10.312-9.477,18.075c6.182,0.539,27.709-15.248,37.459-15.715
		c11.273-0.541,21.24-6.09,19.592-12.188c-1.955-1.188-4.071-2.238-6.375-3.072C340.293,367.904,322.247,379.058,315.018,386.585z"
		/>
	<path fill="#A1ABE5" d="M452.268,475.011c6.5-0.178,8.345-7.24,8.345-19.181c0-6.907-12.188-12.018-20.519,5.242
		C435.782,470.017,445.768,475.186,452.268,475.011z"/>
	<path fill="#3C264A" d="M307.657,398.064c-2.543,5.629-5.216,14.646-3.324,25.875c1.063-3.965,2.23-10.565,2.304-12.113
		C306.772,409.02,310.981,400.449,307.657,398.064z"/>
	<path fill="#AAB1EF" d="M315.018,386.585c-2.288,2.383-4.604,5.829-6.533,9.983c1.609,1.31,6.072-0.444,8.777-2.43
		c4.506-3.309,6.371-8.551,6.049-11.531c-0.104-0.953-0.594-1.559-1.338-1.824C319.147,382.734,316.762,384.767,315.018,386.585z"/>
	<path fill="#3A4785" d="M423.237,550.181c-18.15-10.359-10.431-20.892-4.562-25.133c4.562-3.295,14.474-2.354,17.879,7.062
		C439.967,541.529,447.471,564.011,423.237,550.181z"/>
	<path fill="#7075B7" d="M322.393,511.896c2.562,6.061,3.994-20.562,21.854-21.562c17.857-1,14.152-14.468,11.504-20.064
		c-2.647-5.602-17.354-10.926-28.295,3.688C318.227,490.49,320.559,503.673,322.393,511.896z"/>
	<path fill="#4A3D6C" d="M454.437,409.001c-4.455-5.171-9.152-5.4-14.097-0.691c3.541-5.834,2.312-10.373-3.692-13.617
		c6.645,1.562,10.579-1.01,11.809-7.725c0.564,6.803,4.229,9.75,10.994,8.846C453.155,398.449,451.483,402.847,454.437,409.001z"/>
	<path fill="#4A3D6C" d="M385.916,428.683c-5.143,6.84-4.023,13.842,1.521,20.707c-5.347-5.262-11.271-6.732-17.921-3.428
		c1.933-5.714,0.515-10.316-4.254-13.814c5.513-1.926,9.793-5.371,12.845-10.338C377.938,427.537,380.541,429.828,385.916,428.683z"
		/>
	<path fill="#3C264A" d="M467.221,511.644c-6.678-2.996-10.895-2.262-18.041-1.584c-0.612-5.016-3.196-8.715-7.754-11.104
		c3.189-2.465,3.234-5.122,1.322-8.872c6.738,2.784,14.354,4.584,21.018,3.01C458.268,502.003,466.67,510.98,467.221,511.644z"/>
	<path fill="#3C264A" d="M507.356,321.119c-1.812,1.578-4.197,2.334-7.166,2.264c3.879,2.199,6.471,5.443,7.772,9.729
		c6.781-1.146,13.117,0.032,19.101,3.439c0,0-3.304-5.408-3.136-6.213c0.17-0.803,1.349,0.063,1.349,0.063
		C519.301,325.873,512.747,322.843,507.356,321.119z"/>
	<path fill="#3C264A" d="M550.149,424.597c3.022,4.93,4.896,10.309,5.618,16.072c0,0,0.488-4.271,1.459-5.328
		c-0.271-7.115-1.834-10.959-4.366-15.086C552.44,421.906,551.543,423.355,550.149,424.597z"/>
	<path fill="#3C264A" d="M454.437,409.001c-0.371-0.773-6.658-8.296,5.014-13.188c-8.142,1.09-10.365-1.271-10.994-8.848
		c-1.92,10.483-7.641,8.705-11.809,7.725l0,0c6.645,1.564,10.58-1.008,11.809-7.725c0.564,6.805,4.229,9.75,10.994,8.848
		C453.155,398.449,451.483,402.847,454.437,409.001L454.437,409.001z"/>
	<path fill="#3C264A" d="M378.225,421.81c-4.817,7.848-4.483,7.418-12.842,10.338c6.371,4.676,6.531,6.715,4.133,13.814l0,0
		c1.933-5.713,0.515-10.316-4.254-13.814C370.774,430.222,375.174,426.775,378.225,421.81L378.225,421.81z"/>
	<path fill="#261B15" d="M442.748,490.085c1.008,1.979,4.438,4.422-1.322,8.872c8.299,4.354,6.924,4.314,7.754,11.104
		c4.308-0.406,4.836-4.34,18.041,1.584l0,0c-6.678-2.996-10.895-2.26-18.041-1.584c-0.612-5.016-3.196-8.713-7.754-11.104
		C444.616,496.492,444.661,493.835,442.748,490.085L442.748,490.085z"/>
	<path fill="#261B15" d="M527.063,336.552c-0.351-0.57-3.488-4.511-3.136-6.212c0.168-0.805,1.349,0.062,1.349,0.062
		c-6.343-3.689-12.925-7.189-17.92-9.283c-3.517,3.064-5.617,2.607-7.166,2.264l0,0c2.969,0.07,5.354-0.686,7.166-2.264
		c6.575,2.103,12.122,4.89,17.92,9.283c0,0-1.181-0.867-1.349-0.062C523.76,331.144,527.063,336.552,527.063,336.552
		L527.063,336.552z"/>
	<path fill="#261B15" d="M304.332,423.939c-1.611-9.565,1.897-22.717,3.324-25.875l0,0
		C305.114,403.693,302.441,412.71,304.332,423.939L304.332,423.939z"/>
</g>
</svg>
