<?xml version="1.0" encoding="utf-8"?>
<!-- Generator: Adobe Illustrator 16.0.0, SVG Export Plug-In . SVG Version: 6.00 Build 0)  -->
<!DOCTYPE svg PUBLIC "-//W3C//DTD SVG 1.1//EN" "http://www.w3.org/Graphics/SVG/1.1/DTD/svg11.dtd">
<svg version="1.1" id="Layer_1" xmlns="http://www.w3.org/2000/svg" xmlns:xlink="http://www.w3.org/1999/xlink" x="0px" y="0px"
	 width="688.84px" height="688.844px" viewBox="-31.887 -50.8 688.84 688.844"
	 enable-background="new -31.887 -50.8 688.84 688.844" xml:space="preserve">
<path fill="#FFFFFF" d="M396.737,638.044c-18.388,0-37.287-5.797-52.674-15.847c-26.308,7.928-55.13,3.793-78.202-11.071
	c-39.875-25.689-50.132,29.168-96.098,9.998c-23.408-9.763-43.478-37.924-51.416-58.831c-5.094-22.419-10.752-54.362,0.853-73.457
	c10.731-17.657,29.868-28.743,50.837-26.845c41.309-25.471,35.993-71.857,77.643-98.343
	c-50.48-34.115-126.238-129.183-185.777-108.218c-12.879-67.59-10.217-98.299,64.455-124.612
	c75.736-26.675,180.42,0.986,227.758,61.474c-7.349-54.326-65.811-256.44,53.89-242.396
	c124.232,29.854,200.985,215.128,139.384,323.631c-9.579,16.979-25.933,31.157-42.356,41.111
	c24.877,17.541,41.551,45.396,42.227,76.023c0.836,37.831,20.658,68.185,8.361,108.574c-12.143,39.88-45.625,49.751-73.997,73.264
	C470.549,609.678,436.135,638.044,396.737,638.044z"/>
<g id="Layer_3">
	<path fill="#2A100F" d="M188.79,576.721c3.282-3.047-0.765-5.088,2.426-9.248c2.697-3.518-5.358-0.369-5.712,1.836
		S187.04,578.346,188.79,576.721z"/>
	<path fill="#60343C" d="M188.62,576.721c2.273-3.332-0.663-5,2.595-9.248c2.697-3.518-5.358-0.369-5.712,1.836
		S188.215,577.7,188.62,576.721z"/>
	<path fill="#472C2D" d="M188.031,576.446c2.116-2.168-0.367-4.203,3.183-8.975c2.646-3.557-5.358-0.369-5.712,1.836
		S187.626,577.426,188.031,576.446z"/>
	<g>
		<path fill="#60343C" d="M206.689,561.284c1.893-7.412-8.171-7.27,1.955-22c9.428-13.717-14.25,13.188-14.75,15.312
			C193.394,556.719,205.859,564.534,206.689,561.284z"/>
		<path fill="#261B15" d="M206.373,561.231c0,0,0.051-0.268,0.146-0.77c0.047-0.25,0.125-0.564,0.101-0.902
			c-0.001-0.346,0.034-0.744-0.074-1.195c-0.108-0.91-0.561-1.959-1.165-3.139c-0.586-1.18-1.283-2.592-1.403-4.264
			c-0.138-1.666,0.306-3.438,0.994-5.172c0.391-0.855,0.75-1.748,1.258-2.596c0.238-0.43,0.478-0.863,0.721-1.305
			c0.273-0.422,0.549-0.846,0.827-1.273c0.562-0.854,1.133-1.721,1.711-2.598c0.286-0.439,0.568-0.889,0.835-1.348
			c0.131-0.23,0.263-0.463,0.373-0.705c0.055-0.121,0.106-0.244,0.135-0.371c0.011-0.062,0.017-0.137-0.027-0.162
			c-0.046-0.021-0.12,0.01-0.174,0.037c-0.902,0.562-1.623,1.4-2.39,2.158c-0.752,0.779-1.489,1.582-2.219,2.391
			c-2.889,3.258-5.679,6.607-8.207,9.805c-1.238,1.598-2.504,3.189-3.406,4.697c-0.29,0.395,0.49,1.17,1.05,1.729
			c0.616,0.582,1.284,1.086,1.93,1.557c1.296,0.945,2.568,1.703,3.708,2.336c1.148,0.615,2.188,1.084,3.064,1.336
			c0.867,0.271,1.595,0.283,1.898,0.111c0.292-0.164,0.3-0.398,0.319-0.383L206.373,561.231z M207,561.364
			c-0.027-0.031-0.013,0.432-0.612,0.816c-0.603,0.34-1.475,0.283-2.427,0.047c-0.968-0.238-2.074-0.67-3.287-1.268
			c-1.213-0.596-2.526-1.367-3.873-2.348c-0.671-0.492-1.347-1.039-2.002-1.68c-0.325-0.324-0.646-0.67-0.937-1.084
			c-0.143-0.227-0.276-0.414-0.377-0.77c-0.023-0.1-0.04-0.199-0.051-0.297l0.01-0.174c0.042-0.305,0.118-0.371,0.178-0.508
			c0.514-0.881,1.113-1.605,1.731-2.391c0.62-0.771,1.265-1.545,1.929-2.324c2.66-3.111,5.582-6.352,8.6-9.498
			c0.751-0.789,1.51-1.572,2.283-2.336c0.787-0.744,1.531-1.545,2.449-2.119c0.061-0.023,0.128-0.068,0.208-0.035
			c0.072,0.049,0.055,0.141,0.045,0.201c-0.031,0.135-0.084,0.258-0.141,0.379c-0.113,0.244-0.247,0.477-0.38,0.705
			c-0.271,0.457-0.557,0.902-0.847,1.34c-0.591,0.869-1.172,1.73-1.708,2.602c-0.273,0.43-0.545,0.855-0.814,1.279
			c-0.238,0.441-0.474,0.877-0.708,1.312c-0.5,0.848-0.853,1.744-1.209,2.604c-0.633,1.748-1.024,3.51-0.83,5.115
			c0.175,1.611,0.888,2.938,1.517,4.098c0.644,1.154,1.169,2.246,1.326,3.232c0.131,0.48,0.116,0.939,0.126,1.334
			c0.03,0.406-0.037,0.709-0.074,0.961c-0.077,0.504-0.118,0.773-0.118,0.773L207,561.364z"/>
	</g>
	<path fill="#2A100F" d="M203.707,560.221c-0.188-9.137-5.607-0.326,6.42-19.238c8.932-14.043-15.733,11.488-16.233,13.613
		S203.776,563.575,203.707,560.221z"/>
	<g>
		<path fill="#50611D" d="M431.161,271.786c-10.232-12.895-13.445-26.785-18.387-41.893c-2.867-8.771-5.52-16.2-4.729-19.278
			c1.121-4.35-7.514-21.359-6.188-26.25c0.365-1.356-7.324-23.752-4.908-29.222c1.68-3.801-13.41-38.688-9.287-43.573
			c1.633-1.935-3.896-18.58-2.121-22.971c1.607-3.977-3.096-7.218-1.867-11.133c2.979-9.498-3.449-20.416-1.074-25.309
			c1.604-3.302-1.158-13.358-0.826-19.509c0.182-3.346,2.65-8.87,2.98-11.754c3.047-26.76,6.158-23.731,24.623-13.407
			c3.059,1.71,7.176,5.125,11.477,5.125c7.191,0,12,10.695,16.885,10.873c7.508,0.273,17.59,25.799,27.664,28.194
			c8.104,1.926,17.645,27.707,21.406,29.154c3.74,1.438,6.832,18.807,12.656,26.679c8.289,11.203,6.938,28.351,10.412,32.099
			c4.695,5.064,0.873,17.696,2.578,20.07c4.531,6.309-1.312,16.932,1.393,27.045c3.393,12.682-7.443,20.853-6.104,32.861
			c0.504,4.513-4.279,14.523-4.152,22.686c0.121,7.898-2.525,9.835-4.463,11.668c-12.889,12.205-21.014,25.142-45.273,26.176
			C447.459,280.389,437.592,279.891,431.161,271.786z"/>
		<path fill="#9BAA66" d="M431.161,271.786c0,0-0.398-0.525-1.168-1.543c-0.395-0.503-0.863-1.142-1.387-1.926
			c-0.541-0.771-1.154-1.673-1.795-2.729c-2.67-4.157-5.889-10.706-8.83-19.45c-1.49-4.364-2.963-9.255-4.658-14.547
			c-0.863-2.642-1.764-5.391-2.693-8.244c-0.902-2.858-1.879-5.821-2.471-8.98c-0.137-0.791-0.252-1.593-0.277-2.412
			c-0.006-0.409,0.016-0.822,0.1-1.23c0.084-0.401,0.125-0.811,0.084-1.216c-0.145-1.637-0.676-3.242-1.205-4.851
			c-1.062-3.226-2.236-6.534-3.271-9.993c-0.51-1.731-1.014-3.492-1.396-5.306c-0.182-0.908-0.357-1.824-0.449-2.757
			c-0.039-0.467-0.064-0.938-0.025-1.409c-0.004-0.476,0.238-0.925,0.104-1.397c-0.24-1.889-1.322-3.583-1.977-5.409
			c-0.307-0.919-0.521-1.87-0.688-2.838c-0.125-0.979-0.252-1.963-0.379-2.952c-0.211-1.985-0.803-3.895-1.18-5.878
			c-0.404-1.975-0.768-3.983-0.979-6.028c-0.207-2.032-0.268-4.172,0.453-6.15c0.057-2.119-0.848-4.114-1.699-6.062
			c-0.93-1.939-1.676-3.944-2.135-6.067c-0.236-1.059-0.373-2.155-0.568-3.238c-0.178-1.089-0.354-2.184-0.639-3.247
			c-1.256-4.218-2.617-8.475-3.717-12.87c-0.516-2.196-1.775-4.271-2.021-6.64c-0.117-1.172-0.15-2.406,0.281-3.625
			c0.104-0.303,0.232-0.604,0.406-0.89c0.156-0.285,0.475-0.567,0.551-0.679c0.229-0.417,0.336-1.041,0.344-1.605
			c0.047-2.336-0.656-4.61-1.344-6.862c-0.33-1.133-0.713-2.26-1-3.415c-0.301-1.151-0.514-2.328-0.666-3.521
			c-0.164-1.19-0.262-2.403-0.234-3.632c0.045-1.218,0.092-2.5,0.623-3.691c0.531-1.028,0.598-2.254,0.266-3.417
			c-0.311-1.164-0.877-2.248-1.346-3.364c-0.469-1.108-0.836-2.321-0.658-3.542c0.096-0.603,0.316-1.178,0.451-1.773
			c0.141-0.595,0.25-1.197,0.332-1.804c0.324-2.432,0.172-4.912-0.182-7.354c-0.354-2.446-0.916-4.865-1.41-7.306
			c-0.244-1.22-0.465-2.45-0.582-3.695c-0.105-1.238-0.113-2.526,0.322-3.711c0.574-1.13,0.66-2.425,0.654-3.675
			c-0.008-1.259-0.121-2.517-0.254-3.773c-0.27-2.512-0.645-5.021-0.889-7.552c-0.225-2.518-0.438-5.119,0.279-7.599
			c0.617-2.482,1.535-4.886,2.184-7.375c0.348-1.242,0.41-2.537,0.584-3.812c0.156-1.279,0.322-2.558,0.506-3.837
			c0.371-2.555,0.791-5.114,1.438-7.628c0.33-1.253,0.713-2.5,1.262-3.678c0.549-1.164,1.281-2.316,2.41-2.996
			c1.129-0.686,2.527-0.709,3.791-0.441c1.277,0.263,2.502,0.743,3.693,1.271c2.383,1.074,4.666,2.358,6.953,3.629
			c2.271,1.303,4.607,2.504,6.803,3.948c2.209,1.391,4.484,2.813,7.072,3.379c1.281,0.328,2.633,0.105,3.904,0.493
			c1.271,0.353,2.443,0.993,3.516,1.755c2.145,1.539,3.932,3.499,5.809,5.343c0.941,0.917,1.9,1.831,3.006,2.554
			c0.553,0.357,1.145,0.666,1.785,0.828c0.637,0.166,1.318,0.094,1.938,0.352c1.246,0.449,2.295,1.301,3.25,2.199
			c0.953,0.91,1.822,1.903,2.652,2.925c1.658,2.048,3.178,4.203,4.693,6.354c3.043,4.286,5.971,8.698,9.668,12.44
			c1.85,1.823,3.977,3.559,6.566,4.137c1.254,0.403,2.318,1.226,3.273,2.108c0.955,0.894,1.803,1.895,2.604,2.924
			c0.799,1.034,1.547,2.104,2.264,3.195c0.719,1.088,1.377,2.212,2.125,3.282c1.512,2.13,3.193,4.182,4.326,6.521l1.789,3.448
			c0.562,1.164,1.135,2.321,1.736,3.458c0.611,1.128,1.225,2.266,2.021,3.26c0.211,0.236,0.436,0.464,0.688,0.642
			c0.244,0.166,0.586,0.271,0.828,0.499c0.504,0.425,0.865,0.971,1.193,1.522c0.66,1.106,1.188,2.277,1.771,3.426
			c0.543,1.166,1.182,2.298,1.734,3.46c1.139,2.315,2.309,4.604,3.203,6.958c0.943,2.338,1.701,4.716,2.555,7.07
			c0.441,1.168,0.938,2.315,1.537,3.415c0.295,0.549,0.643,1.093,0.959,1.632c0.293,0.565,0.633,1.093,0.922,1.651
			c0.572,1.118,1.191,2.2,1.885,3.273c0.701,1.067,1.467,2.137,2.055,3.284c0.59,1.147,0.943,2.374,1.221,3.606
			c0.311,1.226,0.486,2.474,0.662,3.712c0.26,2.496,0.408,4.967,0.586,7.417c0.074,1.228,0.246,2.437,0.461,3.637
			c0.262,1.179,0.49,2.412,1.172,3.426c0.354,0.496,0.805,0.851,1.273,1.267c0.463,0.473,0.881,0.992,1.131,1.581
			c0.535,1.168,0.762,2.424,0.807,3.653c0.156,2.469-0.416,4.827-0.123,7.224c0.26,1.207,0.711,2.431,0.615,3.579
			c-0.033,0.578-0.053,1.146-0.039,1.692c0.018,0.535,0.064,1.083,0.166,1.418c0.006,0.071,0.199,0.391,0.344,0.631
			c0.146,0.235,0.309,0.586,0.443,0.878c0.23,0.604,0.424,1.209,0.537,1.825c0.242,1.227,0.279,2.446,0.215,3.632
			c-0.066,1.188-0.229,2.348-0.418,3.493c-0.152,1.149-0.375,2.282-0.518,3.42c-0.125,1.139-0.414,2.262-0.215,3.425
			c0.191,1.164,0.633,2.312,0.631,3.406c-0.029,2.196,0.055,4.368,0.561,6.436c0.127,0.573,0.248,1.086,0.359,1.654
			c0.098,0.589,0.199,1.18,0.24,1.756c0.111,1.156,0.137,2.321,0.004,3.462c-0.461,4.612-2.434,8.636-4.189,12.485
			c-0.887,1.935-1.734,3.86-2.381,5.842c-0.617,1.988-0.984,4.037-1.027,6.085c-0.033,1.025,0.121,2.036,0.105,3.065
			c-0.049,1.023-0.229,2.024-0.451,3.008c-0.195,0.989-0.408,1.971-0.58,2.959c-0.156,0.993-0.312,1.98-0.469,2.962
			c-0.275,1.972-0.664,3.875-1.111,5.73c-0.404,1.865-0.795,3.702-1.027,5.542c-0.24,3.656-0.525,7.704-2.646,10.672
			c-0.531,0.728-1.123,1.399-1.693,2.097c-0.529,0.731-1.057,1.458-1.578,2.179c-0.988,1.478-2.338,2.567-3.539,3.776
			c-2.408,2.409-4.891,4.639-7.357,6.72c-1.234,1.04-2.477,2.031-3.723,2.968c-1.221,0.966-2.443,1.886-3.697,2.714
			c-2.486,1.68-4.998,3.136-7.541,4.258c-5.098,2.247-10.164,3.281-14.742,3.747c-4.586,0.451-8.736,0.464-12.275-0.13
			c-3.539-0.574-6.422-1.713-8.543-2.975c-2.131-1.258-3.523-2.575-4.41-3.489c-0.434-0.468-0.756-0.828-0.957-1.083
			C431.266,271.912,431.161,271.786,431.161,271.786z M431.161,271.786c0,0,0.104,0.126,0.311,0.376
			c0.201,0.254,0.525,0.615,0.959,1.083c0.885,0.914,2.277,2.23,4.41,3.489c2.119,1.262,5.002,2.401,8.543,2.975
			c3.537,0.594,7.689,0.582,12.275,0.13c4.576-0.466,9.645-1.5,14.74-3.747c5.086-2.24,10.113-5.757,14.439-10.497
			c2.221-2.31,4.35-4.847,6.729-7.298c1.195-1.22,2.283-2.589,3.811-3.558c0.748-0.488,1.502-0.98,2.26-1.476
			c0.73-0.511,1.391-1.136,1.877-1.896c1.029-1.488,1.518-3.304,1.648-5.123c0.178-1.84-0.055-3.628-0.098-5.599
			c-0.02-1.938,0.219-3.889,0.613-5.807c0.361-1.929,0.984-3.807,1.75-5.647c0.725-1.851,1.543-3.695,1.936-5.679
			c0.193-0.989,0.35-1.995,0.367-3.01c-0.014-1.008-0.195-2.029-0.189-3.063c-0.02-2.068,0.312-4.148,0.855-6.182
			c0.514-2.046,1.232-4.052,1.982-6.051c1.498-3.977,3.107-8.051,3.219-12.292c0.029-1.052,0.008-2.105-0.131-3.151
			c-0.053-0.53-0.16-1.031-0.252-1.538c-0.117-0.52-0.268-1.089-0.396-1.602c-0.596-2.266-0.818-4.625-0.752-6.952
			c0.051-1.169,0.646-2.29,1.055-3.396c0.414-1.104,0.396-2.255,0.549-3.395c0.133-1.14,0.189-2.292,0.246-3.443
			c0.016-1.154-0.002-2.31-0.111-3.446c-0.107-1.135-0.322-2.251-0.695-3.281c-0.18-0.518-0.424-1.003-0.684-1.462
			c-0.154-0.217-0.23-0.407-0.42-0.654c-0.172-0.253-0.332-0.41-0.562-0.875c-0.33-0.764-0.373-1.411-0.414-2.048
			c-0.033-0.633-0.031-1.245-0.018-1.849c-0.004-1.214,0.623-2.356,1.014-3.523c0.172-0.585,0.262-1.177,0.256-1.774
			c0.016-0.596,0.01-1.193-0.033-1.79c-0.098-1.192-0.27-2.382-0.537-3.532c-0.297-1.144-0.582-2.27-1.033-3.311
			c-0.217-0.527-0.438-1.042-0.678-1.554c-0.309-0.511-0.67-1.065-0.861-1.663c-0.891-2.281-1.375-4.67-2.041-7.046
			c-0.656-2.376-1.287-4.764-2.018-7.11c-0.324-1.174-0.65-2.351-0.979-3.53c-0.344-1.168-0.648-2.341-0.85-3.556
			c-0.195-1.216-0.279-2.495-0.582-3.719c-0.291-1.225-0.771-2.398-1.455-3.452c-0.621-1.091-1.406-2.071-2.254-3.017
			c-0.846-0.964-1.609-2.009-2.322-3.086c-1.459-2.142-2.623-4.465-3.486-6.878c-0.908-2.4-1.408-4.931-2.02-7.423
			c-0.592-2.49-1.232-5.015-2.584-7.216c-0.352-0.534-0.738-1.061-1.24-1.448c-0.242-0.209-0.545-0.277-0.844-0.457
			c-0.283-0.178-0.521-0.405-0.75-0.638c-0.924-0.93-1.676-2-2.418-3.066c-0.734-1.073-1.439-2.167-2.133-3.265l-1.957-3.364
			c-1.361-2.21-2.191-4.709-3.342-7.056c-0.586-1.167-1.293-2.262-2.006-3.354c-0.717-1.09-1.463-2.161-2.262-3.195
			c-0.803-1.029-1.65-2.03-2.605-2.924c-0.955-0.882-2.021-1.705-3.273-2.108c-2.59-0.578-4.717-2.313-6.566-4.137
			c-3.697-3.743-6.625-8.154-9.668-12.44c-1.518-2.151-3.035-4.306-4.693-6.354c-0.83-1.022-1.699-2.015-2.652-2.925
			c-0.953-0.898-2.004-1.75-3.25-2.199c-0.617-0.257-1.301-0.186-1.938-0.352c-0.641-0.163-1.232-0.471-1.783-0.828
			c-1.105-0.723-2.064-1.637-3.008-2.554c-1.877-1.844-3.662-3.804-5.809-5.343c-1.07-0.762-2.242-1.402-3.514-1.755
			c-1.271-0.387-2.625-0.165-3.906-0.493c-2.586-0.565-4.863-1.988-7.072-3.379c-2.193-1.444-4.529-2.645-6.803-3.948
			c-2.287-1.271-4.57-2.555-6.953-3.629c-1.191-0.527-2.416-1.008-3.693-1.271c-1.264-0.269-2.66-0.245-3.791,0.441
			c-1.129,0.68-1.861,1.832-2.408,2.996c-0.551,1.178-0.934,2.425-1.264,3.678c-0.646,2.514-1.064,5.073-1.438,7.628
			c-0.182,1.279-0.348,2.558-0.504,3.837c-0.174,1.275-0.238,2.57-0.584,3.812c-0.648,2.489-1.564,4.892-2.186,7.375
			c-0.715,2.48-0.504,5.081-0.279,7.599c0.246,2.531,0.619,5.04,0.889,7.552c0.133,1.256,0.246,2.514,0.254,3.773
			c0.008,1.25-0.08,2.545-0.654,3.675c-0.438,1.188-0.428,2.474-0.322,3.711c0.117,1.245,0.338,2.475,0.584,3.695
			c0.492,2.44,1.059,4.859,1.408,7.306c0.354,2.441,0.506,4.921,0.184,7.354c-0.082,0.607-0.191,1.209-0.334,1.804
			c-0.135,0.595-0.355,1.17-0.451,1.773c-0.176,1.221,0.189,2.434,0.658,3.542c0.469,1.121,1.053,2.182,1.467,3.327
			c0.412,1.126,0.598,2.448,0.191,3.66c-0.299,1.084-0.166,2.267-0.025,3.419c0.16,1.158,0.365,2.313,0.549,3.474
			c0.199,1.159,0.4,2.318,0.531,3.492c0.146,1.171,0.219,2.357,0.334,3.533c0.174,2.367,0.461,4.681,0.818,6.987
			c0.045,0.587,0.199,1.157,0.035,1.838c-0.16,0.418-0.287,0.543-0.346,0.802c-0.064,0.242-0.102,0.497-0.115,0.759
			c-0.014,1.055,0.1,2.15,0.191,3.256c0.242,2.197-0.033,4.587,0.527,6.789c1.092,4.395,2.387,8.675,3.764,12.854
			c0.373,1.036,0.861,2.031,1.346,3.023c0.463,0.998,0.98,1.976,1.393,2.983c0.832,2.012,1.354,4.115,1.568,6.281
			c0.123,1.073,0.246,2.141,0.367,3.205c0.105,1.058,0.348,2.091,0.303,3.143c-0.721,1.978-0.66,4.118-0.451,6.15
			c0.211,2.045,0.57,4.053,0.979,6.028c0.439,1.967,0.771,3.943,1.521,5.792c0.365,0.925,0.729,1.845,1.094,2.76
			c0.33,0.922,0.617,1.851,0.812,2.8c0.32,1.917,0.332,3.898,0.807,5.725c0.145,0.474-0.086,0.938-0.07,1.403
			c-0.027,0.467,0.008,0.935,0.059,1.398c0.105,0.926,0.309,1.833,0.555,2.722c0.484,1.778,1.088,3.499,1.693,5.191
			c1.221,3.384,2.477,6.668,3.355,9.986c0.395,1.666,0.793,3.33,0.797,5.012c0.02,0.861-0.326,1.626-0.291,2.45
			c-0.006,0.814,0.084,1.623,0.23,2.412c0.592,3.16,1.566,6.122,2.471,8.98c0.932,2.853,1.83,5.602,2.691,8.244
			c1.697,5.292,3.17,10.183,4.66,14.547c2.941,8.744,6.16,15.293,8.83,19.45c0.641,1.058,1.254,1.959,1.795,2.729
			c0.521,0.784,0.992,1.422,1.387,1.926C430.762,271.261,431.161,271.786,431.161,271.786z"/>
	</g>
	<path fill="#5A6E21" d="M472.963,256.724c42.811-33.271,41.002-134.997,6.912-175.22c-48.945-57.749-37.902-7.826-38.92,19.216
		c-1.061,28.082,19.957,69.911,6.004,131.001C433.006,292.811,463.92,263.75,472.963,256.724z"/>
	<path fill="#9BAA66" d="M461.694,99.719c11.754,15.049,44.158,54.521,18.26,130c-10.99,32.023-12.832-12.072-9.967-46.977
		C472.959,146.556,448.932,83.375,461.694,99.719z"/>
	<path fill="#64484B" d="M449.25,263.167c26.197-64.442,3.207-162.509-57.293-263.073c23.006,47.015,101.375,182.516,46,266.648
		c-5.473,8.313-2.994-1.505-10.998,7.987c-8.002,9.492-16.834,9.488-27.168,33.991c-10.334,24.502-23.914,31.28-33.875,39.142
		c-9.959,7.86-85.062,70.519-121.635,117.497c-17.33,22.264-35.924,28.086-52.325,48.312c-13.41,16.537-13.861,7.41-18.43,2.229
		c-4.569-5.18-2.678,1.512-8.571-2c-4.498-2.68-7.054,6.604-4.026,13.816c3.028,7.213,5.355,9.307,4.19,19.15
		c-1.165,9.846,3.086,10.104,10.088,17.102c7.002,7,16.416,19.723,12.697,8.602c-0.953-2.85,3.093-3.561,6.977-4.248
		c3.884-0.686,18.699-5.799,8.068-11.557c-10.631-5.756-0.445-2.014,2.012-8.033c4.001-9.805,4.793-16.125,25.162-32.342
		c17.09-13.607,29.843-27.791,38.173-37.443c20.328-23.559,75.906-90.957,103.416-108.95c22.771-14.894,27.561-16.207,30.23-20.362
		c4.527-7.047,21.705,0.34,30.947-17.914c7.078-13.978-9.277-13.109-11.693-23.437c-2.418-10.327,24.547-29.106,32.652-28.168
		C442.459,278.286,446.61,269.661,449.25,263.167z"/>
	<g>
		<path fill="#50611D" d="M167.957,174.712c-27.328,0.781-53.359,22.045-63.886,44.04c-7.864-43.401,4.895-17.08,21.622-30.96
			C135.976,179.26,155.581,174.755,167.957,174.712L167.957,174.712z"/>
		<path fill="#5A6E21" d="M167.957,174.712l-2.533,0.143l-2.521,0.273l-2.506,0.384l-2.486,0.49l-2.463,0.592l-2.436,0.691
			l-2.405,0.789l-2.373,0.877c-1.568,0.621-3.117,1.288-4.641,2.007c-1.516,0.736-3.025,1.483-4.511,2.278
			c-2.967,1.598-5.832,3.386-8.581,5.337c-2.749,1.952-5.383,4.066-7.888,6.325c-1.255,1.126-2.476,2.291-3.657,3.495
			c-1.188,1.196-2.339,2.431-3.447,3.703c-1.122,1.259-2.178,2.576-3.232,3.892c-1.054,1.317-2.06,2.674-3.022,4.061
			c-0.967,1.384-1.878,2.808-2.748,4.256c-0.868,1.45-1.669,2.939-2.436,4.448l0,0v-0.002c-0.697-3.885-1.356-7.779-1.838-11.698
			c-0.241-1.958-0.43-3.925-0.511-5.897c-0.056-1.964-0.072-3.971,0.47-5.877c0.274-0.938,0.767-1.865,1.6-2.418
			c0.827-0.561,1.851-0.698,2.827-0.728c1.975-0.027,3.938,0.261,5.913,0.273c1.972,0.036,3.958-0.15,5.86-0.685
			c1.904-0.524,3.711-1.378,5.35-2.478c0.83-0.537,1.595-1.163,2.365-1.779c0.764-0.625,1.571-1.195,2.39-1.746
			c1.641-1.098,3.362-2.072,5.129-2.951c3.539-1.753,7.248-3.145,11.024-4.29c3.779-1.141,7.634-2.03,11.527-2.681
			C160.07,175.154,164.008,174.742,167.957,174.712z M167.957,174.712c-3.949,0.029-7.887,0.442-11.781,1.084
			c-3.894,0.65-7.748,1.54-11.527,2.681c-3.776,1.145-7.485,2.537-11.024,4.29c-1.767,0.878-3.488,1.853-5.129,2.951
			c-0.818,0.551-1.625,1.121-2.39,1.746c-0.77,0.616-1.535,1.242-2.365,1.779c-1.638,1.099-3.446,1.953-5.35,2.478
			c-1.903,0.534-3.889,0.721-5.86,0.685c-1.975-0.012-3.938-0.301-5.913-0.273c-0.977,0.03-2,0.167-2.827,0.728
			c-0.833,0.553-1.325,1.48-1.6,2.418c-0.542,1.907-0.526,3.913-0.47,5.877c0.081,1.973,0.27,3.939,0.511,5.897
			c0.482,3.919,1.141,7.812,1.838,11.698v0.002l0,0c0.567-1.604,1.217-3.185,1.963-4.721c0.765-1.523,1.544-3.052,2.443-4.507
			c0.898-1.455,1.843-2.884,2.84-4.277c0.494-0.7,0.996-1.396,1.539-2.059c0.53-0.673,1.059-1.348,1.618-1.998
			c1.095-1.319,2.234-2.604,3.413-3.85c1.171-1.254,2.385-2.47,3.635-3.648c1.246-1.183,2.523-2.336,3.85-3.431
			c1.331-1.089,2.699-2.134,4.095-3.14c2.779-2.034,5.744-3.806,8.784-5.423c1.521-0.808,3.074-1.559,4.664-2.224
			c1.582-0.685,3.218-1.236,4.857-1.757l2.493-0.672l2.51-0.576l2.521-0.486l2.532-0.387c0.848-0.096,1.695-0.182,2.534-0.307
			l2.531-0.251l2.531-0.209L167.957,174.712z"/>
	</g>
	<g>
		<path fill="#404609" d="M116.413,200.702c8.092-9.562,21.079-19.872,36.549-24.312c12.495-3.587,18.114,0.45,18.533-2.586
			c0.906-6.565,21.024,3.908,21.462,1.547c1.167-6.295,17.032,3.909,17.032,2.349c0-8.144,18.13,7.672,18.13,4.494
			c0-10.612,22.641,11.771,23.504,7.862c2.386-10.796,20.674,14.716,23.303,10.647c5.197-8.042,13.119,14.142,16.771,11.227
			c10.275-8.209,25.4,29.418,35.094,28.654c13.168-1.038,16.166,41.207,22.689,41.207c8.498,0-0.434,22.414,1.457,23.923
			c10.188,8.127-10.518,29.111-21.943,40.094c-8.842,8.496-12.283,2.722-20.938-3.666c-7.352-5.428-16.998-7.685-31.355-16.414
			c-8.486-5.157-14.574-11.672-31.241-20.172c-6.987-3.563-4-6.268-22.5-18.833c-6.419-4.36-18.646-9.16-18.719-12.72
			c-0.114-5.553-28.604-20.782-29.28-24.151c-1.464-7.295-22.549-16.643-23.068-20.984c-0.933-7.811-21.634-15.097-19.636-18.112
			C132.926,209.743,120.858,201.808,116.413,200.702"/>
		<path fill="#5A6E21" d="M116.413,200.702c0,0,0.409-0.485,1.201-1.426c0.793-0.94,1.934-2.362,3.635-4.043
			c3.302-3.432,8.458-8.291,16.159-12.913c1.959-1.085,3.949-2.385,6.248-3.339c1.131-0.511,2.278-1.064,3.473-1.576
			c1.227-0.435,2.48-0.88,3.759-1.333c0.646-0.224,1.274-0.461,1.955-0.682c0.647-0.192,1.321-0.378,2.028-0.555
			c1.386-0.343,2.814-0.627,4.287-0.832c2.928-0.397,6.1-0.488,9.158-0.158c0.734,0.081,1.521,0.242,2.007,0.21
			c0.24-0.031,0.28,0.01,0.39-0.158c0.082-0.076,0.185-0.77,0.44-1.198c0.512-0.952,1.512-1.481,2.392-1.682
			c0.899-0.221,1.786-0.27,2.66-0.275c3.48,0.063,6.954,0.604,10.351,1.401c0.85,0.193,1.69,0.412,2.517,0.636
			c0.828,0.204,1.64,0.457,2.348,0.773c0.337,0.156,0.715,0.297,0.823,0.401c0.008,0.013-0.006,0.024-0.005,0.042l-0.1,0.067
			c-0.118,0.064-0.426,0.224-0.62,0.651c-0.107,0.239-0.092,0.366-0.052,0.225l0.076-0.155c0.045-0.101,0.149-0.349,0.23-0.504
			c0.345-0.614,0.876-1.202,1.497-1.538c0.611-0.361,1.228-0.495,1.795-0.587c1.139-0.138,2.153-0.025,3.149,0.098
			c0.994,0.126,1.961,0.312,2.922,0.517c1.922,0.402,3.788,0.986,5.554,1.714c0.881,0.356,1.744,0.772,2.49,1.242l0.508,0.316
			c0.066,0.047,0.137,0.092,0.147,0.119c0.021,0.019-0.012,0.023-0.04,0.037c-0.059,0.013-0.17,0.007-0.45,0.112
			c-0.4,0.051-1,0.839-0.942,1.294c0.013,0.037,0.03-0.093,0.044-0.131l0.111-0.452c0.092-0.375,0.208-0.689,0.385-1.043
			c0.194-0.346,0.429-0.702,0.768-0.991c0.33-0.292,0.724-0.489,1.099-0.61c0.754-0.211,1.405-0.188,1.987-0.115
			c1.164,0.165,2.172,0.479,3.167,0.824c1.979,0.685,3.914,1.429,5.754,2.328c1.816,0.911,3.623,1.91,5.109,3.066
			c0.338,0.289,0.771,0.562,0.873,0.703c-0.012,0.037-0.006,0.033-0.276,0.14c-0.103,0.049-0.303,0.19-0.409,0.352
			c-0.118,0.187-0.139,0.316-0.141,0.412c-0.003,0.119,0.025,0.084,0.041-0.019l0.052-0.192l0.12-0.44
			c0.186-0.647,0.419-1.264,0.904-1.844c0.478-0.584,1.241-0.916,1.885-0.985c1.314-0.144,2.404,0.211,3.468,0.535
			c1.061,0.342,2.07,0.768,3.092,1.176c4.034,1.696,8.039,3.675,11.598,5.946c0.899,0.528,1.751,1.13,2.427,1.751
			c0.164,0.139,0.33,0.298,0.445,0.412c0.101,0.128,0.242,0.214,0.057,0.287c-0.121,0.041-0.332,0.117-0.609,0.376
			c-0.234,0.232-0.318,0.64-0.238,0.546l0.214-0.372l0.268-0.488c0.378-0.619,0.797-1.249,1.486-1.74
			c0.325-0.257,0.724-0.419,1.11-0.552c0.391-0.096,0.789-0.163,1.152-0.149c1.479,0.053,2.6,0.606,3.693,1.109
			c2.156,1.073,4.125,2.321,6.098,3.574c1.959,1.261,3.869,2.58,5.678,3.916c0.867,0.651,1.738,1.303,2.611,1.958
			c0.41,0.318,0.842,0.567,1.178,0.861c0.328,0.299,0.604,0.597,0.639,0.848c0,0.121-0.111,0.194-0.434,0.397
			c-0.143,0.106-0.324,0.271-0.396,0.437c-0.041,0.093-0.055,0.134-0.061,0.209c0.137-0.126,0.158-0.102,0.238-0.162
			c0.131-0.083,0.27-0.161,0.395-0.249l0.469-0.327l0.543-0.376c0.18-0.118,0.383-0.197,0.562-0.301
			c0.355-0.203,0.812-0.326,1.227-0.443c0.445-0.073,0.893-0.101,1.309-0.02c0.832,0.131,1.529,0.469,2.109,0.833
			c1.17,0.746,2.123,1.585,3.031,2.445c0.912,0.855,1.773,1.731,2.613,2.609c0.832,0.881,1.643,1.765,2.406,2.64
			c0.76,0.871,1.494,1.75,2.176,2.466c0.338,0.375,0.627,0.687,0.779,0.94c0.021,0.043,0.062,0.115,0.066,0.154
			c-0.021,0.004-0.031,0.049-0.072,0.085c-0.105-0.016-0.168,0.045-0.295,0.077c-0.146,0.014-0.273,0.155-0.344,0.195
			c-0.041,0.034-0.072,0.078-0.096,0.127c-0.098,0.114,0.41-0.241,0.309-0.139l0.428-0.164c0.145-0.052,0.279-0.119,0.42-0.177
			c0.107-0.058,0.4-0.152,0.594-0.218c0.424-0.131,0.871-0.331,1.27-0.378c0.398-0.061,0.805-0.123,1.205-0.154
			c1.631-0.018,3.033,0.545,4.25,1.19c1.215,0.671,2.25,1.467,3.234,2.303c3.848,3.399,6.875,7.298,9.922,11.16
			c3.043,3.842,5.949,7.82,9.121,11.291c0.824,0.812,1.619,1.653,2.373,2.442c0.758,0.775,1.523,1.616,2.432,1.952
			c0.219,0.062,0.445,0.104,0.684,0.161c0.414,0.025,0.621,0.028,1.055,0.084c0.756,0.095,1.432,0.256,2.088,0.541
			c1.307,0.552,2.383,1.442,3.273,2.417c1.807,1.957,3.027,4.243,4.166,6.525c1.119,2.298,2.051,4.666,2.914,7.051
			c1.729,4.769,3.18,9.627,4.646,14.43c0.365,1.201,0.74,2.396,1.145,3.571c0.424,1.167,0.805,2.34,1.17,3.5
			c0.369,1.145,0.738,2.357,1.471,3.155c0.189,0.167,0.385,0.337,0.6,0.401c0.053,0.029,0.105,0.02,0.16,0.035
			c0.014,0.008,0.16,0.024,0.238,0.033l0.473,0.052c0.686,0.109,1.461,0.378,1.955,0.903c0.525,0.499,0.887,1.134,1.109,1.772
			c0.25,0.64,0.361,1.3,0.459,1.954c0.186,1.31,0.188,2.614,0.123,3.907c-0.145,2.582-0.479,5.134-0.922,7.642
			c-0.209,1.257-0.473,2.498-0.691,3.731c-0.219,1.216-0.512,2.49-0.607,3.527c-0.002,0.11-0.012,0.254,0,0.284
			c-0.004,0.019,0.004,0.097-0.021,0.026c-0.037-0.057-0.088-0.041,0.006,0.042l0.646,0.704c0.414,0.541,0.877,1.152,1.139,1.771
			c0.613,1.229,0.877,2.599,0.85,3.929c-0.104,2.672-1.086,5.123-2.234,7.396c-1.168,2.279-2.596,4.395-4.098,6.436
			c-3.041,4.059-6.395,7.842-9.879,11.471c-1.732,1.822-3.496,3.609-5.283,5.369c-1.799,1.744-3.555,3.533-5.471,5.136
			c-0.984,0.764-2.01,1.495-3.16,1.979c-1.117,0.557-2.398,0.738-3.629,0.635c-1.248-0.092-2.41-0.623-3.484-1.223
			c-1.09-0.6-2.07-1.363-3.061-2.105c-1.953-1.52-3.842-3.115-5.826-4.571c-1.031-0.672-2.037-1.381-3.084-2.021
			c-1.078-0.586-2.139-1.207-3.229-1.762c-4.373-2.203-8.875-4.064-13.205-6.213c-2.189-1.02-4.293-2.195-6.424-3.294
			c-2.074-1.2-4.17-2.351-6.184-3.618c-4.033-2.527-7.746-5.453-11.547-8.168c-3.814-2.697-7.674-5.262-11.652-7.529l-1.477-0.871
			l-1.507-0.809c-1.003-0.537-2.004-1.072-3.002-1.607c-1.008-0.518-1.978-1.096-2.941-1.676c-0.505-0.258-0.919-0.643-1.354-0.998
			c-0.432-0.357-0.879-0.699-1.243-1.125c-0.779-0.805-1.522-1.636-2.255-2.472c-0.736-0.834-1.528-1.61-2.285-2.415
			c-1.612-1.507-3.197-3.035-4.935-4.354c-0.852-0.682-1.701-1.359-2.547-2.035c-0.865-0.65-1.755-1.262-2.627-1.891
			c-1.765-1.226-3.451-2.543-5.271-3.631c-3.626-2.193-7.384-4.021-10.931-6.085c-1.758-1.045-3.526-2.097-4.967-3.516
			c-0.356-0.355-0.672-0.756-0.894-1.206c-0.242-0.45-0.201-0.977-0.347-1.452c-0.349-0.94-0.994-1.73-1.661-2.453
			c-2.752-2.855-5.958-5.099-9.041-7.317c-3.109-2.195-6.215-4.256-9.228-6.301c-1.506-1.023-2.993-2.039-4.437-3.077
			c-1.431-1.051-2.871-2.077-4.083-3.319c-0.296-0.312-0.581-0.655-0.708-1.07l-0.174-0.621c-0.071-0.202-0.166-0.396-0.247-0.593
			c-0.375-0.769-0.85-1.482-1.396-2.126c-1.074-1.306-2.33-2.416-3.588-3.468c-2.54-2.087-5.182-3.885-7.732-5.631
			c-2.547-1.75-5.058-3.391-7.288-5.23c-0.559-0.457-1.082-0.949-1.57-1.462c-0.463-0.526-0.923-1.1-1.057-1.792
			c-0.196-1.388-0.906-2.614-1.735-3.653c-1.708-2.072-3.802-3.613-5.802-5.018c-2.016-1.398-4.016-2.615-5.899-3.788
			c-1.876-1.182-3.69-2.262-5.194-3.552c-0.356-0.339-0.725-0.67-0.957-1.093c-0.116-0.206-0.203-0.438-0.181-0.675
			c-0.006-0.226,0.252-0.44,0.09-0.664c-0.509-0.778-1.26-1.309-1.917-1.857c-2.736-2.102-5.252-3.627-7.304-4.827
			c-2.06-1.189-3.7-1.994-4.835-2.466C117.038,200.835,116.413,200.702,116.413,200.702s0.625,0.133,1.757,0.614
			c1.135,0.472,2.775,1.276,4.835,2.466c2.051,1.2,4.567,2.726,7.304,4.827c0.657,0.548,1.408,1.079,1.917,1.857
			c0.162,0.223-0.096,0.438-0.09,0.664c-0.022,0.237,0.065,0.469,0.181,0.675c0.232,0.423,0.601,0.754,0.957,1.093
			c1.503,1.29,3.317,2.37,5.194,3.552c1.884,1.173,3.884,2.39,5.899,3.788c2,1.405,4.094,2.946,5.802,5.018
			c0.83,1.039,1.539,2.265,1.735,3.653c0.133,0.691,0.594,1.266,1.057,1.792c0.489,0.514,1.011,1.005,1.57,1.462
			c2.23,1.839,4.741,3.48,7.288,5.23c2.55,1.746,5.192,3.544,7.732,5.631c1.258,1.052,2.514,2.162,3.588,3.468
			c0.546,0.645,1.021,1.358,1.396,2.126c0.082,0.197,0.176,0.391,0.247,0.593l0.174,0.621c0.127,0.416,0.413,0.758,0.708,1.07
			c1.212,1.243,2.652,2.269,4.083,3.319c1.444,1.038,2.931,2.054,4.437,3.077c3.013,2.045,6.119,4.106,9.228,6.301
			c3.083,2.218,6.289,4.462,9.041,7.317c0.667,0.723,1.312,1.513,1.661,2.453c0.146,0.475,0.105,1.002,0.347,1.452
			c0.222,0.45,0.537,0.851,0.894,1.206c1.44,1.419,3.209,2.471,4.967,3.516c3.547,2.064,7.305,3.893,10.931,6.085
			c1.82,1.087,3.506,2.406,5.271,3.632c0.872,0.629,1.762,1.238,2.627,1.889c0.846,0.677,1.695,1.355,2.547,2.035
			c1.738,1.32,3.322,2.847,4.935,4.354c0.757,0.804,1.549,1.581,2.285,2.415c0.732,0.836,1.476,1.667,2.255,2.471
			c0.364,0.428,0.812,0.769,1.243,1.127c0.435,0.354,0.849,0.739,1.354,0.996c0.964,0.582,1.934,1.159,2.941,1.676
			c0.998,0.535,1.999,1.07,3.002,1.608l1.507,0.808l1.477,0.871c3.979,2.269,7.838,4.832,11.651,7.53
			c3.803,2.716,7.516,5.64,11.547,8.168c2.014,1.267,4.107,2.417,6.184,3.618c2.133,1.098,4.232,2.275,6.426,3.294
			c4.328,2.149,8.83,4.009,13.203,6.214c1.092,0.555,2.148,1.174,3.229,1.76c1.047,0.64,2.055,1.349,3.084,2.021
			c1.986,1.456,3.875,3.05,5.826,4.572c0.988,0.74,1.971,1.506,3.061,2.104c1.074,0.602,2.236,1.131,3.486,1.225
			c1.229,0.103,2.51-0.078,3.629-0.635c1.148-0.484,2.176-1.218,3.158-1.98c1.92-1.598,3.66-3.403,5.451-5.156
			c1.775-1.77,3.533-3.562,5.25-5.4c3.404-3.695,6.721-7.516,9.576-11.672c1.422-2.078,2.764-4.221,3.828-6.488
			c1.053-2.258,1.898-4.67,1.906-7.098c-0.023-1.201-0.277-2.39-0.883-3.386c-0.299-0.522-0.672-0.89-1.098-1.286l-0.754-0.586
			c-0.035-0.014-0.158-0.145-0.293-0.324c-0.143-0.189-0.146-0.279-0.197-0.408c-0.102-0.271-0.107-0.449-0.141-0.653
			c-0.141-1.503,0.102-2.733,0.336-4.009c0.262-1.256,0.521-2.498,0.816-3.728c0.559-2.463,1.172-4.905,1.486-7.379
			c0.156-1.231,0.26-2.475,0.172-3.689c-0.117-1.184-0.381-2.442-1.188-3.187c-0.105-0.084-0.197-0.187-0.309-0.259l-0.354-0.192
			c-0.115-0.079-0.246-0.079-0.365-0.127c-0.123-0.036-0.229-0.089-0.402-0.086l-0.475-0.03l-0.234-0.011
			c-0.102-0.011-0.211-0.004-0.307-0.036c-0.414-0.068-0.756-0.266-1.072-0.471c-1.184-0.888-1.979-2.012-2.676-3.142
			c-0.691-1.141-1.18-2.348-1.59-3.568c-0.424-1.216-0.812-2.433-1.188-3.648c-1.477-4.867-2.662-9.754-4.178-14.51
			c-0.762-2.373-1.588-4.717-2.584-6.967c-1-2.235-2.199-4.412-3.801-6.129c-0.803-0.847-1.723-1.555-2.729-1.955
			c-0.486-0.209-1.045-0.329-1.527-0.327c-0.188-0.019-0.604,0.038-0.812,0.071l-1.18,0.077c-1.574-0.072-2.982-0.593-4.217-1.26
			c-1.266-0.661-2.227-1.583-3.158-2.512c-3.633-3.736-6.434-7.831-9.287-11.793c-1.424-1.981-2.844-3.936-4.316-5.81
			c-1.48-1.858-2.988-3.695-4.689-5.182c-0.428-0.357-0.844-0.749-1.289-1.05c-0.221-0.156-0.436-0.333-0.658-0.473l-0.676-0.39
			c-0.9-0.465-1.812-0.774-2.605-0.751c-0.193,0.03-0.381,0.07-0.574,0.088c-0.199,0.021-0.285,0.141-0.428,0.191
			c-0.078,0.058-0.092,0.015-0.225,0.142c-0.109,0.105-0.227,0.201-0.332,0.313l-0.322,0.326c-0.229,0.181,0.158-0.083-0.07,0.1
			c-0.152,0.123-0.314,0.241-0.484,0.349c-0.312,0.234-0.766,0.341-1.195,0.428c-0.424,0.067-0.779,0.023-1.18-0.02
			c-0.32-0.062-0.604-0.146-0.9-0.254c-0.254-0.103-0.457-0.207-0.688-0.321c-0.809-0.45-1.387-0.965-1.832-1.484
			c-1.785-2.087-2.824-4.186-3.955-6.246c-0.551-1.026-1.105-2.031-1.721-2.96c-0.619-0.914-1.297-1.793-2.068-2.353
			c-0.375-0.301-0.766-0.468-1.08-0.523c-0.314-0.057-0.562-0.016-0.795,0.241c-0.125,0.107-0.189,0.277-0.227,0.431l-0.104,0.329
			c-0.047,0.145-0.082,0.3-0.123,0.45c-0.008,0.055-0.066,0.198-0.023,0.186c-0.102,0.183-0.184,0.357-0.342,0.536
			c-0.289,0.357-0.727,0.675-1.152,0.848c-0.885,0.351-1.59,0.331-2.143,0.299c-2.109-0.193-3.084-1.036-4.092-1.836
			c-0.982-0.793-1.844-1.623-2.67-2.458c-1.633-1.687-3.071-3.455-4.545-5.148c-1.465-1.682-2.973-3.334-4.68-4.532
			c-0.833-0.589-1.783-1.073-2.546-1.121c-0.758-0.091-1.104,0.41-1.151,1.278l0.017,0.727c0.023-0.009-0.064,0.37-0.133,0.539
			c-0.125,0.256-0.261,0.505-0.498,0.715c-0.481,0.455-0.984,0.572-1.372,0.646c-0.739,0.097-1.137,0.021-1.555-0.021
			c-0.407-0.058-0.742-0.129-1.076-0.22c-1.299-0.339-2.3-0.91-3.236-1.557c-3.746-2.489-6.649-5.674-9.993-8.161
			c-0.828-0.623-1.697-1.169-2.587-1.612c-0.879-0.424-1.85-0.761-2.63-0.682c-0.388,0.042-0.632,0.227-0.76,0.493
			c-0.123,0.271-0.154,0.692-0.079,1.067l0.063,0.332l0.039,0.195c0.014,0.027,0.03,0.12,0.014,0.367
			c-0.031,0.218-0.082,0.482-0.29,0.763c-0.174,0.271-0.499,0.479-0.719,0.568c-0.514,0.199-0.775,0.167-1.04,0.178
			c-0.917-0.034-1.426-0.209-2.013-0.354c-1.108-0.331-2.046-0.799-2.935-1.329c-0.891-0.521-1.738-1.07-2.559-1.642
			c-1.643-1.129-3.188-2.37-4.841-3.265c-0.823-0.425-1.679-0.81-2.46-0.928c-0.385-0.065-0.739-0.048-0.916,0.049
			c-0.163,0.105-0.144,0.175-0.142,0.384c0.015,0.103,0.007,0.261,0.056,0.369c0.009,0.031,0.017,0.047,0.025,0.089l0.033,0.183
			c0.009,0.083,0.025,0.074,0.028,0.231c0.059,0.583-0.638,1.467-1.148,1.562c-0.397,0.139-0.629,0.137-0.809,0.146
			c-0.148,0.003-0.301-0.004-0.398-0.011c-0.227-0.016-0.389-0.036-0.554-0.057c-0.316-0.049-0.587-0.104-0.855-0.159
			c-1.046-0.226-1.929-0.595-2.792-0.998c-1.719-0.797-3.316-1.706-4.918-2.513c-0.8-0.401-1.612-0.747-2.419-1.001
			c-0.802-0.247-1.632-0.382-2.307-0.298c-0.328,0.038-0.614,0.143-0.756,0.294c-0.148,0.151-0.178,0.323-0.166,0.542
			c0.013,0.059,0.032,0.02,0.027,0.139v0.173c0.02-0.03-0.004,0.201-0.148,0.546c-0.308,0.626-0.818,0.906-1.145,1.046
			c-0.147,0.062-0.296,0.108-0.427,0.145l-0.339,0.074c-0.788,0.133-1.295,0.108-1.827,0.09c-1.032-0.053-1.918-0.298-2.772-0.597
			c-0.856-0.283-1.68-0.592-2.484-0.919c-3.218-1.243-6.216-2.843-9.291-3.448c-0.759-0.148-1.521-0.219-2.214-0.132
			c-0.688,0.091-1.283,0.352-1.503,0.862c-0.138,0.279-0.075,0.404-0.214,1.083c-0.065,0.289-0.251,0.6-0.489,0.855
			c-0.246,0.235-0.542,0.411-0.798,0.502c-1.043,0.362-1.842,0.361-2.644,0.38c-1.573-0.002-3.028-0.199-4.486-0.184
			c-1.451-0.015-2.876,0.062-4.271,0.212c-1.394,0.155-2.76,0.387-4.084,0.677c-0.647,0.143-1.307,0.304-1.974,0.482
			c-0.624,0.185-1.267,0.406-1.891,0.604c-1.254,0.406-2.483,0.804-3.686,1.193c-1.176,0.465-2.306,0.974-3.423,1.442
			c-2.264,0.875-4.273,2.035-6.237,3.025c-0.995,0.475-1.889,1.066-2.776,1.61c-0.887,0.547-1.749,1.078-2.583,1.593
			c-1.642,1.074-3.104,2.199-4.508,3.184c-2.701,2.109-4.985,3.946-6.684,5.595c-1.778,1.571-3.007,2.929-3.868,3.805
			C116.854,200.246,116.413,200.702,116.413,200.702z"/>
	</g>
	<path fill="#5A6E21" d="M396.506,48.185c1.562,13.367,0.508,23.157,6.834,33.542c6.318,10.374,0.625,24.995,8.223,57.363
		c4.473,19.057,8.426,40.66,15.307,93.09c1.518,11.565-5.855,2.454-6.967-2.92c-1.865-9.038-8.717-15.876-6.729-20.279
		c1.85-4.094-8.172-22.173-6.188-27.25c0.84-2.151-4.121-16.619-4.908-25.218c-0.197-2.165-4.686-11.819-5.25-20.933
		c-0.908-14.612-9.908-17.849-5.037-24.643c3.082-4.3-1.896-18.58-0.121-22.971c1.609-3.977-2.094-7.218-0.865-11.133
		c2.979-9.498-3.449-20.416-1.074-25.309c1.604-3.302-2.518-13.586-0.824-19.509C390.793,25.387,394.553,31.482,396.506,48.185z"/>
	<path fill="#9BAA66" d="M408.825,172.524c2.346,4.014,6.408,9.927,4.52-4.771c-1.887-14.698-10.561-69.475-8.391-75.503
		c2.17-6.028-13.984-17.936-11.463-11.524c3.932,9.995-2.152,5.472,0.896,15.419c7.471,24.355-7.701,10.156,0.104,24.516
		c6.465,11.893,2.732,16.821,6.768,26.274C405.292,156.389,405.69,167.162,408.825,172.524z"/>
	<path fill="#9BAA66" d="M413.934,185.66c0,1.538-2.564,3.57-3.77,3.57c-1.207,0-2.186-3.315-2.186-4.853
		c0-1.538,0.979-2.785,2.186-2.785C411.368,181.593,413.934,184.122,413.934,185.66z"/>
	
		<ellipse transform="matrix(-0.895 -0.446 0.446 -0.895 696.105 581.346)" fill="#9BAA66" cx="416.465" cy="208.755" rx="1.628" ry="4.05"/>
	<path fill="#3A3F04" d="M307.469,225.443c6.154,7.828-9.512-17.71-15.771-12.981c-3.729,2.816-11.572-19.268-16.77-11.227
		c-2.629,4.069-20.918-21.443-23.304-10.647c-0.864,3.908-23.505-18.475-23.505-7.862c0,3.179-18.13-12.638-18.13-4.494
		c0,1.56-15.865-8.644-17.032-2.349c-0.438,2.361-20.557-8.112-21.462-1.547c-0.419,3.036-6.038-1.001-18.533,2.586
		c-12.602,3.618-23.556,11.129-31.558,18.958l0,0c20.658-1.006,48.986,7.721,63.343,16.311
		C225.927,236.829,292.594,206.521,307.469,225.443z"/>
	<path fill="#50611D" d="M122.363,194.958c58.667-3.039,123.709,58.677,164.521,103.322c9.383,10.264-22.787-4.499-39.31-7.326
		c-8.078-1.382-20.739-1.266-24.536-4.135c-6.19-4.68-18.646-9.16-18.72-12.72c-0.113-5.553-28.604-20.782-29.279-24.151
		c-1.464-7.295-22.549-16.643-23.068-20.984c-0.932-7.811-20.988-14.757-19.636-18.112c0.38-0.942-9.378-7.942-15.922-10.149
		C119.086,197.711,120.805,196.444,122.363,194.958z"/>
	<g>
		<path fill="#3A4000" d="M321.143,350.344c0,0-0.156-0.203-0.463-0.594c-0.311-0.379-0.746-0.988-1.307-1.799
			c-1.111-1.602-2.582-4.009-4.455-7.066s-4.146-6.758-6.807-10.959c-2.678-4.19-5.807-8.845-9.471-13.725
			c-0.9-1.23-1.846-2.469-2.824-3.716c-0.959-1.265-1.99-2.507-3.029-3.778c-2.088-2.539-4.326-5.138-6.6-7.806
			c-4.582-5.32-9.508-10.851-14.693-16.487c-10.395-11.253-21.97-22.814-34.209-33.637c-6.115-5.415-12.407-10.627-18.758-15.551
			c-6.347-4.931-12.769-9.558-19.176-13.743c-6.407-4.184-12.79-7.94-19.023-11.155c-3.111-1.619-6.189-3.09-9.204-4.429
			c-3.012-1.346-5.958-2.568-8.826-3.635c-5.726-2.168-11.129-3.732-15.978-4.85c-4.852-1.119-9.161-1.72-12.719-2.072
			c-3.561-0.371-6.378-0.39-8.296-0.429c-1.919,0.029-2.943,0.045-2.943,0.045s1.023-0.047,2.942-0.134
			c1.919-0.019,4.743-0.085,8.325,0.179c3.58,0.256,7.922,0.768,12.828,1.775c4.902,1.009,10.379,2.456,16.196,4.503
			c5.831,2.011,11.991,4.635,18.315,7.783c6.331,3.139,12.819,6.821,19.337,10.932c6.519,4.112,13.057,8.667,19.523,13.528
			c6.443,4.892,12.806,10.098,19.001,15.492c12.393,10.789,24.12,22.318,34.653,33.547c5.273,5.609,10.227,11.167,14.812,16.531
			c4.592,5.344,8.828,10.549,12.426,15.59c3.578,5.047,6.607,9.832,9.189,14.127c2.596,4.287,4.68,8.121,6.402,11.264
			c1.717,3.146,3.1,5.594,4.057,7.229c0.48,0.803,0.861,1.42,1.154,1.826c0.277,0.411,0.424,0.623,0.424,0.623L321.143,350.344z"/>
	</g>
	<path fill="#64484B" d="M330.944,382.297c1.484-11.926-4.486-30.576-8.285-36.49c-3.801-5.916-5.977-11.854-29.729-39.072
		c18.973,35.012,26.527,74.486,20.928,86.326L330.944,382.297z"/>
	<path fill="#60343C" d="M314.737,390.588c5.156-2.68-0.883-44.061,6.299-47.425c0,0-3.953-9.255-28.105-36.257
		C305.042,329.256,319.77,370.284,314.737,390.588z"/>
	<path fill="#60343C" d="M425.083,314.376c-24.498-19.327,1.615-39.647,28.508-34.26
		C440.506,281.79,409.924,301.407,425.083,314.376z"/>
	<path fill="#2A100F" d="M422.11,310.708c-12.146-10.019,4.852-35.979,31.742-30.592C440.26,281.047,416.827,302.006,422.11,310.708
		z"/>
	<path display="none" fill="none" d="M313.856,393.061c25.107-23.053,46.998-41.205,52.062-45.199
		c9.959-7.86,23.539-14.641,33.873-39.143c10.334-24.501,19.166-24.498,27.17-33.99c8.002-9.492,5.525,0.326,10.998-7.987
		c55.373-84.133-9.506-213.86-32.512-260.875c60.5,100.563,70,192.857,43.803,257.299c-2.641,6.494-6.791,15.119,4.604,16.95
		c-8.105-0.938-35.07,17.841-32.654,28.168"/>
	<path fill="#7D6367" d="M416.778,323.754c0.139-6.953,9.562-8.355,12.928-5.818c3.979,2.998,7.021,6.213,3.188,13.787
		c-1.666,3.291-3.807,5.535-5.652,7.607C423.215,343.846,416.622,331.721,416.778,323.754z"/>
	<path fill="#60343C" d="M402.735,334.188c-16.812,17.576-28.197,19.926-43.783,31.543c-23.277,17.352-42.404,40.24-60.771,62.479
		c-47.226,57.186-39.555,39.184-59.554,62.184c-3.32,3.818-4.365,10.457-16.501,20.168c-8.6,6.883-14.555,11.322-19.182,20.521
		c-11.342,22.553-13.077,15.812-11.614,20.729c0.754,2.535,5.68,1.822,9.141,0.584c2.925-1.049,3.868-2.625,4.396-3.662
		c14.258-27.992,9.488-11.594,26.258-31.508c13.333-15.834,28.748-28.625,37.078-38.277
		c20.326-23.559,75.904-90.956,103.416-108.948c22.771-14.896,27.561-16.207,30.229-20.362c3.482-5.418,14.441-2.304,23.523-8.871
		C417.702,340.981,409.618,326.992,402.735,334.188z"/>
	<path fill="#2A100F" d="M425.461,340.754c-7.004,4.967-18.023-6.214-27.514,2.002c0,0-9.217,8.855-14.412,11.959
		c-10.865,6.488-20.219,14.611-29.846,22.908c-19.643,16.928-36.438,37.076-53.41,56.59c-19.875,22.848-31.816,38.684-54.323,59.012
		c-1.98,1.789-6.667,10.834-12.183,15.355c-7.975,6.539-16.699,12.271-23.573,19.945c-2.312,2.582-12.908,18.654-15.999,19.883
		c-5.504,2.189-2.637,7.041,4.651,4.514c4.089-1.42,4.733-2.074,6.108-4.189c17.662-27.174,15.025-17.508,27.973-31.982
		c20.98-23.455,16.356-16.023,35.362-37.801c20.461-23.443,75.906-90.958,103.418-108.949
		c22.771-14.895,27.561-16.207,30.229-20.363c3.48-5.418,14.441-2.303,23.523-8.871L425.461,340.754z"/>
	<path fill="#7D6367" d="M406.924,299.274c-3.279,7.162-6.844,17.388-9.594,20.855c-2.75,3.467,5.248-7.326,13.125-5.492
		s-3.531-3.053-1.355-9.776C412.377,294.727,408.674,295.451,406.924,299.274z"/>
	<path fill="#967E83" d="M419.954,320.578c2.016-2.796,8.797-2.748,11.754,1.001c3.35,4.247-1.873,8.794-3.793,8.602
		C425.372,329.922,415.467,326.803,419.954,320.578z"/>
	<path fill="#967E83" d="M405.12,313.801c4.559-1.718,2.305,0.701,1.354-5.043s-2.436,0.684-4.543,4.979
		C400.833,315.971,402.387,314.831,405.12,313.801z"/>
	<path fill="#7D6367" d="M443.208,275.637c-4.66-0.18-11.496-0.082-6.041-5.499c5.457-5.417,13.533-24.289,14.617-28.238
		c1.082-3.949,0.336,5.673-7.838,24.732C440.641,274.341,442.293,271.458,443.208,275.637z"/>
	<path fill="#967E83" d="M437.592,271.305c2.047-2.801,6.709-10.833,8.482-14.582c2.049-4.335,0.232,0.418-4.455,10.415
		c-1.684,3.587-1.064,5.58-1.684,5.589C437.645,272.764,436.918,272.225,437.592,271.305z"/>
	<path fill="#2A100F" d="M312.604,330.465c-2.742-3.488-2.334-3.994-19.674-23.559c12.111,22.35,23.113,54.805,22.801,75.643
		C318.301,353.366,303.774,331.242,312.604,330.465z"/>
	<path fill="#7D6367" d="M333.858,376.618c6.32-5.924,8.852-6.896-3.234,8.021c-2.33,2.875-8.916,2.653-8.416-2.09
		c0.5-4.744,2.719-12.308,1.836-17.994c-2.158-13.903,4.443-8.723,4.998,12.75C329.2,383.53,330.633,379.639,333.858,376.618z"/>
	<path fill="#967E83" d="M327.983,369.805c0.916,6.033-3.725,13.057-2.855,5.416c0.416-3.666,0.688-4.592,0.5-6.25
		C325.008,363.555,326.174,357.887,327.983,369.805z"/>
	<path fill="#7D6367" d="M358.788,356.057c5.232-4.59,9.5-8.334,12.5-10c6.166-3.418,9.834-2.176-2,5.976
		C357.456,360.184,353.124,361.028,358.788,356.057z"/>
	<path fill="#7D6367" d="M266.624,448.223c8.506-12.344,19.166-24,10-15.168c-9.168,8.834-15.359,15.896-23.5,26.5
		C245.957,468.889,258.125,460.555,266.624,448.223z"/>
	<path fill="#7D6367" d="M191.328,518.893c3.937-5.85,6.796-11.668,19.629-20.834s11-0.5,0.697,6.572
		C196.758,514.856,187.219,525,191.328,518.893z"/>
	<g>
		<path fill="#64484B" d="M169.765,514.256c6.854-1.812,9.191,5.715,28.509-7.627c-7.15,6.805-19.833,27.037-24.241,24.938
			C169.625,529.469,163.653,515.874,169.765,514.256z"/>
		<path fill="#472C2D" d="M169.709,514.012c0.606-0.148,1.282-0.254,1.929-0.281c0.653-0.027,1.304,0.021,1.943,0.104
			c1.28,0.17,2.516,0.463,3.768,0.617c2.503,0.34,5.054-0.002,7.465-0.766c2.422-0.746,4.721-1.857,6.955-3.064
			c2.231-1.221,4.391-2.572,6.504-3.992l0,0v0.002c-1.672,1.637-3.167,3.439-4.643,5.256c-1.47,1.818-2.902,3.67-4.336,5.518
			c-2.883,3.686-5.701,7.436-8.964,10.824c-0.824,0.838-1.675,1.656-2.619,2.381c-0.474,0.359-0.972,0.695-1.52,0.965
			c-0.544,0.258-1.171,0.477-1.845,0.354c-0.691-0.17-1.13-0.549-1.613-0.93c-0.462-0.393-0.874-0.826-1.259-1.279
			c-0.766-0.914-1.419-1.906-1.999-2.939c-1.142-2.064-2.034-4.291-2.423-6.645c-0.181-1.172-0.237-2.402,0.105-3.59
			c0.173-0.59,0.47-1.164,0.919-1.615c0.442-0.457,1.027-0.756,1.625-0.916l0,0L169.709,514.012z M169.826,514.499
			c-1.079,0.258-1.904,1.111-2.19,2.188c-0.31,1.07-0.267,2.242-0.09,3.371c0.374,2.27,1.248,4.457,2.365,6.479
			c0.566,1.008,1.206,1.979,1.945,2.857c0.371,0.438,0.766,0.855,1.199,1.219c0.417,0.35,0.933,0.725,1.388,0.826
			c0.49,0.1,1.04-0.062,1.541-0.301c0.505-0.242,0.986-0.559,1.446-0.902c0.92-0.689,1.769-1.488,2.59-2.311
			c1.637-1.656,3.155-3.439,4.659-5.227c1.5-1.793,2.964-3.615,4.429-5.439c1.465-1.824,2.928-3.652,4.43-5.447
			c1.507-1.789,3.034-3.57,4.734-5.182l0,0c-2.081,1.467-4.21,2.869-6.419,4.143c-2.222,1.246-4.516,2.396-6.954,3.188
			c-2.424,0.805-5.033,1.193-7.597,0.883c-1.278-0.139-2.53-0.418-3.777-0.564c-0.624-0.068-1.248-0.107-1.867-0.072
			C171.036,514.241,170.452,514.338,169.826,514.499z"/>
	</g>
	<g>
		<path fill="#64484B" d="M190.176,510.659c3.086-2.324,3.271,16.984,8.781,7.729c3-5.039,5.667-1.99,7.083-3.412
			c-7.845,10.861,1.43,12.16-0.303,30.654C204.059,563.559,186.088,513.743,190.176,510.659z"/>
		<path fill="#472C2D" d="M190.02,510.418c0.167-0.146,0.66-0.354,0.992-0.178c0.35,0.139,0.539,0.395,0.705,0.625
			c0.319,0.479,0.514,0.979,0.702,1.479c0.361,1.004,0.637,2.02,0.928,3.025s0.581,2.012,0.955,2.979
			c0.188,0.482,0.397,0.957,0.661,1.395c0.264,0.422,0.596,0.842,1.039,0.98c0.443,0.15,0.929-0.092,1.308-0.414
			c0.387-0.328,0.719-0.729,1.021-1.15c0.587-0.846,1.093-1.805,1.861-2.545c0.731-0.764,1.743-1.301,2.811-1.32
			c0.529-0.027,1.053,0.047,1.574,0.08c0.511,0.039,1.083-0.012,1.464-0.398h0.001l0,0c-0.944,1.342-1.792,2.766-2.381,4.293
			c-0.596,1.523-0.829,3.176-0.649,4.795c0.167,1.623,0.677,3.191,1.141,4.768c0.475,1.57,0.933,3.158,1.264,4.777
			c0.671,3.234,0.884,6.562,0.725,9.859c-0.124,1.641-0.121,3.309-0.699,4.943c-0.16,0.396-0.355,0.818-0.764,1.127
			c-0.424,0.33-1.046,0.256-1.429,0.029c-0.806-0.441-1.333-1.115-1.847-1.773c-0.999-1.342-1.798-2.795-2.556-4.262
			c-0.752-1.471-1.439-2.971-2.092-4.482c-1.3-3.027-2.461-6.113-3.518-9.232c-1.052-3.119-2.006-6.273-2.783-9.48
			c-0.385-1.604-0.728-3.221-0.958-4.863c-0.112-0.82-0.198-1.646-0.205-2.492c-0.003-0.42,0.018-0.846,0.09-1.275
			c0.088-0.422,0.186-0.902,0.625-1.271L190.02,510.418z M190.349,510.887c-0.212,0.164-0.342,0.543-0.407,0.912
			c-0.064,0.379-0.086,0.775-0.083,1.178c0.005,0.801,0.087,1.611,0.196,2.418c0.225,1.613,0.561,3.217,0.941,4.811
			c0.767,3.186,1.712,6.328,2.756,9.438c1.048,3.109,2.2,6.184,3.489,9.197c0.647,1.506,1.328,2.998,2.071,4.455
			c0.747,1.451,1.539,2.891,2.502,4.188c0.484,0.631,1.019,1.279,1.667,1.629c0.325,0.174,0.648,0.197,0.901,0.012
			c0.26-0.188,0.448-0.537,0.586-0.896c0.534-1.479,0.553-3.164,0.674-4.785c0.203-3.264,0.039-6.551-0.581-9.764
			c-0.306-1.607-0.738-3.189-1.19-4.77c-0.442-1.578-0.935-3.168-1.083-4.824c-0.168-1.654,0.11-3.346,0.756-4.863
			c0.634-1.527,1.519-2.928,2.497-4.248l0,0l-0.001,0.002c-0.371,0.396-0.952,0.463-1.466,0.438
			c-0.525-0.023-1.048-0.084-1.568-0.047c-1.05,0.049-2.011,0.592-2.71,1.354c-0.735,0.744-1.201,1.68-1.785,2.568
			c-0.298,0.438-0.627,0.857-1.034,1.221c-0.389,0.348-0.959,0.68-1.559,0.502c-0.58-0.176-0.943-0.648-1.239-1.088
			c-0.292-0.457-0.519-0.941-0.723-1.434c-0.406-0.979-0.723-1.984-1.038-2.986c-0.315-1-0.616-2.006-0.989-2.971
			c-0.19-0.477-0.396-0.953-0.672-1.344c-0.136-0.188-0.299-0.357-0.447-0.41c-0.074-0.029-0.138-0.035-0.215-0.014
			c-0.069,0.012-0.133,0.049-0.262,0.135L190.349,510.887z"/>
	</g>
	<path fill="#7D6367" d="M174.623,516.209c2.392,2.068,4.708,7.549,7.5,4.529c2.792-3.018,7.347-7.168,2.386-5.643
		C178.582,516.92,170.887,512.973,174.623,516.209z"/>
	<g>
		<path fill="#64484B" d="M177.998,521.934c-1.537-1.479-2.721-4.047-4.475-6.035c-0.869-0.982-1.503-1.539-2.002-1.816
			c0.616,6.752,7.787,25.109,12.879,32.695C183.05,537.022,180.621,528.563,177.998,521.934z"/>
		<path fill="#64484B" d="M184.424,546.967c-7.392-4.885-14.653-25.045-16.371-32.006c-0.716,0.029-1.678-0.215-3.101-1.062
			c-0.491-0.293-0.957-0.436-1.396-0.461c2.636,8.494,16.125,32.662,20.953,34.191C184.478,547.409,184.454,547.186,184.424,546.967
			z"/>
		<path fill="#967E83" d="M174.787,542.032c-4.869-4.529-7.941-10.023-14.541-16.328c0.186,0.68,0.404,1.355,0.68,2.014
			c3.028,7.213,5.355,9.307,4.19,19.152c-0.974,8.227,1.843,9.77,6.877,14.133C173.721,547.278,180.823,547.649,174.787,542.032z"/>
		<path fill="#7D6367" d="M184.815,550.028c-0.089-0.812-0.198-1.604-0.306-2.396c-4.828-1.529-18.317-25.697-20.953-34.191
			c-3.224-0.188-4.941,6.287-3.31,12.266c6.6,6.305,9.672,11.799,14.541,16.328c6.036,5.617-1.066,5.246-2.794,18.971
			c0.991,0.857,2.06,1.814,3.211,2.967c3.229,3.229,6.968,7.668,9.698,10.432c0.1-0.971,0.172-1.928,0.247-2.885
			C178.059,560.159,177.33,553.293,184.815,550.028z"/>
		<path fill="#7D6367" d="M184.4,546.778c-5.092-7.586-12.263-25.943-12.879-32.695c-1.494-0.832-1.782,0.809-3.468,0.881
			c1.718,6.961,8.979,27.121,16.371,32.006C184.415,546.905,184.409,546.84,184.4,546.778z"/>
		<path fill="#2A100F" d="M206.689,561.344c0.202-1.422-0.781-2.977-3.743-4.58c-10.63-5.756-0.445-2.014,2.012-8.033
			c0.966-2.367,1.76-10.678-5.338-14.512c-10.104-5.457-5.818-25.051-9.246-23.924c-0.812,13.098-3.025,28.043-6.218,34.676
			c0.286,1.846,0.522,3.752,0.724,5.693C189.912,559.284,199.298,560.571,206.689,561.344z"/>
		<path fill="#7D6367" d="M184.902,574.399c1.911,1.936,3.319,3.029,3.718,2.322c-1.042-1.484-2.255-11.668-3.127-13.027
			c-0.2-0.312-0.144,8.143-0.334,7.834C185.085,572.479,185.002,573.434,184.902,574.399z"/>
		<path fill="#64484B" d="M184.815,550.028c-7.485,3.268-6.756,10.133,0.335,21.486c2.078,3.15-0.514-0.836,2.078,3.15
			C187.713,567.483,185.505,556.333,184.815,550.028z"/>
		<path fill="#472C2D" d="M184.88,550.665c0.675,6.48,0.216,18.656,0.907,20.85c0.691,2.191,1.553,3.383,2.833,5.207
			c0.266-0.475,0.084-1.748-0.719-4.152c-0.953-2.85,3.093-3.561,6.977-4.248c2.802-0.492,11.289-3.295,11.812-6.977
			C199.298,560.571,189.912,559.284,184.88,550.665z"/>
		<path fill="#472C2D" d="M187.953,512.688c-3.137,4.256-1.803,7.65-3.791,9.039c-2.912,2.035-4.699,1.617-6.165,0.207
			c2.461,6.223,4.766,14.037,6.159,23.037c3.193-6.633,5.407-21.578,6.218-34.676C189.809,510.483,189.04,511.213,187.953,512.688z"
			/>
		<path fill="#472C2D" d="M184.88,550.665c-0.202-1.941-0.438-3.85-0.724-5.693c3.382-4.836,11.465-13.086,13.798-3.252
			S189.223,551.692,184.88,550.665z"/>
		<path fill="#64484B" d="M184.787,550.665c-0.202-1.941-0.435-3.76-0.721-5.605c1.967-2.521,7.222-6.545,7.722-1.146
			C192.36,550.083,189.232,550.219,184.787,550.665z"/>
		<path fill="none" d="M198.1,537.469"/>
	</g>
	<g>
		<path fill="#967E83" d="M164.955,513.901c0,0,0.13,0.066,0.375,0.189c0.247,0.115,0.592,0.332,1.077,0.486
			c0.236,0.094,0.499,0.189,0.801,0.234c0.295,0.082,0.624,0.082,0.967,0.068c0.34-0.059,0.692-0.154,1.018-0.371
			c0.34-0.189,0.635-0.494,1.075-0.684c0.458-0.213,0.994-0.051,1.415,0.188c0.424,0.254,0.794,0.586,1.174,0.928
			c0.722,0.721,1.426,1.512,2.076,2.416c0.625,0.896,1.271,1.824,1.927,2.768c0.675,0.902,1.408,1.805,2.341,2.357
			c0.945,0.557,2.124,0.447,3.141,0.021c0.252-0.119,0.515-0.211,0.757-0.352l0.714-0.432c0.129-0.084,0.225-0.119,0.332-0.219
			c0.099-0.092,0.237-0.172,0.3-0.271c0.164-0.176,0.304-0.396,0.418-0.633c0.431-0.957,0.537-2.041,0.788-3.012
			c0.231-0.982,0.541-1.895,0.914-2.691c0.378-0.797,0.812-1.48,1.232-2.059c0.429-0.57,0.812-1.057,1.165-1.43
			c0.334-0.389,0.651-0.645,0.865-0.812c0.229-0.148,0.351-0.229,0.351-0.229s-0.12,0.084-0.343,0.238
			c-0.208,0.174-0.516,0.439-0.837,0.832c-0.338,0.379-0.712,0.879-1.119,1.457c-0.401,0.584-0.81,1.271-1.161,2.068
			c-0.344,0.799-0.623,1.701-0.823,2.676c-0.225,0.975-0.286,2.037-0.723,3.102c-0.119,0.262-0.263,0.518-0.473,0.754
			c-0.095,0.133-0.207,0.193-0.311,0.297c-0.096,0.096-0.255,0.186-0.36,0.256l-0.728,0.467c-0.248,0.152-0.525,0.26-0.789,0.393
			c-1.06,0.488-2.423,0.662-3.575,0.078c-1.122-0.598-1.868-1.596-2.52-2.545c-0.627-0.965-1.243-1.912-1.84-2.83
			c-0.599-0.895-1.277-1.709-1.955-2.43c-0.677-0.66-1.475-1.414-2.262-1.123c-0.377,0.143-0.699,0.441-1.061,0.631
			c-0.351,0.217-0.745,0.311-1.107,0.352c-0.365,0-0.708-0.02-1.005-0.115c-0.308-0.062-0.57-0.172-0.806-0.277
			c-0.484-0.18-0.814-0.41-1.058-0.537C165.082,513.973,164.955,513.901,164.955,513.901z"/>
	</g>
	<g>
		<path fill="#2A100F" d="M194.881,568.323c0,0-0.766,0.271-1.915,0.604c-0.572,0.174-1.242,0.357-1.93,0.604
			c-0.345,0.119-0.701,0.24-1.036,0.4c-0.34,0.152-0.671,0.32-0.958,0.525c-0.291,0.197-0.521,0.438-0.659,0.695
			c-0.173,0.25-0.159,0.553-0.174,0.85c0.043,0.291,0.134,0.662,0.209,0.996c0.069,0.336,0.146,0.65,0.196,0.947
			c0.046,0.301,0.125,0.559,0.118,0.822c0.011,0.254,0.018,0.475,0.016,0.654c0.003,0.355-0.01,0.555-0.01,0.555
			s-0.071-0.189-0.194-0.523c-0.054-0.164-0.119-0.361-0.194-0.59c-0.058-0.223-0.189-0.479-0.297-0.756
			c-0.12-0.275-0.228-0.584-0.353-0.902c-0.129-0.322-0.234-0.646-0.345-1.092c-0.051-0.438-0.031-0.951,0.22-1.387
			c0.215-0.447,0.584-0.77,0.951-1.016c0.372-0.248,0.758-0.443,1.149-0.576c0.388-0.15,0.773-0.256,1.146-0.348
			c0.749-0.178,1.449-0.273,2.05-0.342C194.072,568.317,194.881,568.323,194.881,568.323z"/>
	</g>
	<g>
		<path fill="#967E83" d="M206.093,562.774c0,0,0.109-0.189,0.242-0.535c0.14-0.334,0.27-0.855,0.177-1.443
			c-0.046-0.291-0.155-0.598-0.325-0.893c-0.155-0.303-0.401-0.578-0.653-0.857c-0.26-0.275-0.568-0.527-0.884-0.781
			c-0.325-0.246-0.664-0.484-1.021-0.701c-0.698-0.441-1.461-0.85-2.14-1.283c-0.684-0.424-1.306-0.848-1.821-1.238
			c-0.518-0.389-0.917-0.76-1.175-1.039c-0.27-0.279-0.306-0.521-0.293-0.518c-0.013,0.008,0.078,0.205,0.383,0.42
			c0.288,0.23,0.75,0.494,1.299,0.814c0.558,0.309,1.208,0.666,1.905,1.051c0.699,0.381,1.451,0.77,2.201,1.23
			c0.733,0.469,1.442,1.008,1.983,1.654c0.269,0.324,0.508,0.662,0.66,1.029c0.169,0.355,0.25,0.73,0.26,1.076
			c0.021,0.346-0.052,0.656-0.14,0.914c-0.09,0.256-0.197,0.465-0.302,0.627c-0.094,0.168-0.197,0.273-0.258,0.354
			C206.127,562.731,206.093,562.774,206.093,562.774z"/>
	</g>
	<g>
		<path fill="#60343C" d="M204.962,548.733c0,0-0.011,0.059-0.031,0.164c-0.018,0.109-0.051,0.264-0.118,0.459
			c-0.134,0.393-0.382,0.943-0.863,1.488c-0.473,0.547-1.167,1.061-1.975,1.43c-0.806,0.369-1.708,0.641-2.559,0.881
			c-0.209,0.062-0.418,0.127-0.593,0.203c-0.18,0.064-0.291,0.201-0.247,0.125l-0.002-0.004h-0.001
			c-0.023-0.176-0.005-0.047-0.01-0.084l0.002,0.01l0.011,0.041l0.021,0.08c0.01,0.066,0.03,0.102,0.052,0.104
			c0.05,0.033,0.031,0.061,0.123,0.141c0.133,0.139,0.275,0.275,0.441,0.4c0.309,0.26,0.651,0.486,0.959,0.715
			c0.319,0.219,0.621,0.424,0.9,0.615c0.564,0.377,1.035,0.689,1.364,0.91c0.327,0.229,0.514,0.355,0.514,0.355
			s-0.844-0.336-2.072-0.932c-0.312-0.141-0.634-0.324-0.982-0.504c-0.344-0.195-0.71-0.387-1.071-0.646
			c-0.184-0.115-0.367-0.262-0.549-0.426c-0.083-0.053-0.209-0.227-0.299-0.361c-0.056-0.078-0.085-0.143-0.094-0.188l-0.026-0.078
			l-0.013-0.041l-0.003-0.01c-0.006-0.041,0.011,0.086-0.013-0.096v-0.012l0.003-0.045c0.01-0.256,0.174-0.449,0.294-0.545
			c0.129-0.113,0.248-0.172,0.366-0.234c0.233-0.111,0.454-0.191,0.674-0.27c0.872-0.301,1.711-0.543,2.442-0.9
			c0.734-0.338,1.358-0.736,1.859-1.135c0.49-0.406,0.866-0.811,1.107-1.115C204.823,548.928,204.962,548.733,204.962,548.733z"/>
	</g>
	<g>
		<path fill="#60343C" d="M180.395,523.12c0,0,0.274-0.055,0.754-0.148c0.231-0.07,0.489-0.201,0.782-0.305
			c0.29-0.137,0.602-0.355,0.948-0.533c0.313-0.23,0.653-0.48,1.013-0.742c0.18-0.162,0.362-0.342,0.426-0.479
			c0.093-0.15,0.198-0.352,0.268-0.562c0.301-0.852,0.387-1.982,0.655-3.088c0.11-0.561,0.303-1.107,0.503-1.639
			c0.226-0.523,0.488-1.021,0.788-1.473c0.604-0.896,1.299-1.619,1.872-2.217c0.579-0.605,1.074-1.094,1.468-1.375
			c0.395-0.291,0.682-0.322,0.682-0.322s-0.067,0.02-0.192,0.055c-0.12,0.045-0.295,0.125-0.484,0.275
			c-0.389,0.287-0.855,0.809-1.307,1.498c-0.459,0.697-0.899,1.553-1.261,2.488c-0.354,0.941-0.652,1.939-0.907,2.979
			c-0.27,1.035-0.38,2.141-0.859,3.219c-0.113,0.27-0.271,0.518-0.477,0.762c-0.227,0.271-0.423,0.404-0.611,0.541
			c-0.495,0.293-0.866,0.467-1.264,0.664c-0.414,0.146-0.779,0.285-1.125,0.367c-0.36,0.057-0.666,0.102-0.909,0.111
			C180.672,523.149,180.395,523.12,180.395,523.12z"/>
	</g>
	<g>
		<path fill="#60343C" d="M164.955,513.901c0,0,0.103,0.021,0.282,0.062c0.176,0.039,0.426,0.125,0.718,0.191
			c0.288,0.072,0.614,0.152,0.961,0.219c0.172,0.049,0.349,0.041,0.523,0.066c0.173,0.027,0.342,0.014,0.508,0.012
			c0.16-0.025,0.318-0.033,0.462-0.08c0.147-0.041,0.284-0.096,0.417-0.176c0.263-0.145,0.558-0.309,0.878-0.432
			c0.166-0.062,0.326-0.105,0.487-0.111c0.146-0.027,0.3,0.021,0.398,0.033c0.213,0.088,0.297,0.17,0.297,0.17
			s-0.117,0.076-0.254,0.174c-0.143,0.115-0.264,0.271-0.448,0.479c-0.089,0.117-0.208,0.211-0.34,0.344
			c-0.14,0.115-0.303,0.242-0.509,0.338c-0.194,0.104-0.43,0.188-0.664,0.238c-0.239,0.061-0.482,0.072-0.724,0.062
			c-0.962-0.062-1.713-0.521-2.224-0.891c-0.257-0.184-0.431-0.369-0.567-0.492C165.028,513.977,164.955,513.901,164.955,513.901z"
			/>
	</g>
	<path fill="#64484B" d="M203.426,552.909c-0.473,0.812-0.312,2.312,0,2.971c0.312,0.656,2.307,1.635,1.812,0.891
		C204.019,554.934,203.863,552.159,203.426,552.909z"/>
	<path fill="#7D6367" d="M193.248,517.803c-0.439-1.363-0.382,1.113,0.208,3.916c0.77,3.646,2.291,7.967,3.21,6.293
		c1.625-2.957,2.945-7.695,5.917-10.957c1.708-1.875-1.667-0.625-4.308,3.686C196.528,523.59,194.228,520.846,193.248,517.803z"/>
	<path fill="#967E83" d="M194.123,520.094c-0.5-0.699-0.917-1.666-0.583,0.416c0.188,1.18,0.917,3.75,1.083,3.209
		S195.69,522.284,194.123,520.094z"/>
	<path fill="#7D6367" d="M203.005,536.034c2.038,2.73,2.365,1.312,1.698-2.145c-0.667-3.459-2.364-6.834-3.406-3.459
		S201.673,534.249,203.005,536.034z"/>
	<path fill="#967E83" d="M204.63,536.034c0.125,1.682-0.705,0.078-1.654-0.811C202.13,534.432,204.421,533.217,204.63,536.034z"/>
	<path fill="#7D6367" d="M177.565,511.432"/>
	<path fill="#967E83" d="M176.04,517.182c-1.119-1.133-1.686-1.709,0.199-1.541c1.885,0.166,4.302,0.707,2.843,1.957
		S176.833,517.987,176.04,517.182z"/>
	<path fill="#967E83" d="M206.041,503.471c2.045-1.459,11.555-8.086,7.166-2.375c-2.428,3.16-4.683,3.441-8.029,5.533
		C201.832,508.721,204.744,504.397,206.041,503.471z"/>
</g>
<g id="Layer_4">
	<g>
		<path fill="#3A4000" d="M342.372,378.565c25.336-5.844,94.559,9.033,110.506,71.713c4.83,18.986-14.498,10.012-15.67,2.943
			c-4.346-26.178-42.947-78.086-94.111-72.5c17.611,24,41.984,5.795,72.182,89.971c6.598,18.393-8.428,11.9-10.865,5.295
			c-19.953-54.016-62.779-85.875-64.029-94.592c-2.314,43.896-26.34,44.525-12.195,135.326c4.514,28.967-16.504,16.352-18.404,1.959
			c-10.521-79.658,20.375-91.459,27.615-136.133"/>
		<path fill="#1D2000" d="M342.372,378.565c3.061-0.721,6.207-1.038,9.346-1.188c3.145-0.166,6.293-0.041,9.436,0.156
			c6.275,0.477,12.512,1.52,18.627,3.042c6.113,1.526,12.092,3.599,17.881,6.101c5.785,2.512,11.373,5.496,16.652,8.959
			c5.275,3.467,10.271,7.391,14.77,11.842c4.506,4.438,8.559,9.34,12.047,14.617c3.492,5.275,6.416,10.922,8.764,16.801l1.6,4.469
			c0.283,0.738,0.51,1.496,0.721,2.262l0.658,2.277l0.658,2.297c0.164,0.775,0.373,1.51,0.486,2.336
			c0.268,1.605,0.428,3.232,0.152,4.912c-0.172,0.828-0.365,1.686-0.857,2.447c-0.465,0.76-1.141,1.443-1.965,1.844
			c-1.674,0.789-3.482,0.637-5.076,0.232c-1.602-0.443-3.1-1.143-4.459-2.043c-1.354-0.908-2.621-1.967-3.639-3.291
			c-0.516-0.65-0.965-1.377-1.271-2.191c-0.322-0.855-0.404-1.631-0.574-2.393c-0.145-0.777-0.311-1.541-0.521-2.275
			c-0.203-0.74-0.365-1.488-0.623-2.229c-0.883-2.98-2.084-5.865-3.371-8.705c-2.627-5.66-5.832-11.057-9.471-16.143
			c-3.631-5.09-7.654-9.902-12.027-14.379c-8.773-8.896-19.027-16.461-30.512-21.489c-5.723-2.53-11.748-4.407-17.932-5.462
			c-6.182-1.062-12.514-1.275-18.768-0.648h-0.006l0,0c1.643,2.153,3.455,4.172,5.473,5.975c2.01,1.812,4.236,3.361,6.539,4.773
			c4.615,2.816,9.559,5.07,14.189,7.914c4.641,2.812,8.979,6.166,12.811,10.02c3.844,3.85,7.246,8.111,10.318,12.586
			c3.074,4.477,5.846,9.154,8.354,13.965c1.311,2.377,2.443,4.842,3.662,7.266c1.131,2.465,2.293,4.916,3.363,7.406
			c2.154,4.977,4.199,10,6.092,15.08c0.924,2.551,1.971,5.043,2.719,7.691c0.352,1.332,0.67,2.676,0.762,4.078
			c0.09,1.381,0.014,2.896-0.832,4.219c-0.436,0.65-1.139,1.139-1.883,1.342c-0.75,0.207-1.512,0.184-2.227,0.064
			c-1.434-0.262-2.721-0.891-3.893-1.654c-1.168-0.771-2.221-1.715-3.111-2.809c-0.438-0.553-0.83-1.145-1.152-1.789
			c-0.311-0.676-0.523-1.281-0.773-1.92c-1.877-5.092-4.066-10.002-6.402-14.883c-2.336-4.871-4.92-9.621-7.672-14.271
			c-2.756-4.646-5.676-9.197-8.74-13.65c-6.154-8.895-12.92-17.357-20.021-25.521c-3.531-4.102-7.16-8.119-10.762-12.164
			c-1.797-2.023-3.592-4.055-5.309-6.153c-0.85-1.054-1.697-2.112-2.449-3.241c-0.746-1.117-1.518-2.285-1.762-3.631l-0.006-0.017
			l0,0c-0.484,6.663-1.154,13.351-2.83,19.847c-1.574,6.508-3.75,12.85-5.846,19.195c-2.164,6.326-3.934,12.777-5.223,19.326
			l-0.857,4.932c-0.297,1.645-0.396,3.312-0.605,4.971c-0.164,1.66-0.406,3.311-0.508,4.979l-0.244,5.002l-0.123,2.5l-0.061,1.25
			l0.006,1.254l0.037,5.01c0.021,1.67,0.006,3.34,0.059,5.008l0.291,5.002c0.258,6.68,1.072,13.314,1.729,19.965
			c0.842,6.635,1.857,13.225,2.729,19.875c0.166,1.686,0.299,3.369,0.256,5.062c-0.004,1.689-0.203,3.398-0.664,5.061
			c-0.109,0.418-0.24,0.83-0.432,1.227l-0.258,0.604l-0.344,0.566c-0.443,0.764-1.102,1.43-1.877,1.896
			c-0.775,0.506-1.719,0.656-2.605,0.676c-0.902-0.002-1.766-0.236-2.586-0.531c-1.633-0.631-3.045-1.65-4.311-2.793
			c-1.26-1.152-2.361-2.465-3.312-3.877c-1.895-2.811-3.182-6.092-3.479-9.49c-0.65-6.656-1.561-13.283-1.713-20.002l-0.238-5.021
			c-0.061-0.836-0.051-1.674-0.029-2.512l0.037-2.514l0.076-5.023l0.039-2.514l0.207-2.506c0.451-6.684,1.287-13.352,2.742-19.895
			l1.125-4.9c0.391-1.629,0.941-3.215,1.406-4.822l0.729-2.406l0.361-1.201l0.436-1.18l1.734-4.717
			c0.543-1.586,1.262-3.102,1.893-4.65c0.662-1.537,1.27-3.102,1.982-4.613c1.387-3.045,2.768-6.094,4.201-9.113
			c1.438-3.021,2.799-6.07,4.184-9.113c1.26-3.096,2.654-6.139,3.711-9.311c0.541-1.58,1.178-3.131,1.641-4.734l1.383-4.818
			c0.512-1.596,0.811-3.242,1.15-4.877l1.018-4.912l-0.969,4.922c-0.324,1.641-0.609,3.291-1.104,4.893l-1.336,4.838
			c-0.447,1.611-1.07,3.17-1.598,4.758c-1.025,3.188-2.395,6.248-3.625,9.359c-1.354,3.061-2.688,6.131-4.098,9.162
			c-1.404,3.035-2.787,6.078-4.156,9.127c-0.709,1.516-1.309,3.074-1.965,4.609c-0.623,1.549-1.334,3.064-1.871,4.646l-1.713,4.703
			l-0.428,1.18l-0.359,1.197l-0.715,2.398c-0.457,1.604-1.002,3.188-1.385,4.811l-1.105,4.883c-1.426,6.52-2.234,13.16-2.662,19.818
			l-0.199,2.494l-0.029,2.504l-0.061,5.008l-0.027,2.504c-0.02,0.836-0.023,1.67,0.037,2.502l0.258,4.998
			c0.17,6.67,1.104,13.311,1.775,19.965c0.297,3.273,1.541,6.416,3.387,9.135c0.92,1.359,1.988,2.621,3.199,3.721
			c1.213,1.09,2.564,2.053,4.062,2.623c1.48,0.562,3.168,0.707,4.488-0.088c1.336-0.764,2.104-2.289,2.557-3.812
			c0.438-1.559,0.643-3.201,0.648-4.854c0.049-1.648-0.076-3.307-0.23-4.951c-0.842-6.611-1.842-13.252-2.66-19.889
			c-0.635-6.666-1.428-13.316-1.664-20.014l-0.271-5.016c-0.047-1.674-0.023-3.35-0.039-5.021l-0.021-5.023l-0.002-1.256
			l0.064-1.254l0.133-2.51l0.264-5.02c0.105-1.672,0.355-3.332,0.525-4.998c0.217-1.66,0.322-3.336,0.627-4.982l0.879-4.949
			c1.318-6.568,3.115-13.041,5.307-19.363c2.162-6.33,4.396-12.635,6.037-19.117c1.734-6.465,2.475-13.135,3.027-19.795l0,0
			l0.004,0.017c0.266,1.341,1.051,2.493,1.812,3.597c0.768,1.113,1.629,2.16,2.494,3.198c1.742,2.069,3.564,4.071,5.391,6.069
			c3.658,3.99,7.35,7.955,10.945,12.008c7.182,8.113,14.027,16.539,20.275,25.408c3.121,4.438,6.074,8.99,8.848,13.654
			c2.773,4.662,5.385,9.426,7.744,14.312c2.354,4.881,4.59,9.865,6.475,14.936c0.242,0.621,0.488,1.289,0.744,1.844
			c0.289,0.566,0.646,1.105,1.051,1.611c0.82,1.006,1.812,1.887,2.9,2.604c1.092,0.709,2.293,1.279,3.531,1.5
			c1.229,0.223,2.514-0.021,3.162-1.004c0.643-0.979,0.771-2.322,0.684-3.611c-0.076-1.307-0.377-2.611-0.709-3.896
			c-0.711-2.568-1.748-5.088-2.654-7.631c-1.865-5.078-3.879-10.1-6.002-15.07c-1.057-2.49-2.203-4.938-3.318-7.398
			c-1.199-2.422-2.318-4.885-3.611-7.256c-2.477-4.805-5.211-9.475-8.246-13.939c-3.031-4.463-6.395-8.713-10.188-12.549
			c-3.779-3.852-8.07-7.178-12.658-10.021c-4.562-2.893-9.475-5.221-14.066-8.111c-2.289-1.449-4.506-3.037-6.494-4.883
			c-1.996-1.836-3.783-3.885-5.395-6.062l0,0h0.004c6.242-0.736,12.594-0.639,18.82,0.319c6.229,0.949,12.33,2.729,18.145,5.179
			c11.625,4.953,22.045,12.477,30.988,21.367c4.471,4.461,8.553,9.305,12.23,14.438c3.691,5.125,6.951,10.568,9.637,16.305
			c1.314,2.875,2.547,5.805,3.461,8.852c0.262,0.746,0.438,1.535,0.652,2.307c0.223,0.777,0.395,1.549,0.535,2.316
			c0.168,0.77,0.275,1.574,0.521,2.184c0.25,0.656,0.635,1.285,1.096,1.861c1.854,2.309,4.564,4.053,7.414,4.848
			c1.422,0.361,2.943,0.434,4.146-0.15c1.197-0.59,1.877-1.887,2.109-3.312c0.246-1.432,0.109-2.984-0.135-4.465
			c-0.094-0.734-0.311-1.521-0.469-2.281l-0.637-2.232l-0.643-2.252c-0.207-0.754-0.428-1.502-0.703-2.23l-1.562-4.414
			c-2.299-5.805-5.164-11.381-8.594-16.596c-6.836-10.455-15.965-19.346-26.363-26.285c-10.402-6.951-22.027-12.059-34.139-15.281
			c-6.055-1.616-12.242-2.762-18.49-3.342c-3.127-0.25-6.268-0.428-9.404-0.312C348.588,377.633,345.448,377.895,342.372,378.565z"
			/>
	</g>
	<g>
		<path fill="#1D2000" d="M342.395,378.565l-4.977,3.982c-0.496,3.063-1.105,5.969-1.807,8.756c1.777-1.693,2.607-1.498,4.203-3.815
			c0.209-1.94,0.477-3.964,0.588-6.093c0.324,2.269,3.473,6.109,8.295,11.498c0.229-1.949,0.01-4.397-0.543-6.504
			c-1.736-1.607-3.416-3.457-5.037-5.668c3.254-0.354,6.457-0.476,9.604-0.387c1.709-0.721,2.473-1.83,4.203-2.892
			C351.274,377.254,346.309,377.662,342.395,378.565z"/>
		<path fill="#1D2000" d="M342.45,378.68l-4.951,3.965l0.045-0.078l-0.873,4.389l-1.057,4.346l0,0l0,0
			c0.354-0.318,0.709-0.635,1.096-0.916c0.381-0.283,0.781-0.543,1.164-0.826c0.188-0.145,0.383-0.283,0.553-0.451
			c0.178-0.156,0.354-0.316,0.506-0.502c0.156-0.18,0.324-0.35,0.459-0.547l0.428-0.572l0,0l0,0l0.271-3.049l0.189-3.051
			l0.053-0.842l0.197,0.832l0,0c0.189,1.141,0.828,2.187,1.451,3.182c0.648,0.994,1.365,1.945,2.104,2.879
			c1.48,1.863,3.043,3.662,4.615,5.453l0,0c0.225-2.176-0.006-4.387-0.543-6.504l0,0l0,0c-0.461-0.435-0.928-0.862-1.383-1.303
			c-0.438-0.457-0.889-0.904-1.316-1.369c-0.418-0.478-0.842-0.949-1.252-1.433l-1.188-1.487l0,0l-0.139-0.179l0.225-0.021
			l2.398-0.221l2.404-0.138l2.408-0.056l2.408,0.025l-0.053,0.01c0.387-0.162,0.764-0.347,1.123-0.564
			c0.355-0.229,0.701-0.475,1.037-0.734c0.672-0.521,1.352-1.048,2.09-1.477l0,0c-1.217-0.02-2.434-0.031-3.65-0.001
			s-2.434,0.082-3.646,0.179c-0.605,0.035-1.211,0.107-1.816,0.168c-0.604,0.053-1.205,0.148-1.809,0.229
			c-0.604,0.072-1.197,0.199-1.797,0.297C343.616,378.417,343.036,378.557,342.45,378.68z M342.368,378.443
			c0.6-0.115,1.195-0.25,1.799-0.347c0.604-0.088,1.203-0.207,1.811-0.269c0.605-0.069,1.211-0.155,1.818-0.198
			c0.605-0.05,1.213-0.111,1.822-0.137c1.217-0.076,2.436-0.107,3.652-0.115c1.219-0.01,2.438,0.023,3.652,0.063l0,0
			c-0.717,0.465-1.363,1.018-2.012,1.573c-0.324,0.279-0.662,0.543-1.014,0.795c-0.357,0.242-0.736,0.451-1.129,0.639l-0.021,0.01
			h-0.031l-2.398-0.025l-2.398,0.056l-2.396,0.138l-2.393,0.219l0.088-0.197l0,0l1.131,1.519c0.395,0.494,0.801,0.978,1.199,1.468
			c0.414,0.477,0.848,0.938,1.27,1.408c0.439,0.454,0.893,0.897,1.338,1.348l0,0l0,0c0.537,2.115,0.77,4.326,0.543,6.504l0,0
			c-1.604-1.764-3.195-3.535-4.713-5.375c-0.754-0.924-1.488-1.864-2.16-2.854c-0.646-0.999-1.314-2.027-1.545-3.251l0,0l0.25-0.011
			l-0.316,3.05l-0.396,3.036l0,0l0,0l-0.426,0.572c-0.137,0.197-0.305,0.367-0.461,0.547c-0.15,0.186-0.328,0.344-0.506,0.502
			c-0.168,0.168-0.363,0.305-0.551,0.451c-0.385,0.281-0.783,0.541-1.166,0.824c-0.385,0.281-0.74,0.598-1.094,0.918l0,0l0,0
			l0.932-4.371l0.75-4.404l0,0l0.01-0.049l0.035-0.028l5-4.002L342.368,378.443z"/>
	</g>
	<g>
		<path fill="#6B750B" d="M339.145,378.565c24.066-19.231,60.715-17.336,86.322-6.897c16.488,6.722-0.141,15.239-8.344,7.39
			c-13.5-12.916-47.914-13.897-69.713-0.492c26.879,3.156,32.371,10.836,33.791,14.496c1.422,3.662-16.504,14.18-16.541,4.42
			s-8.975-14.192-20.371-14.932c6.666,13.84,2.377,36.938-5.146,54.889c-7.521,17.951-12.787,0.979-7.52-2.74
			c5.266-3.717,16.475-25.059,8.756-52.146c-11.426,13.506-33.561,8.797-29.051,24.547s-12.074,7-12.074-0.395
			c0-16.578,20.305-13.326,34.668-24.152C336.042,382.639,340.29,379.305,339.145,378.565z"/>
		<path fill="#404609" d="M339.145,378.565c6.215-5.066,13.479-8.799,21.127-11.237c7.662-2.435,15.699-3.584,23.732-3.774
			c8.039-0.193,16.096,0.619,23.961,2.291c3.934,0.834,7.822,1.883,11.643,3.149c1.912,0.624,3.799,1.329,5.668,2.067
			c1.869,0.744,3.756,1.619,5.395,2.922c0.811,0.656,1.58,1.447,2.037,2.494c0.227,0.521,0.34,1.121,0.279,1.715
			c-0.049,0.596-0.291,1.156-0.607,1.631c-0.664,0.941-1.605,1.551-2.572,1.982c-0.973,0.428-2.002,0.678-3.037,0.806
			c-2.07,0.249-4.193-0.011-6.143-0.769c-0.973-0.377-1.898-0.883-2.736-1.509c-0.852-0.642-1.533-1.343-2.301-1.996
			c-3.008-2.491-6.604-4.319-10.324-5.655c-3.74-1.322-7.639-2.193-11.582-2.727c-3.939-0.548-7.936-0.74-11.92-0.631
			c-3.984,0.105-7.969,0.492-11.895,1.208c-3.928,0.703-7.816,1.668-11.588,2.991c-3.768,1.334-7.426,2.996-10.869,5.041l0,0h0.006
			c1.838,0.226,3.686,0.402,5.52,0.668c1.832,0.287,3.674,0.531,5.49,0.916c1.828,0.328,3.625,0.804,5.434,1.246l2.674,0.798
			c0.891,0.269,1.758,0.616,2.639,0.92c0.881,0.31,1.725,0.717,2.588,1.071c0.844,0.4,1.678,0.828,2.496,1.285
			c1.623,0.935,3.168,2.033,4.518,3.367c0.332,0.338,0.67,0.672,0.957,1.055c0.312,0.359,0.59,0.748,0.846,1.152
			c0.273,0.391,0.484,0.828,0.703,1.254c0.1,0.23,0.188,0.412,0.295,0.688c0.033,0.088,0.07,0.254,0.084,0.428
			c0.006,0.146-0.002,0.293-0.025,0.43c-0.23,1.09-0.906,1.828-1.549,2.531c-0.666,0.688-1.396,1.293-2.16,1.852
			c-1.537,1.096-3.195,2.008-4.955,2.697c-1.754,0.65-3.652,1.209-5.635,0.84c-0.973-0.189-1.953-0.795-2.438-1.717
			c-0.506-0.896-0.586-1.945-0.586-2.855c-0.027-1.816-0.404-3.613-1.166-5.254c-0.771-1.635-1.949-3.062-3.354-4.223
			c-1.41-1.16-3.031-2.054-4.729-2.757c-3.4-1.419-7.088-2.093-10.773-2.409l0,0l0.002,0.004c1.25,2.572,2.1,5.33,2.629,8.143
			c0.273,1.406,0.469,2.826,0.6,4.252c0.145,1.426,0.201,2.857,0.232,4.289c0.082,5.732-0.578,11.457-1.686,17.078
			c-1.117,5.623-2.664,11.16-4.604,16.562c-0.486,1.35-0.986,2.691-1.523,4.023c-0.527,1.336-1.1,2.666-1.773,3.961
			c-0.676,1.289-1.434,2.559-2.473,3.684c-0.527,0.551-1.135,1.082-1.939,1.408c-0.791,0.355-1.896,0.271-2.637-0.27l0.086-0.125
			c-0.689-0.484-1.111-1.164-1.42-1.842c-0.311-0.686-0.5-1.398-0.615-2.119c-0.221-1.441-0.164-2.924,0.262-4.338
			c0.215-0.705,0.541-1.393,1.008-1.994c0.234-0.299,0.51-0.572,0.816-0.805c0.262-0.211,0.576-0.418,0.799-0.643
			c0.975-0.879,1.846-1.977,2.615-3.102c1.545-2.273,2.799-4.754,3.857-7.309c0.52-1.279,1.008-2.576,1.426-3.896
			c0.434-1.316,0.799-2.652,1.141-3.996c0.656-2.693,1.131-5.434,1.422-8.193c0.293-2.758,0.402-5.539,0.338-8.314
			c-0.031-1.391-0.119-2.777-0.229-4.162c-0.139-1.383-0.287-2.766-0.504-4.139c-0.088-0.691-0.225-1.373-0.346-2.059
			c-0.117-0.687-0.248-1.369-0.404-2.047c-0.277-1.363-0.639-2.707-0.984-4.056l0,0l-0.004,0.005
			c-1.459,1.815-3.207,3.4-5.123,4.739c-1.912,1.349-3.986,2.456-6.109,3.431c-2.135,0.959-4.322,1.777-6.498,2.594
			c-2.174,0.824-4.355,1.631-6.367,2.715c-1.984,1.076-3.854,2.531-4.613,4.596c-0.779,2.057-0.447,4.381,0.199,6.561
			c0.312,1.127,0.582,2.305,0.693,3.504c0.104,1.195,0.104,2.465-0.428,3.689c-0.27,0.602-0.723,1.17-1.322,1.529
			c-0.602,0.359-1.285,0.502-1.936,0.51c-1.305,0-2.498-0.424-3.578-0.975c-2.148-1.131-3.998-2.777-5.297-4.848
			c-0.637-1.035-1.123-2.213-1.221-3.488c-0.033-1.236,0.049-2.408,0.275-3.598c0.42-2.367,1.555-4.646,3.256-6.365
			c1.688-1.742,3.803-2.93,5.939-3.891c2.15-0.961,4.369-1.705,6.584-2.43c2.217-0.719,4.434-1.416,6.625-2.18
			c4.385-1.5,8.672-3.387,12.465-6.103l0,0h0.002c0.607,0.013,1.193-0.188,1.742-0.426c0.555-0.242,1.078-0.546,1.576-0.884
			c0.498-0.342,0.973-0.717,1.393-1.151c0.207-0.217,0.404-0.45,0.555-0.712c0.068-0.133,0.133-0.273,0.146-0.426
			C339.354,378.799,339.276,378.645,339.145,378.565z M339.145,378.565c0.131,0.08,0.209,0.234,0.191,0.386
			c-0.014,0.151-0.076,0.292-0.146,0.425c-0.148,0.262-0.348,0.495-0.555,0.713c-0.42,0.434-0.895,0.809-1.393,1.15
			c-0.498,0.338-1.023,0.643-1.576,0.884c-0.549,0.237-1.135,0.438-1.742,0.427h-0.002l0,0c-3.652,2.907-7.943,4.916-12.289,6.584
			c-2.182,0.83-4.395,1.561-6.588,2.328c-2.191,0.766-4.379,1.551-6.459,2.533c-2.072,0.979-4.057,2.178-5.617,3.795
			c-1.566,1.607-2.584,3.686-2.967,5.9c-0.205,1.098-0.271,2.264-0.238,3.35c0.086,1.055,0.51,2.092,1.096,3.025
			c1.188,1.869,2.945,3.42,4.916,4.436c0.984,0.49,2.055,0.863,3.088,0.867c1.041,0.02,1.93-0.482,2.332-1.414
			c0.416-0.926,0.455-2.066,0.359-3.172c-0.098-1.119-0.336-2.223-0.639-3.338c-0.641-2.232-1.031-4.793-0.123-7.146
			c0.438-1.168,1.205-2.189,2.105-3.002c0.904-0.822,1.938-1.451,2.986-1.998c2.113-1.08,4.328-1.842,6.52-2.623
			c2.195-0.771,4.389-1.537,6.521-2.439c2.137-0.891,4.225-1.912,6.164-3.18c1.938-1.267,3.732-2.763,5.283-4.502l0.004-0.004l0,0
			c0.367,1.342,0.748,2.682,1.045,4.043c0.168,0.676,0.311,1.357,0.438,2.043c0.131,0.684,0.277,1.365,0.375,2.055
			c0.236,1.373,0.406,2.756,0.566,4.143c0.131,1.387,0.238,2.775,0.293,4.17c0.105,2.787,0.039,5.582-0.213,8.361
			s-0.689,5.545-1.311,8.271c-0.322,1.357-0.674,2.713-1.09,4.049c-0.402,1.34-0.877,2.658-1.383,3.963
			c-1.033,2.604-2.266,5.137-3.816,7.494c-0.785,1.176-1.631,2.297-2.711,3.301c-0.273,0.271-0.543,0.447-0.818,0.676
			c-0.244,0.191-0.465,0.416-0.656,0.666c-0.377,0.508-0.654,1.102-0.834,1.73c-0.361,1.258-0.396,2.629-0.176,3.932
			c0.229,1.271,0.734,2.629,1.676,3.291l0.086-0.125c0.434,0.305,0.914,0.363,1.449,0.164c0.527-0.201,1.047-0.605,1.508-1.078
			c0.924-0.959,1.68-2.146,2.35-3.371c0.67-1.227,1.252-2.518,1.799-3.826c0.559-1.309,1.08-2.633,1.588-3.961
			c2.023-5.318,3.666-10.787,4.883-16.354c1.207-5.562,1.973-11.244,2-16.945c-0.006-1.424-0.037-2.85-0.152-4.27
			c-0.104-1.422-0.271-2.838-0.516-4.244c-0.475-2.811-1.27-5.575-2.469-8.17l-0.002-0.006l0,0
			c3.693,0.189,7.414,0.732,10.918,2.053c1.738,0.672,3.416,1.558,4.895,2.726c1.477,1.169,2.74,2.64,3.586,4.347
			c0.842,1.705,1.273,3.613,1.305,5.496c0.006,0.93,0.1,1.797,0.514,2.531c0.396,0.732,1.139,1.191,1.977,1.357
			c1.703,0.316,3.537-0.195,5.209-0.84c1.689-0.672,3.297-1.57,4.77-2.635c0.734-0.531,1.439-1.107,2.066-1.748
			c0.605-0.633,1.207-1.369,1.357-2.119c0.018-0.09,0.021-0.178,0.021-0.262c-0.008-0.061-0.008-0.123-0.053-0.252l-0.252-0.59
			c-0.203-0.396-0.391-0.805-0.646-1.172c-0.236-0.381-0.496-0.748-0.789-1.09c-0.27-0.361-0.588-0.684-0.902-1.008
			c-1.279-1.281-2.77-2.359-4.348-3.281c-0.797-0.451-1.613-0.872-2.438-1.277c-0.844-0.365-1.664-0.781-2.525-1.104
			c-0.863-0.317-1.715-0.678-2.592-0.961l-2.637-0.842c-1.785-0.477-3.562-0.979-5.377-1.35c-1.795-0.445-3.621-0.753-5.439-1.102
			c-1.82-0.33-3.658-0.57-5.488-0.86h-0.008l0,0c6.805-4.248,14.482-7.011,22.359-8.556c3.945-0.771,7.951-1.211,11.971-1.369
			c4.02-0.162,8.055-0.02,12.053,0.484c4.002,0.475,7.957,1.377,11.775,2.698c3.812,1.356,7.477,3.179,10.658,5.795
			c0.76,0.642,1.488,1.374,2.242,1.933c0.77,0.567,1.617,1.028,2.514,1.371c1.789,0.688,3.76,0.92,5.662,0.684
			c1.861-0.237,3.842-0.944,4.881-2.368c0.494-0.706,0.592-1.567,0.238-2.366c-0.342-0.799-0.994-1.509-1.732-2.104
			c-1.5-1.202-3.283-2.053-5.125-2.79c-1.85-0.739-3.715-1.443-5.605-2.068c-3.777-1.269-7.629-2.321-11.527-3.164
			c-7.795-1.678-15.775-2.518-23.756-2.437c-7.973,0.092-15.957,1.173-23.605,3.468
			C352.766,370.053,345.459,373.622,339.145,378.565z"/>
	</g>
	<path fill="#9BAA66" d="M371.706,366.055c7.748-1.586,21.5-1.584,31.75,0.666s7.666,4.469-1.084,2.776s-16.25-3.442-28.166-1.526
		C362.29,369.889,364.788,367.471,371.706,366.055z"/>
	<path fill="#9BAA66" d="M306.454,396.471c3.434-3.432,12.416-5,17.584-7.416c5.166-2.418,4.951,1-1.857,3
		s-10.643,4.082-11.477,6.166C309.872,400.305,304.288,398.637,306.454,396.471z"/>
	<path fill="#9BAA66" d="M357.122,384.555c4.646,2.078,7.363,4.838,7.834,7.305c0.471,2.469,11.85-0.98,7.258-4.686
		S350.788,381.721,357.122,384.555z"/>
	<path fill="#50611D" d="M364.958,378.721c4.486,0.391,10.488,1.554,13.188,2.562c7.188,2.688-3.375,2.25-7.529,0.938
		C366.458,380.91,360.331,378.32,364.958,378.721z"/>
	<path fill="#504647" d="M332.514,383.555c2.443-1.791,2.125-2.484,3.859-3.791c2.232-1.681,2.584-1.418,9.896-6.086
		c5.146-3.285,6.096,2.189,1.143,4.888c6.359,0.891,3.086,4.352-3.121,3.983c1.508,3.851-2.65,5.034-3.908,0
		C337.79,386.264,327.641,387.131,332.514,383.555z"/>
	<g>
		<path fill="#60343C" d="M345.969,381.879c-2.637-2.795-2.885-2.562-4.541-4.363c0.498,0.797,2.488,3.189,3.721,4.828
			C345.42,382.227,345.698,382.069,345.969,381.879z"/>
		<path fill="#472C2D" d="M341.428,377.516c1.141,2.277,2.227,3.326,2.867,5.064c-0.004-0.01,0-0.02-0.004-0.029
			c0.268-0.002,0.559-0.08,0.855-0.207C343.917,380.706,341.926,378.313,341.428,377.516z"/>
		<path fill="#60343C" d="M339.782,382.92c0.477-0.961,1.336-3.141,1.197-4.488c-0.371,1.15-0.309,1.722-2.145,4.717
			C339.17,383.12,339.491,383.042,339.782,382.92z"/>
		<path fill="#472C2D" d="M339.782,382.92c0.223-0.096,0.43-0.214,0.602-0.369c0.004,0.01,0.012,0.018,0.016,0.027
			c0.303-1.115,0.896-2.55,0.582-4.146C341.118,379.78,340.258,381.959,339.782,382.92z"/>
		<path fill="#60343C" d="M341.145,380.465c0.209-0.871,0.006-1.74-0.164-2.033c0.312,1.597-0.279,3.029-0.582,4.146
			c0.096,0.239,0.281,0.421,0.521,0.559C340.573,382.372,340.973,381.184,341.145,380.465z"/>
		<path fill="#64484B" d="M347.432,378.574c-0.594-0.019-1.113-0.263-4.973-0.642c1.994-0.504,3.506,0.164,5.299-0.489
			c0.109-1.646-0.541-4.313-2.916-2.854c-3.195,1.961-3.383,1.012-4.383,1.596s-2.297,0.75-3.875,2.75
			c-2.248,2.847,0.213,4.391,2.25,4.216c1.838-2.995,1.773-3.566,2.146-4.716c0.17,0.291,0.371,1.162,0.164,2.031
			c-0.174,0.719-0.57,1.907-0.225,2.672c1.15,0.662,3.576,0.242,3.373-0.556c-0.643-1.737-1.729-2.786-2.865-5.065
			c1.654,1.802,1.902,1.568,4.541,4.363C347.487,380.817,348.76,378.84,347.432,378.574z"/>
		<path fill="#60343C" d="M342.459,377.932c1.473-0.096,3.857,0.27,5.162,0.291c0.066-0.203,0.117-0.471,0.137-0.78
			C345.965,378.096,344.454,377.428,342.459,377.932z"/>
		<path fill="#472C2D" d="M347.622,378.221c-1.305-0.021-3.689-0.387-5.162-0.289c3.857,0.377,4.379,0.623,4.973,0.641
			c-0.008-0.001-0.012-0.004-0.02-0.005C347.495,378.518,347.565,378.391,347.622,378.221z"/>
		<path fill="#7D6367" d="M337.049,379.822c-0.812,1.202,1,1.905,1.834,0.864C339.715,379.645,339.465,376.248,337.049,379.822z"/>
		<path fill="#7D6367" d="M341.667,378.682c-0.25,0.041,0.199,1.142-0.125,2.08c-0.518,1.492,3.115,2.924,1.449,0.066
			C342.172,379.424,341.917,378.639,341.667,378.682z"/>
		<path fill="#7D6367" d="M345.665,378.569c-1.912-0.195-4-0.721-2.729,0.113s1.688,1.752,2.729,1.293
			S346.649,378.668,345.665,378.569z"/>
		<path fill="#7D6367" d="M343.098,375.908c1.312-0.658,2.254-1.683,2.816-0.724c0.834,1.416-1.793,0.834-2.334,1.125
			C343.038,376.6,342.854,376.03,343.098,375.908z"/>
		<path fill="#967E83" d="M344.534,378.818c0.375,0.719,1.619,0.86,1.543,0.343S344.393,378.545,344.534,378.818z"/>
		<path fill="#967E83" d="M338.374,378.818c-0.783,0.95-1.225,1.801-0.391,1.622C339.145,380.193,338.807,378.291,338.374,378.818z"
			/>
	</g>
</g>
<g id="Layer_2">
	
		<ellipse fill="#181F46" stroke="#181F46" stroke-width="2" stroke-miterlimit="10" cx="372.352" cy="493.75" rx="45.404" ry="47.89"/>
	
		<ellipse fill="#181F46" stroke="#181F46" stroke-width="2" stroke-miterlimit="10" cx="422.711" cy="450.931" rx="45.404" ry="47.888"/>
	<path fill="#242957" stroke="#181F46" stroke-width="2" stroke-miterlimit="10" d="M333.926,442.434
		c0,23.66-18.666,47.465-40.619,42.842c-25.307-5.33-40.619-15.178-40.619-38.838c0-23.662,16.146-40.453,37.617-44.846
		C312.284,397.094,333.926,418.772,333.926,442.434z"/>
	<path fill="#242957" stroke="#181F46" stroke-width="2" stroke-miterlimit="10" d="M432.715,547.229
		c0,23.305-20.113,44.162-42.008,41.193c-22.371-3.033-38.004-17.891-38.004-41.193c0-23.305,17.91-42.195,40.006-42.195
		S432.715,523.924,432.715,547.229z"/>
	<path fill="#181F46" d="M283.456,482.793c-8.725-3.17,8.867-21.654,15.279-9.354c4.992,9.584,5.426,9.908,0,10.871
		C293.307,485.276,286.631,483.948,283.456,482.793z"/>
	<path fill="#181F46" d="M390.057,536.62c2.137,8.604,20.146,19.736,32.076,19.068c11.93-0.666,12.178-8.262,10.385-12.639
		c-1.793-4.375-20.088-8.695-26.104-8.027C400.397,535.69,388.385,529.883,390.057,536.62z"/>
	
		<ellipse fill="#2E3C7B" stroke="#181F46" stroke-width="2" stroke-miterlimit="10" cx="315.124" cy="528.982" rx="45.402" ry="47.888"/>
	<path fill="#242957" d="M296.063,553.346c6.531-15.229,36.652-10.377,38.992-20.016c2.34-9.641-7.404-17.826-10.031-26.232
		c-2.629-8.406,16.812-6.285,26.039,10.26c9.229,16.543,7.846,29.334-5.078,40.668c-12.922,11.332-19.371,18.572-33.25,17.771
		C299.395,575.026,290.063,567.334,296.063,553.346z"/>
	<path fill="#181F46" d="M357.729,515.608c-0.764-2.807-1.77-5.441-2.965-7.92c-1.902-0.627-4.117-0.779-6.664-0.336
		c-30.701,5.338,8.064,12.396,4.604,30.998c-4.898,26.314-46.945,24.291-41.857,37.305c1.73,0.17,3.502,0.244,5.32,0.203
		C343.317,575.231,366.737,548.809,357.729,515.608z"/>
	<path fill="#242957" stroke="#181F46" stroke-width="2" stroke-miterlimit="10" d="M507.963,469.999
		c-2.439,26.713-13.127,41.373-39.121,41.373c-22.715,0-41.125-17.418-41.125-41.373c0-23.957,18.889-45.016,41.125-40.373
		C492.075,434.473,510.106,446.514,507.963,469.999z"/>
	<path fill="#3A4785" d="M453.805,466.413c-8.955-8.346,3.799-9.203,10.697-8.992c6.896,0.213,19.229-1.506,20.227-5.652
		c2.5-10.41-5.48-18.01,0.875-15.994c9.332,2.959,35.479,29.506,7.783,28.199C465.397,462.653,461.786,473.848,453.805,466.413z"/>
	<path fill="#2E3C7B" stroke="#181F46" stroke-width="2" stroke-miterlimit="10" d="M475.956,433.749
		c-34.137,37.299-78.129-6.766-78.129-34.789c0-28.029,21.541-50.748,48.111-50.748C472.51,348.211,521.213,384.297,475.956,433.749
		z"/>
	<path fill="#181F46" d="M458.401,493.75c8-4.73,20.334,8.061,31,0c10.666-8.062,11.654-13.066,16.328-10.23
		c-3.834,11.67-10.266,31.316-44.842,27.119C426.311,506.44,458.401,493.75,458.401,493.75z"/>
	<path fill="#181F46" d="M472.354,435.983c8.305,3.855,6.369,16.805-12.631,17.922c-19,1.119-29.02-0.059-27.01,5.863
		c2.01,5.924-20.73,2.396-17.029-7.553c2.996-8.051,6.098-12.199,24.373-9.693C458.334,445.028,463.649,431.94,472.354,435.983z"/>
	<path fill="#3C498C" stroke="#181F46" stroke-width="2" stroke-miterlimit="10" d="M461.307,500.293
		c0,25.49-14.688,43.375-41.123,43.375c-32.486,0-44.127-9.822-44.127-43.375c0-23.957,21.414-43.377,44.127-43.377
		S461.307,476.336,461.307,500.293z"/>
	<path fill="#242957" d="M398.145,540.192c16.15,4.482,41.201,5.604,53.99-11.865c4.406-6.02,6.799-13.318,7.781-20.654
		c-0.975-5.328-5.342-8.393-13.773-7.377c-15.24,1.832-17.752,26.729-27.461,31.305s-25.291,2.162-32.291-12.75
		c-5.068-10.807-8.191-13.91-9.072-9.908C378.407,516.815,378.741,534.807,398.145,540.192z"/>
	<path fill="#181F46" d="M414.854,543.016c10.533,0.361,29.51-1.84,35.879-12.91c6.367-11.068-2.695-7.785-10.896,1.492
		c-19.23,21.756-55.633,3.979-47.205,7.533C401.063,542.688,404.979,542.676,414.854,543.016z"/>
	<path fill="#7075B7" d="M417.754,505.034c7.322-25.596,24.602-34.842,7.59-39.678c-13.49-3.834-40.723,2.064-44.723,26.084
		C376.057,518.848,412.616,522.993,417.754,505.034z"/>
	<path fill="#242957" d="M472.354,435.983c12.486-11.912,21.703-27.564,20.994-43.818c-29.258-4.6-32.355,45.025-58.52,37.67
		c-8.688-2.441-17.512-0.736-19.979,2.588C436.965,452.952,457.629,450.026,472.354,435.983z"/>
	<path fill="#3A4785" d="M306.18,403.706c-15.924-5.777-33.973,5.375-41.201,12.9c-6.352,6.611-12.921,21.41-10.785,36.77
		c1.828,4.389,4.641,6.545,7.883,2.693c18.898-22.445,69.066-12.816,68.08-28.848C327.403,421.209,319.938,408.696,306.18,403.706z"
		/>
	<path fill="#3C498C" stroke="#181F46" stroke-width="2" stroke-miterlimit="10" d="M340.383,427.596
		c-22.084-5.309-41.125,17.418-41.125,41.375c0,23.955,18.412,43.373,41.125,43.373s41.123-19.418,41.123-43.373
		C381.506,445.014,363.764,433.215,340.383,427.596z"/>
	<path fill="#242957" d="M372.35,464.282c-7.049,2.584-15.592,22.766-34.285,21.574c-29.461-1.875-27.645,9.836-16.645,20.686
		c7.217,4.01,17.355,5.965,27.322,3.883c7.852-5.025,16.049-13.113,23.607-20.332C387.301,475.817,379.399,461.698,372.35,464.282z"
		/>
	<path fill="#7075B7" d="M331.114,429.528L331.114,429.528L331.114,429.528c-10.99,2.717-23.75,11.088-25.244,24.377
		c-1.129,10.023,3.857,5.672,12.357-1.688c13.984-12.105,25.078,15.143,29.137-17.359
		C348.104,428.915,340.217,427.28,331.114,429.528z"/>
	<path fill="#AAB1EF" d="M338.381,429.53c-10.717,0.148-15.451,5.326-15.451,5.326c-2.734,6.84,15.994,17.182,18.225,4.496
		C342.153,433.653,344.313,429.448,338.381,429.53z"/>
	
		<ellipse fill="#3A4785" stroke="#181F46" stroke-width="2" stroke-miterlimit="10" cx="384.219" cy="428.673" rx="41.125" ry="43.374"/>
	<path fill="#AAB1EF" d="M380.413,410.502c-3.402,6.244-15.262,3.791-19.777,11.033c-4.664,7.477-13.275,16.578-12.48,1.018
		c1.453-28.527,36.928-41.345,48.01-30.539C401.276,397,390.499,391.993,380.413,410.502z"/>
	<path fill="#CED7F8" d="M377.159,404.317c-9.889,2.346-7.697-10.754-0.48-12.537c17.801-4.387,16.029,2.578,9.311,5.477
		C382.342,398.825,383.219,402.881,377.159,404.317z"/>
	<path fill="#181F46" d="M403.776,448.43c-14.855,9.057-23.363,5.475-30.164,3.785c-12.814-3.186-11.006,17.021-0.045,18.725
		c10.961,1.705,18.664,0.746,23.68-1.654c5.014-2.402,10.281-4.572,12.787-7.131C422.62,449.307,427.717,433.836,403.776,448.43z"/>
	<ellipse fill="#3A4785" cx="397.827" cy="428.979" rx="12.746" ry="13.295"/>
	<path fill="#3C498C" d="M332.108,465.432c9.113-11.977-5.812-17.914-13.363-10.197c-4.879,4.984-7.729,19.82,5.82,22.898
		S336.715,475.247,332.108,465.432z"/>
	<path fill="#7075B7" d="M452.706,370.762c4.439-9.737-4.496-15.172-0.807-18.431c1.021-0.899,1.594-1.647,1.803-2.26
		c-6.924-1.366-13.684-0.968-19.988,0.808c-13.107,4.473-18.578,13.078-17.984,27.396
		C416.754,403.051,445.717,386.083,452.706,370.762z"/>
	<path fill="#AAB1EF" d="M439.133,349.719c-9.646,4.793-7.523,18.877,2.006,19.653c17.59,1.435,4.447-9.801,9.594-16.973
		c0.811-1.128,1.154-1.992,1.115-2.651C447.51,349.086,443.249,349.11,439.133,349.719z"/>
	<path fill="#181F46" d="M356.364,489.858c-11.039,15.584-44.809,3.895-22.439,21.516c5.102,4.016,22.439-2.426,22.439-2.426
		C390.229,489.858,388.729,444.165,356.364,489.858z"/>
	<path fill="#7075B7" d="M264.979,416.608c-3.65,3.801-7.373,10.312-9.477,18.076c6.182,0.539,27.709-15.248,37.459-15.715
		c11.273-0.541,21.24-6.09,19.592-12.189c-1.955-1.188-4.072-2.238-6.375-3.072C290.254,397.928,272.208,409.081,264.979,416.608z"
		/>
	<path fill="#A1ABE5" d="M402.229,505.034c6.5-0.178,8.344-7.24,8.344-19.18c0-6.908-12.188-12.018-20.518,5.242
		C385.743,500.04,395.729,505.209,402.229,505.034z"/>
	<path fill="#3C264A" d="M257.618,428.088c-2.543,5.629-5.216,14.645-3.324,25.875c1.063-3.965,2.23-10.566,2.304-12.113
		C256.733,439.043,260.942,430.473,257.618,428.088z"/>
	<path fill="#AAB1EF" d="M264.979,416.608c-2.288,2.383-4.604,5.83-6.533,9.984c1.609,1.309,6.072-0.445,8.777-2.43
		c4.506-3.309,6.371-8.551,6.049-11.531c-0.104-0.953-0.594-1.559-1.338-1.824C269.108,412.758,266.723,414.79,264.979,416.608z"/>
	<path fill="#3A4785" d="M373.198,580.204c-18.15-10.359-10.43-20.891-4.561-25.133c4.561-3.295,14.473-2.354,17.879,7.062
		C389.928,571.553,397.432,594.034,373.198,580.204z"/>
	<path fill="#7075B7" d="M272.354,541.92c2.562,6.061,3.994-20.562,21.854-21.562c17.857-1,14.152-14.467,11.504-20.064
		c-2.648-5.602-17.354-10.926-28.295,3.688C268.188,520.514,270.52,533.696,272.354,541.92z"/>
	<path fill="#4A3D6C" d="M404.397,439.024c-4.455-5.17-9.152-5.4-14.096-0.691c3.541-5.834,2.311-10.373-3.693-13.617
		c6.645,1.562,10.58-1.01,11.809-7.725c0.564,6.803,4.229,9.75,10.994,8.846C403.116,428.473,401.444,432.87,404.397,439.024z"/>
	<path fill="#4A3D6C" d="M335.877,458.706c-5.143,6.84-4.023,13.842,1.52,20.707c-5.346-5.262-11.27-6.732-17.92-3.428
		c1.932-5.713,0.514-10.316-4.254-13.814c5.512-1.926,9.793-5.371,12.844-10.338C327.899,457.561,330.502,459.852,335.877,458.706z"
		/>
	<path fill="#3C264A" d="M417.182,541.667c-6.678-2.996-10.895-2.262-18.041-1.584c-0.613-5.016-3.197-8.715-7.754-11.104
		c3.189-2.465,3.234-5.123,1.322-8.873c6.738,2.785,14.354,4.584,21.018,3.01C408.229,532.026,416.631,541.004,417.182,541.667z"/>
	<path fill="#3C264A" d="M457.317,351.143c-1.812,1.578-4.197,2.334-7.166,2.263c3.879,2.2,6.471,5.444,7.773,9.729
		c6.781-1.146,13.117,0.032,19.1,3.439c0,0-3.303-5.408-3.135-6.212c0.17-0.804,1.348,0.063,1.348,0.063
		C469.262,355.897,462.708,352.866,457.317,351.143z"/>
	<path fill="#3C264A" d="M500.11,454.62c3.023,4.93,4.896,10.309,5.619,16.072c0,0,0.488-4.271,1.459-5.328
		c-0.271-7.115-1.834-10.959-4.367-15.086C502.401,451.93,501.504,453.379,500.11,454.62z"/>
	<path fill="#3C264A" d="M404.397,439.024c-0.371-0.773-6.658-8.295,5.014-13.188c-8.141,1.09-10.365-1.271-10.994-8.848
		c-1.92,10.484-7.641,8.705-11.809,7.725l0,0c6.645,1.564,10.58-1.008,11.809-7.725c0.564,6.805,4.229,9.75,10.994,8.848
		C403.116,428.473,401.444,432.87,404.397,439.024L404.397,439.024z"/>
	<path fill="#3C264A" d="M328.186,451.833c-4.818,7.848-4.484,7.418-12.842,10.338c6.371,4.676,6.531,6.715,4.133,13.814l0,0
		c1.932-5.713,0.514-10.316-4.254-13.814C320.735,460.245,325.135,456.799,328.186,451.833L328.186,451.833z"/>
	<path fill="#261B15" d="M392.709,520.108c1.008,1.979,4.438,4.422-1.322,8.873c8.299,4.354,6.924,4.314,7.754,11.104
		c4.307-0.406,4.836-4.34,18.041,1.584l0,0c-6.678-2.996-10.895-2.26-18.041-1.584c-0.613-5.016-3.197-8.713-7.754-11.104
		C394.577,526.516,394.622,523.858,392.709,520.108L392.709,520.108z"/>
	<path fill="#261B15" d="M477.024,366.575c-0.35-0.57-3.488-4.51-3.135-6.212c0.168-0.804,1.348,0.063,1.348,0.063
		c-6.342-3.69-12.924-7.19-17.92-9.283c-3.516,3.064-5.617,2.607-7.166,2.263l0,0c2.969,0.071,5.354-0.685,7.166-2.263
		c6.576,2.102,12.123,4.889,17.92,9.283c0,0-1.18-0.867-1.348-0.063S477.024,366.575,477.024,366.575L477.024,366.575z"/>
	<path fill="#261B15" d="M254.293,453.963c-1.611-9.566,1.897-22.717,3.324-25.875l0,0
		C255.075,433.717,252.402,442.733,254.293,453.963L254.293,453.963z"/>
</g>
</svg>
