<?xml version="1.0" encoding="utf-8"?>
<!-- Generator: Adobe Illustrator 16.0.0, SVG Export Plug-In . SVG Version: 6.00 Build 0)  -->
<!DOCTYPE svg PUBLIC "-//W3C//DTD SVG 1.1//EN" "http://www.w3.org/Graphics/SVG/1.1/DTD/svg11.dtd">
<svg version="1.1" xmlns="http://www.w3.org/2000/svg" xmlns:xlink="http://www.w3.org/1999/xlink" x="0px" y="0px" width="700px"
	 height="850px" viewBox="0 0 700 850" enable-background="new 0 0 700 850" xml:space="preserve">
<g id="Layer_3">
	<path fill="#2A100F" d="M240.833,584c3.282-3.048-0.765-5.088,2.426-9.249c2.697-3.518-5.358-0.369-5.712,1.836
		S239.083,585.625,240.833,584z"/>
	<path fill="#60343C" d="M240.663,584c2.273-3.333-0.663-5,2.595-9.249c2.697-3.518-5.358-0.369-5.712,1.836
		S240.258,584.979,240.663,584z"/>
	<path fill="#472C2D" d="M240.074,583.725c2.116-2.168-0.367-4.204,3.183-8.975c2.646-3.557-5.358-0.369-5.712,1.836
		S239.669,584.704,240.074,583.725z"/>
	<g>
		<path fill="#60343C" d="M258.732,568.562c1.893-7.412-8.171-7.269,1.955-22c9.428-13.716-14.25,13.188-14.75,15.312
			S257.902,571.812,258.732,568.562z"/>
		<path fill="#261B15" d="M258.416,568.51c0,0,0.051-0.268,0.146-0.77c0.047-0.251,0.125-0.565,0.101-0.903
			c-0.001-0.345,0.034-0.743-0.074-1.194c-0.108-0.912-0.561-1.959-1.165-3.14c-0.586-1.179-1.283-2.591-1.403-4.263
			c-0.138-1.666,0.306-3.436,0.994-5.173c0.391-0.854,0.75-1.748,1.258-2.594c0.238-0.43,0.478-0.865,0.721-1.305
			c0.273-0.421,0.549-0.846,0.827-1.273c0.562-0.854,1.133-1.72,1.711-2.598c0.286-0.44,0.568-0.888,0.835-1.347
			c0.131-0.23,0.263-0.463,0.373-0.705c0.055-0.121,0.106-0.244,0.135-0.372c0.011-0.062,0.017-0.136-0.027-0.161
			c-0.046-0.023-0.12,0.01-0.174,0.036c-0.902,0.565-1.623,1.401-2.39,2.159c-0.752,0.781-1.489,1.582-2.219,2.391
			c-2.889,3.258-5.679,6.606-8.207,9.805c-1.238,1.595-2.504,3.187-3.406,4.696c-0.29,0.393,0.49,1.171,1.05,1.728
			c0.616,0.581,1.284,1.085,1.93,1.557c1.296,0.944,2.568,1.703,3.708,2.336c1.148,0.615,2.188,1.083,3.064,1.336
			c0.867,0.271,1.595,0.283,1.898,0.111c0.292-0.165,0.3-0.398,0.319-0.384L258.416,568.51z M259.043,568.642
			c-0.027-0.033-0.013,0.43-0.612,0.817c-0.603,0.339-1.475,0.283-2.427,0.046c-0.968-0.237-2.074-0.67-3.287-1.267
			c-1.213-0.595-2.526-1.367-3.873-2.347c-0.671-0.493-1.347-1.04-2.002-1.68c-0.325-0.324-0.646-0.67-0.937-1.084
			c-0.143-0.226-0.276-0.414-0.377-0.77c-0.023-0.098-0.04-0.199-0.051-0.295l0.01-0.174c0.042-0.305,0.118-0.37,0.178-0.507
			c0.514-0.882,1.113-1.608,1.731-2.392c0.62-0.771,1.265-1.544,1.929-2.323c2.66-3.111,5.582-6.351,8.6-9.498
			c0.751-0.79,1.51-1.573,2.283-2.337c0.787-0.744,1.531-1.544,2.449-2.119c0.061-0.024,0.128-0.068,0.208-0.034
			c0.072,0.048,0.055,0.139,0.045,0.201c-0.031,0.134-0.084,0.257-0.141,0.379c-0.113,0.243-0.247,0.474-0.38,0.704
			c-0.271,0.458-0.557,0.902-0.847,1.341c-0.591,0.869-1.172,1.729-1.708,2.599c-0.273,0.431-0.545,0.858-0.814,1.281
			c-0.238,0.441-0.474,0.878-0.708,1.311c-0.5,0.848-0.853,1.744-1.209,2.606c-0.633,1.748-1.024,3.507-0.83,5.114
			c0.175,1.612,0.888,2.938,1.517,4.098c0.644,1.154,1.169,2.246,1.326,3.233c0.131,0.479,0.116,0.938,0.126,1.333
			c0.03,0.406-0.037,0.709-0.074,0.961c-0.077,0.505-0.118,0.774-0.118,0.774L259.043,568.642z"/>
	</g>
	<path fill="#2A100F" d="M255.75,567.5c-0.188-9.137-5.607-0.327,6.42-19.238c8.932-14.044-15.733,11.488-16.233,13.613
		S255.819,570.854,255.75,567.5z"/>
	<g>
		<path fill-rule="evenodd" clip-rule="evenodd" fill="#50611D" d="M483.203,279.064c-10.232-12.895-13.444-26.785-18.385-41.893
			c-2.868-8.771-5.521-16.2-4.728-19.278c1.12-4.35-7.514-21.359-6.189-26.25c0.367-1.356-7.324-23.752-4.908-29.222
			c1.679-3.801-13.411-38.688-9.287-43.573c1.633-1.935-3.897-18.58-2.122-22.971c1.608-3.977-3.095-7.218-1.867-11.133
			c2.978-9.498-3.449-20.416-1.074-25.309c1.603-3.302-1.158-13.358-0.826-19.509c0.181-3.346,2.651-8.87,2.979-11.754
			c3.047-26.76,6.159-23.731,24.624-13.407c3.059,1.71,7.176,5.125,11.477,5.125c7.19,0,11.999,10.695,16.883,10.873
			c7.508,0.273,17.589,25.799,27.665,28.194c8.102,1.926,17.644,27.707,21.407,29.154c3.739,1.438,6.832,18.807,12.656,26.679
			c8.288,11.203,6.938,28.351,10.412,32.099c4.695,5.064,0.873,17.696,2.578,20.07c4.532,6.309-1.313,16.932,1.392,27.045
			c3.392,12.682-7.444,20.853-6.104,32.861c0.504,4.513-4.278,14.523-4.152,22.686c0.122,7.898-2.526,9.835-4.462,11.668
			c-12.889,12.205-21.014,25.142-45.275,26.176C499.502,287.667,489.635,287.169,483.203,279.064z"/>
		<path fill="#9BAA66" d="M483.203,279.064c0,0-0.397-0.525-1.168-1.543c-0.393-0.503-0.862-1.142-1.385-1.926
			c-0.541-0.771-1.156-1.673-1.795-2.73c-2.67-4.157-5.889-10.706-8.831-19.45c-1.49-4.364-2.961-9.255-4.659-14.547
			c-0.863-2.642-1.762-5.391-2.693-8.244c-0.902-2.858-1.879-5.821-2.471-8.98c-0.135-0.791-0.252-1.593-0.276-2.412
			c-0.006-0.409,0.015-0.822,0.098-1.23c0.085-0.401,0.125-0.811,0.084-1.216c-0.143-1.637-0.674-3.242-1.205-4.851
			c-1.062-3.226-2.236-6.534-3.271-9.993c-0.51-1.731-1.014-3.492-1.396-5.306c-0.182-0.908-0.359-1.824-0.45-2.757
			c-0.039-0.467-0.065-0.938-0.025-1.409c-0.004-0.476,0.237-0.925,0.102-1.398c-0.241-1.889-1.323-3.583-1.976-5.409
			c-0.306-0.919-0.522-1.87-0.689-2.838c-0.125-0.979-0.251-1.963-0.378-2.952c-0.211-1.985-0.802-3.895-1.178-5.878
			c-0.406-1.975-0.768-3.983-0.979-6.028c-0.208-2.032-0.267-4.172,0.452-6.15c0.058-2.119-0.845-4.114-1.699-6.062
			c-0.929-1.939-1.675-3.944-2.134-6.067c-0.236-1.059-0.374-2.155-0.569-3.238c-0.177-1.089-0.352-2.184-0.638-3.247
			c-1.255-4.218-2.617-8.475-3.717-12.87c-0.515-2.196-1.776-4.271-2.022-6.64c-0.116-1.172-0.149-2.406,0.282-3.625
			c0.103-0.303,0.233-0.604,0.406-0.89c0.157-0.285,0.474-0.567,0.55-0.679c0.231-0.417,0.336-1.041,0.344-1.605
			c0.047-2.336-0.655-4.61-1.343-6.862c-0.331-1.133-0.713-2.26-1-3.415c-0.301-1.151-0.512-2.328-0.666-3.521
			c-0.165-1.19-0.261-2.403-0.235-3.632c0.045-1.218,0.092-2.5,0.624-3.691c0.531-1.028,0.598-2.254,0.266-3.417
			c-0.312-1.164-0.877-2.248-1.347-3.364c-0.469-1.108-0.835-2.321-0.658-3.542c0.095-0.603,0.316-1.178,0.451-1.773
			c0.141-0.595,0.251-1.197,0.333-1.804c0.323-2.432,0.171-4.912-0.182-7.354c-0.352-2.446-0.916-4.865-1.41-7.306
			c-0.245-1.22-0.466-2.45-0.583-3.695c-0.104-1.238-0.113-2.526,0.322-3.711c0.576-1.13,0.662-2.425,0.656-3.675
			c-0.008-1.259-0.122-2.517-0.254-3.773c-0.27-2.512-0.644-5.021-0.889-7.552c-0.224-2.518-0.436-5.119,0.28-7.599
			c0.618-2.482,1.535-4.886,2.184-7.375c0.347-1.242,0.41-2.537,0.584-3.812c0.156-1.279,0.322-2.558,0.505-3.837
			c0.371-2.555,0.791-5.114,1.436-7.628c0.33-1.253,0.713-2.5,1.263-3.678c0.548-1.164,1.28-2.316,2.409-2.996
			c1.13-0.686,2.528-0.709,3.791-0.441c1.278,0.263,2.502,0.743,3.694,1.271c2.382,1.074,4.666,2.358,6.954,3.629
			c2.271,1.303,4.607,2.504,6.802,3.948c2.209,1.391,4.486,2.813,7.073,3.379c1.281,0.328,2.633,0.105,3.905,0.493
			c1.271,0.353,2.442,0.993,3.514,1.755c2.145,1.539,3.931,3.499,5.808,5.343c0.942,0.917,1.902,1.831,3.007,2.554
			c0.552,0.357,1.145,0.666,1.784,0.828c0.638,0.166,1.32,0.094,1.938,0.352c1.246,0.449,2.296,1.301,3.25,2.199
			c0.953,0.91,1.822,1.903,2.652,2.925c1.659,2.048,3.178,4.203,4.694,6.354c3.043,4.286,5.97,8.698,9.667,12.44
			c1.851,1.823,3.978,3.559,6.568,4.137c1.254,0.403,2.318,1.226,3.273,2.108c0.956,0.894,1.804,1.895,2.606,2.924
			c0.798,1.034,1.546,2.104,2.261,3.195c0.72,1.088,1.378,2.212,2.126,3.282c1.512,2.13,3.195,4.182,4.327,6.521l1.789,3.448
			c0.563,1.164,1.134,2.321,1.736,3.458c0.611,1.128,1.224,2.266,2.022,3.26c0.211,0.236,0.435,0.464,0.689,0.642
			c0.243,0.166,0.586,0.271,0.828,0.499c0.504,0.425,0.865,0.971,1.193,1.522c0.66,1.106,1.188,2.277,1.773,3.426
			c0.542,1.166,1.18,2.298,1.734,3.46c1.138,2.315,2.309,4.604,3.204,6.958c0.944,2.338,1.701,4.716,2.553,7.07
			c0.443,1.168,0.939,2.315,1.537,3.415c0.295,0.549,0.643,1.093,0.959,1.632c0.293,0.565,0.634,1.093,0.923,1.651
			c0.573,1.118,1.192,2.2,1.885,3.273c0.7,1.067,1.466,2.137,2.054,3.284c0.59,1.147,0.943,2.374,1.219,3.606
			c0.311,1.226,0.487,2.474,0.663,3.712c0.259,2.496,0.408,4.967,0.586,7.417c0.074,1.228,0.247,2.437,0.461,3.637
			c0.262,1.179,0.491,2.412,1.172,3.426c0.353,0.496,0.805,0.851,1.274,1.267c0.463,0.473,0.88,0.992,1.13,1.581
			c0.535,1.168,0.762,2.424,0.806,3.653c0.157,2.469-0.415,4.827-0.122,7.224c0.259,1.207,0.71,2.431,0.615,3.579
			c-0.033,0.578-0.052,1.146-0.039,1.692c0.017,0.535,0.065,1.083,0.166,1.418c0.006,0.071,0.2,0.391,0.344,0.631
			c0.146,0.235,0.307,0.586,0.443,0.878c0.232,0.604,0.424,1.209,0.537,1.825c0.242,1.227,0.281,2.446,0.215,3.632
			c-0.066,1.188-0.227,2.348-0.418,3.493c-0.153,1.149-0.375,2.282-0.516,3.42c-0.126,1.139-0.415,2.262-0.216,3.425
			c0.192,1.164,0.633,2.311,0.632,3.406c-0.031,2.196,0.053,4.368,0.558,6.436c0.128,0.573,0.249,1.086,0.361,1.654
			c0.096,0.589,0.199,1.18,0.241,1.756c0.111,1.156,0.136,2.321,0.003,3.462c-0.461,4.612-2.434,8.636-4.19,12.485
			c-0.886,1.935-1.734,3.86-2.381,5.842c-0.617,1.988-0.984,4.037-1.027,6.085c-0.034,1.025,0.12,2.036,0.105,3.065
			c-0.048,1.023-0.229,2.024-0.45,3.008c-0.197,0.989-0.409,1.971-0.58,2.959c-0.157,0.993-0.313,1.98-0.469,2.962
			c-0.277,1.972-0.664,3.875-1.112,5.73c-0.405,1.865-0.794,3.702-1.027,5.542c-0.241,3.656-0.526,7.704-2.646,10.672
			c-0.532,0.728-1.123,1.399-1.694,2.097c-0.53,0.731-1.056,1.458-1.578,2.179c-0.989,1.478-2.338,2.567-3.539,3.776
			c-2.409,2.409-4.892,4.639-7.359,6.72c-1.234,1.04-2.476,2.031-3.721,2.968c-1.222,0.966-2.445,1.886-3.698,2.714
			c-2.487,1.68-4.998,3.136-7.542,4.258c-5.097,2.247-10.164,3.281-14.742,3.747c-4.586,0.451-8.737,0.464-12.275-0.13
			c-3.54-0.574-6.423-1.713-8.543-2.975c-2.132-1.258-3.525-2.575-4.41-3.489c-0.434-0.468-0.757-0.828-0.958-1.083
			C483.309,279.19,483.203,279.064,483.203,279.064z M483.203,279.064c0,0,0.105,0.126,0.312,0.376
			c0.201,0.254,0.524,0.615,0.958,1.083c0.885,0.914,2.278,2.23,4.41,3.489c2.12,1.262,5.003,2.401,8.543,2.975
			c3.538,0.594,7.689,0.582,12.275,0.13c4.578-0.466,9.646-1.5,14.742-3.747c5.085-2.24,10.114-5.757,14.439-10.497
			c2.221-2.31,4.35-4.847,6.73-7.298c1.195-1.22,2.283-2.589,3.81-3.558c0.748-0.488,1.501-0.98,2.259-1.476
			c0.73-0.511,1.39-1.136,1.877-1.896c1.03-1.488,1.517-3.304,1.649-5.123c0.178-1.84-0.055-3.628-0.097-5.599
			c-0.02-1.938,0.217-3.889,0.614-5.807c0.361-1.929,0.983-3.807,1.749-5.647c0.724-1.851,1.543-3.695,1.935-5.679
			c0.194-0.989,0.349-1.995,0.368-3.01c-0.014-1.008-0.196-2.029-0.19-3.063c-0.02-2.068,0.313-4.148,0.856-6.182
			c0.512-2.046,1.232-4.052,1.982-6.051c1.498-3.977,3.109-8.051,3.22-12.292c0.028-1.052,0.006-2.105-0.132-3.151
			c-0.053-0.53-0.159-1.031-0.251-1.538c-0.117-0.52-0.267-1.089-0.396-1.602c-0.596-2.266-0.82-4.625-0.752-6.952
			c0.05-1.169,0.646-2.29,1.053-3.396c0.415-1.106,0.399-2.255,0.549-3.395c0.134-1.14,0.19-2.292,0.246-3.443
			c0.017-1.154-0.002-2.31-0.11-3.446c-0.108-1.135-0.324-2.251-0.696-3.281c-0.179-0.518-0.424-1.003-0.684-1.462
			c-0.154-0.217-0.229-0.407-0.419-0.654c-0.172-0.253-0.332-0.41-0.563-0.875c-0.33-0.764-0.374-1.411-0.415-2.048
			c-0.034-0.633-0.032-1.245-0.017-1.849c-0.004-1.214,0.623-2.356,1.013-3.523c0.172-0.585,0.261-1.177,0.256-1.774
			c0.016-0.596,0.009-1.193-0.034-1.79c-0.097-1.192-0.268-2.382-0.537-3.532c-0.297-1.144-0.581-2.27-1.032-3.311
			c-0.218-0.527-0.439-1.042-0.679-1.554c-0.307-0.511-0.67-1.065-0.86-1.663c-0.892-2.281-1.376-4.67-2.041-7.046
			c-0.657-2.376-1.288-4.764-2.018-7.11c-0.325-1.174-0.651-2.351-0.979-3.53c-0.344-1.168-0.65-2.341-0.85-3.556
			c-0.194-1.216-0.279-2.495-0.581-3.719c-0.291-1.225-0.771-2.398-1.455-3.452c-0.622-1.091-1.406-2.071-2.254-3.017
			c-0.846-0.964-1.609-2.009-2.323-3.086c-1.459-2.142-2.623-4.465-3.486-6.878c-0.91-2.4-1.41-4.931-2.019-7.423
			c-0.593-2.49-1.234-5.015-2.585-7.216c-0.351-0.534-0.738-1.061-1.24-1.448c-0.243-0.209-0.545-0.277-0.843-0.457
			c-0.283-0.178-0.522-0.405-0.751-0.638c-0.923-0.93-1.676-2-2.418-3.066c-0.734-1.073-1.438-2.167-2.133-3.265l-1.957-3.364
			c-1.361-2.21-2.191-4.709-3.341-7.056c-0.585-1.167-1.293-2.262-2.006-3.354c-0.715-1.09-1.463-2.161-2.261-3.195
			c-0.803-1.029-1.65-2.03-2.606-2.924c-0.955-0.882-2.02-1.705-3.273-2.108c-2.591-0.578-4.718-2.313-6.568-4.137
			c-3.697-3.743-6.624-8.154-9.667-12.44c-1.517-2.151-3.035-4.306-4.694-6.354c-0.83-1.022-1.699-2.015-2.652-2.925
			c-0.954-0.898-2.004-1.75-3.25-2.199c-0.618-0.257-1.301-0.186-1.938-0.352c-0.64-0.163-1.232-0.471-1.784-0.828
			c-1.104-0.723-2.064-1.637-3.007-2.554c-1.877-1.844-3.663-3.804-5.808-5.343c-1.071-0.762-2.242-1.402-3.514-1.755
			c-1.272-0.387-2.624-0.165-3.905-0.493c-2.587-0.565-4.864-1.988-7.073-3.379c-2.194-1.444-4.53-2.645-6.802-3.948
			c-2.288-1.271-4.572-2.555-6.954-3.629c-1.192-0.527-2.416-1.008-3.694-1.271c-1.263-0.269-2.661-0.245-3.791,0.441
			c-1.129,0.68-1.861,1.832-2.409,2.996c-0.55,1.178-0.933,2.425-1.263,3.678c-0.645,2.514-1.064,5.073-1.436,7.628
			c-0.183,1.279-0.349,2.558-0.505,3.837c-0.174,1.275-0.237,2.57-0.584,3.812c-0.648,2.489-1.565,4.892-2.184,7.375
			c-0.716,2.48-0.504,5.081-0.28,7.599c0.245,2.531,0.619,5.04,0.889,7.552c0.132,1.256,0.246,2.514,0.254,3.773
			c0.006,1.25-0.08,2.545-0.656,3.675c-0.436,1.186-0.426,2.474-0.322,3.711c0.117,1.245,0.338,2.475,0.583,3.695
			c0.494,2.44,1.059,4.859,1.41,7.306c0.353,2.441,0.505,4.921,0.182,7.354c-0.082,0.607-0.192,1.209-0.333,1.804
			c-0.135,0.595-0.356,1.17-0.451,1.773c-0.177,1.221,0.189,2.434,0.658,3.542c0.469,1.121,1.052,2.182,1.466,3.327
			c0.412,1.126,0.598,2.448,0.192,3.66c-0.298,1.084-0.167,2.267-0.026,3.419c0.161,1.158,0.365,2.313,0.55,3.474
			c0.198,1.159,0.399,2.318,0.531,3.492c0.146,1.171,0.218,2.357,0.333,3.533c0.174,2.367,0.461,4.681,0.819,6.987
			c0.045,0.587,0.2,1.157,0.035,1.838c-0.161,0.418-0.287,0.543-0.345,0.802c-0.065,0.242-0.102,0.497-0.115,0.759
			c-0.014,1.055,0.098,2.15,0.191,3.256c0.243,2.197-0.032,4.587,0.527,6.789c1.093,4.395,2.387,8.675,3.764,12.854
			c0.374,1.036,0.861,2.031,1.345,3.023c0.463,0.998,0.981,1.976,1.392,2.983c0.833,2.012,1.354,4.115,1.569,6.281
			c0.123,1.073,0.246,2.141,0.369,3.205c0.104,1.058,0.347,2.091,0.301,3.143c-0.719,1.978-0.66,4.118-0.452,6.15
			c0.211,2.045,0.572,4.053,0.979,6.028c0.439,1.967,0.772,3.943,1.522,5.792c0.366,0.925,0.73,1.845,1.093,2.76
			c0.331,0.922,0.617,1.851,0.813,2.8c0.321,1.917,0.332,3.898,0.806,5.725c0.146,0.474-0.085,0.938-0.069,1.403
			c-0.029,0.467,0.008,0.935,0.057,1.398c0.106,0.926,0.309,1.833,0.554,2.722c0.485,1.778,1.088,3.499,1.695,5.191
			c1.219,3.384,2.476,6.668,3.355,9.986c0.396,1.666,0.794,3.33,0.797,5.012c0.021,0.861-0.326,1.626-0.29,2.45
			c-0.007,0.814,0.083,1.623,0.229,2.412c0.592,3.16,1.568,6.122,2.471,8.98c0.932,2.853,1.83,5.602,2.693,8.244
			c1.698,5.292,3.169,10.183,4.659,14.547c2.942,8.744,6.161,15.293,8.831,19.45c0.639,1.058,1.254,1.959,1.795,2.73
			c0.522,0.784,0.992,1.422,1.385,1.926C482.806,278.539,483.203,279.064,483.203,279.064z"/>
	</g>
	<path fill-rule="evenodd" clip-rule="evenodd" fill="#5A6E21" d="M525.006,264.002c42.811-33.271,41.003-134.997,6.912-175.22
		c-48.945-57.749-37.901-7.826-38.92,19.216c-1.058,28.082,19.957,69.911,6.004,131.001S515.964,271.029,525.006,264.002z"/>
	<path fill-rule="evenodd" clip-rule="evenodd" fill="#9BAA66" d="M513.738,106.997c11.752,15.049,44.159,54.521,18.258,130
		c-10.989,32.023-12.831-12.072-9.965-46.977C525.003,153.834,500.976,90.654,513.738,106.997z"/>
	<path fill-rule="evenodd" clip-rule="evenodd" fill="#64484B" d="M501.293,270.445C527.49,206.003,504.501,107.936,444,7.372
		c23.007,47.015,101.375,182.516,46.001,266.648c-5.472,8.313-2.995-1.505-10.998,7.987s-16.835,9.488-27.169,33.99
		s-23.914,31.281-33.874,39.142s-85.064,70.519-121.635,117.497c-17.33,22.262-35.924,28.086-52.325,48.312
		c-13.41,16.538-13.861,7.41-18.43,2.23s-2.678,1.511-8.571-2c-4.498-2.68-7.054,6.604-4.026,13.817s5.355,9.306,4.19,19.151
		s3.086,10.102,10.088,17.101s16.416,19.723,12.697,8.602c-0.953-2.851,3.093-3.563,6.977-4.249s18.699-5.799,8.068-11.556
		s-0.445-2.014,2.012-8.034c4.001-9.804,4.793-16.125,25.162-32.342c17.09-13.606,29.844-27.791,38.173-37.443
		c20.328-23.559,75.907-90.957,103.417-108.95c22.772-14.894,27.56-16.207,30.23-20.362c4.528-7.047,21.705,0.34,30.949-17.914
		c7.078-13.978-9.279-13.11-11.696-23.437s24.548-29.106,32.655-28.168C494.502,285.564,498.653,276.939,501.293,270.445z"/>
	<g>
		<path fill-rule="evenodd" clip-rule="evenodd" fill="#50611D" d="M220,181.99c-27.328,0.781-53.359,22.045-63.886,44.04
			c-7.864-43.401,4.895-17.08,21.622-30.96C188.019,186.538,207.624,182.033,220,181.99L220,181.99z"/>
		<path fill="#5A6E21" d="M220,181.99l-2.533,0.143l-2.521,0.273l-2.506,0.384l-2.486,0.49l-2.463,0.592l-2.436,0.691l-2.405,0.789
			l-2.373,0.877c-1.568,0.621-3.117,1.288-4.641,2.007c-1.516,0.736-3.025,1.483-4.511,2.278c-2.967,1.598-5.832,3.386-8.581,5.337
			c-2.749,1.952-5.383,4.066-7.888,6.325c-1.255,1.126-2.476,2.291-3.657,3.495c-1.188,1.196-2.339,2.431-3.447,3.703
			c-1.122,1.259-2.178,2.576-3.232,3.892c-1.054,1.317-2.06,2.674-3.022,4.061c-0.967,1.384-1.878,2.808-2.748,4.256
			c-0.868,1.45-1.669,2.939-2.436,4.448l0,0l0-0.002c-0.697-3.885-1.356-7.779-1.838-11.698c-0.241-1.958-0.43-3.925-0.511-5.897
			c-0.056-1.964-0.072-3.971,0.47-5.877c0.274-0.938,0.767-1.865,1.6-2.418c0.827-0.561,1.851-0.698,2.827-0.728
			c1.975-0.027,3.938,0.261,5.913,0.273c1.972,0.036,3.958-0.15,5.86-0.685c1.904-0.524,3.711-1.378,5.35-2.478
			c0.83-0.537,1.595-1.163,2.365-1.779c0.764-0.625,1.571-1.195,2.39-1.746c1.641-1.098,3.362-2.072,5.129-2.951
			c3.539-1.753,7.248-3.145,11.024-4.29c3.779-1.141,7.634-2.03,11.527-2.681C212.113,182.432,216.051,182.02,220,181.99z
			 M220,181.99c-3.949,0.029-7.887,0.442-11.781,1.084c-3.894,0.65-7.748,1.54-11.527,2.681c-3.776,1.145-7.485,2.537-11.024,4.29
			c-1.767,0.878-3.488,1.853-5.129,2.951c-0.818,0.551-1.625,1.121-2.39,1.746c-0.77,0.616-1.535,1.242-2.365,1.779
			c-1.638,1.099-3.446,1.953-5.35,2.478c-1.903,0.534-3.889,0.721-5.86,0.685c-1.975-0.012-3.938-0.301-5.913-0.273
			c-0.977,0.03-2,0.167-2.827,0.728c-0.833,0.553-1.325,1.48-1.6,2.418c-0.542,1.907-0.526,3.913-0.47,5.877
			c0.081,1.973,0.27,3.939,0.511,5.897c0.482,3.919,1.141,7.812,1.838,11.698l0,0.002l0,0c0.567-1.604,1.217-3.185,1.963-4.721
			c0.765-1.523,1.544-3.052,2.443-4.507c0.898-1.455,1.843-2.884,2.84-4.277c0.494-0.7,0.996-1.396,1.539-2.059
			c0.53-0.673,1.059-1.348,1.618-1.998c1.095-1.319,2.234-2.604,3.413-3.85c1.171-1.254,2.385-2.47,3.635-3.648
			c1.246-1.183,2.523-2.336,3.85-3.431c1.331-1.089,2.699-2.134,4.095-3.14c2.779-2.034,5.744-3.806,8.784-5.423
			c1.521-0.808,3.074-1.559,4.664-2.224c1.582-0.685,3.218-1.236,4.857-1.757l2.493-0.672l2.51-0.576l2.521-0.486l2.532-0.387
			c0.848-0.096,1.695-0.182,2.534-0.307l2.531-0.251l2.531-0.209L220,181.99z"/>
	</g>
	<g>
		<path fill-rule="evenodd" clip-rule="evenodd" fill="#404609" d="M168.456,207.98c8.092-9.562,21.079-19.872,36.549-24.312
			c12.495-3.587,18.114,0.45,18.533-2.586c0.906-6.565,21.024,3.908,21.462,1.547c1.167-6.295,17.032,3.909,17.032,2.349
			c0-8.144,18.13,7.672,18.13,4.494c0-10.612,22.641,11.771,23.504,7.862c2.386-10.796,20.675,14.716,23.304,10.647
			c5.196-8.042,13.118,14.142,16.769,11.227c10.277-8.209,25.402,29.418,35.095,28.654c13.167-1.038,16.166,41.207,22.69,41.207
			c8.498,0-0.433,22.414,1.457,23.922c10.187,8.127-10.517,29.112-21.944,40.095c-8.841,8.496-12.284,2.721-20.936-3.667
			c-7.352-5.428-16.999-7.684-31.358-16.413c-8.486-5.158-14.574-11.673-31.24-20.173c-6.987-3.563-4-6.267-22.5-18.833
			c-6.419-4.36-18.646-9.16-18.719-12.72c-0.114-5.553-28.604-20.782-29.28-24.151c-1.464-7.295-22.549-16.643-23.068-20.984
			c-0.933-7.811-21.634-15.097-19.636-18.112C184.969,217.021,172.901,209.086,168.456,207.98"/>
		<path fill="#5A6E21" d="M168.456,207.98c0,0,0.409-0.485,1.201-1.426c0.793-0.94,1.934-2.362,3.635-4.043
			c3.302-3.432,8.458-8.291,16.159-12.913c1.959-1.085,3.949-2.385,6.248-3.339c1.131-0.511,2.278-1.064,3.473-1.576
			c1.227-0.435,2.48-0.88,3.759-1.333c0.646-0.224,1.274-0.461,1.955-0.682c0.647-0.192,1.321-0.378,2.028-0.555
			c1.386-0.343,2.814-0.627,4.287-0.832c2.928-0.397,6.1-0.488,9.158-0.158c0.734,0.081,1.521,0.242,2.007,0.21
			c0.24-0.031,0.28,0.01,0.39-0.158c0.082-0.076,0.185-0.77,0.44-1.198c0.512-0.952,1.512-1.481,2.392-1.682
			c0.899-0.221,1.786-0.27,2.66-0.275c3.48,0.063,6.954,0.604,10.351,1.401c0.85,0.193,1.69,0.412,2.517,0.636
			c0.828,0.204,1.64,0.457,2.348,0.773c0.337,0.156,0.715,0.297,0.823,0.401c0.008,0.013-0.006,0.024-0.005,0.042l-0.1,0.067
			c-0.118,0.064-0.426,0.224-0.62,0.651c-0.107,0.239-0.092,0.366-0.052,0.225l0.076-0.155c0.045-0.101,0.149-0.349,0.23-0.504
			c0.345-0.614,0.876-1.202,1.497-1.538c0.611-0.361,1.228-0.495,1.795-0.587c1.139-0.138,2.153-0.025,3.149,0.098
			c0.994,0.126,1.961,0.313,2.922,0.517c1.922,0.402,3.788,0.986,5.554,1.714c0.881,0.356,1.744,0.772,2.49,1.242l0.508,0.316
			c0.066,0.047,0.137,0.092,0.147,0.119c0.021,0.019-0.012,0.023-0.04,0.037c-0.059,0.013-0.17,0.007-0.45,0.112
			c-0.4,0.051-1,0.839-0.942,1.294c0.013,0.037,0.03-0.093,0.044-0.131l0.111-0.452c0.092-0.375,0.208-0.689,0.385-1.043
			c0.194-0.346,0.429-0.702,0.768-0.991c0.33-0.292,0.724-0.489,1.099-0.61c0.754-0.211,1.405-0.187,1.987-0.115
			c1.164,0.165,2.172,0.479,3.167,0.824c1.979,0.685,3.914,1.429,5.754,2.328c1.816,0.911,3.623,1.91,5.109,3.066
			c0.338,0.289,0.771,0.562,0.873,0.703c-0.012,0.037-0.006,0.033-0.276,0.14c-0.103,0.049-0.303,0.19-0.409,0.352
			c-0.118,0.187-0.139,0.316-0.141,0.412c-0.003,0.119,0.025,0.084,0.041-0.019l0.052-0.192l0.12-0.44
			c0.186-0.647,0.419-1.264,0.904-1.844c0.478-0.584,1.241-0.916,1.885-0.985c1.314-0.144,2.404,0.211,3.468,0.535
			c1.061,0.342,2.07,0.768,3.092,1.176c4.034,1.696,8.039,3.675,11.598,5.946c0.899,0.528,1.751,1.13,2.427,1.751
			c0.164,0.139,0.33,0.298,0.445,0.412c0.101,0.128,0.242,0.214,0.057,0.287c-0.121,0.041-0.332,0.117-0.609,0.376
			c-0.234,0.232-0.318,0.64-0.238,0.546l0.214-0.372l0.268-0.488c0.378-0.619,0.797-1.249,1.486-1.74
			c0.325-0.257,0.724-0.419,1.11-0.552c0.391-0.096,0.788-0.163,1.152-0.149c1.479,0.053,2.599,0.606,3.694,1.109
			c2.156,1.073,4.125,2.321,6.098,3.574c1.959,1.261,3.869,2.58,5.676,3.916c0.868,0.651,1.739,1.303,2.612,1.958
			c0.41,0.318,0.843,0.567,1.178,0.861c0.329,0.299,0.602,0.597,0.637,0.848c0.001,0.121-0.11,0.194-0.431,0.397
			c-0.144,0.106-0.326,0.271-0.399,0.437c-0.04,0.093-0.053,0.134-0.058,0.209c0.135-0.126,0.157-0.102,0.238-0.162
			c0.131-0.083,0.269-0.161,0.394-0.249l0.468-0.327l0.543-0.376c0.179-0.118,0.383-0.197,0.564-0.301
			c0.353-0.203,0.81-0.326,1.225-0.443c0.446-0.073,0.892-0.101,1.308-0.02c0.833,0.131,1.529,0.469,2.109,0.833
			c1.171,0.746,2.123,1.585,3.033,2.445c0.912,0.855,1.773,1.731,2.613,2.609c0.832,0.881,1.642,1.765,2.407,2.64
			c0.76,0.871,1.493,1.75,2.176,2.466c0.338,0.375,0.627,0.687,0.779,0.94c0.021,0.043,0.061,0.115,0.067,0.154
			c-0.022,0.004-0.033,0.049-0.074,0.085c-0.104-0.016-0.167,0.045-0.295,0.077c-0.144,0.014-0.272,0.155-0.343,0.195
			c-0.04,0.034-0.073,0.078-0.094,0.127c-0.099,0.114,0.409-0.241,0.307-0.139l0.428-0.164c0.145-0.052,0.279-0.119,0.419-0.177
			c0.108-0.058,0.401-0.152,0.594-0.218c0.425-0.131,0.872-0.331,1.269-0.378c0.4-0.061,0.805-0.123,1.205-0.154
			c1.63-0.018,3.035,0.545,4.25,1.19c1.214,0.671,2.251,1.467,3.236,2.303c3.846,3.399,6.874,7.298,9.921,11.16
			c3.044,3.842,5.949,7.82,9.122,11.291c0.823,0.812,1.618,1.653,2.373,2.442c0.758,0.775,1.522,1.616,2.431,1.952
			c0.218,0.062,0.445,0.104,0.683,0.161c0.414,0.025,0.62,0.028,1.055,0.084c0.755,0.095,1.43,0.256,2.087,0.541
			c1.306,0.552,2.382,1.442,3.274,2.417c1.807,1.957,3.027,4.243,4.165,6.525c1.119,2.298,2.052,4.666,2.915,7.051
			c1.73,4.769,3.18,9.627,4.648,14.43c0.365,1.201,0.739,2.396,1.142,3.571c0.424,1.167,0.806,2.34,1.17,3.5
			c0.369,1.145,0.74,2.357,1.471,3.155c0.189,0.167,0.385,0.337,0.599,0.401c0.053,0.029,0.107,0.02,0.161,0.035
			c0.012,0.008,0.16,0.024,0.238,0.033l0.473,0.052c0.684,0.109,1.46,0.378,1.955,0.903c0.526,0.499,0.886,1.134,1.109,1.772
			c0.251,0.64,0.361,1.3,0.46,1.954c0.184,1.31,0.186,2.615,0.123,3.907c-0.144,2.582-0.479,5.134-0.922,7.642
			c-0.209,1.256-0.473,2.498-0.692,3.732c-0.218,1.215-0.512,2.489-0.608,3.527c-0.003,0.11-0.011,0.253-0.001,0.284
			c-0.002,0.019,0.005,0.096-0.02,0.026c-0.036-0.057-0.087-0.041,0.006,0.042l0.645,0.705c0.415,0.541,0.877,1.151,1.139,1.77
			c0.614,1.23,0.878,2.598,0.85,3.928c-0.104,2.673-1.087,5.124-2.236,7.397c-1.167,2.28-2.595,4.394-4.097,6.435
			c-3.041,4.059-6.394,7.842-9.878,11.471c-1.734,1.822-3.497,3.61-5.284,5.369c-1.799,1.744-3.555,3.534-5.471,5.136
			c-0.984,0.764-2.009,1.496-3.159,1.98c-1.119,0.557-2.4,0.738-3.629,0.635c-1.249-0.092-2.411-0.623-3.486-1.224
			c-1.089-0.599-2.07-1.363-3.06-2.104c-1.952-1.521-3.84-3.116-5.826-4.572c-1.031-0.672-2.037-1.381-3.084-2.021
			c-1.079-0.585-2.138-1.206-3.229-1.761c-4.373-2.204-8.875-4.064-13.204-6.213c-2.191-1.019-4.293-2.196-6.425-3.294
			c-2.074-1.201-4.17-2.351-6.183-3.618c-4.034-2.528-7.746-5.453-11.547-8.168c-3.814-2.698-7.673-5.262-11.652-7.53l-1.477-0.871
			l-1.507-0.808c-1.003-0.538-2.004-1.073-3.002-1.608c-1.008-0.517-1.978-1.095-2.941-1.676c-0.505-0.257-0.919-0.642-1.354-0.997
			c-0.432-0.358-0.879-0.699-1.243-1.126c-0.779-0.804-1.522-1.635-2.255-2.471c-0.736-0.834-1.528-1.61-2.285-2.415
			c-1.612-1.507-3.197-3.035-4.935-4.354c-0.852-0.681-1.701-1.359-2.547-2.035c-0.865-0.65-1.755-1.261-2.627-1.89
			c-1.765-1.226-3.451-2.544-5.271-3.632c-3.626-2.193-7.384-4.021-10.931-6.085c-1.758-1.045-3.526-2.097-4.967-3.516
			c-0.356-0.355-0.672-0.756-0.894-1.206c-0.242-0.45-0.201-0.977-0.347-1.452c-0.349-0.94-0.994-1.73-1.661-2.453
			c-2.752-2.855-5.958-5.099-9.041-7.317c-3.109-2.195-6.215-4.256-9.228-6.301c-1.506-1.023-2.993-2.039-4.437-3.077
			c-1.431-1.051-2.871-2.077-4.083-3.319c-0.296-0.312-0.581-0.655-0.708-1.07l-0.174-0.621c-0.071-0.202-0.166-0.396-0.247-0.593
			c-0.375-0.769-0.85-1.482-1.396-2.126c-1.074-1.306-2.33-2.416-3.588-3.468c-2.54-2.087-5.182-3.885-7.732-5.631
			c-2.547-1.75-5.058-3.391-7.288-5.23c-0.559-0.457-1.082-0.949-1.57-1.462c-0.463-0.526-0.923-1.1-1.057-1.792
			c-0.196-1.388-0.906-2.614-1.735-3.653c-1.708-2.072-3.802-3.613-5.802-5.018c-2.016-1.398-4.016-2.615-5.899-3.788
			c-1.876-1.182-3.69-2.262-5.194-3.552c-0.356-0.339-0.725-0.67-0.957-1.093c-0.116-0.206-0.203-0.438-0.181-0.675
			c-0.006-0.226,0.252-0.44,0.09-0.664c-0.509-0.778-1.26-1.309-1.917-1.857c-2.736-2.102-5.252-3.627-7.304-4.827
			c-2.06-1.189-3.7-1.994-4.835-2.466C169.081,208.113,168.456,207.98,168.456,207.98s0.625,0.133,1.757,0.614
			c1.135,0.472,2.775,1.276,4.835,2.466c2.051,1.2,4.567,2.726,7.304,4.827c0.657,0.548,1.408,1.079,1.917,1.857
			c0.162,0.223-0.096,0.438-0.09,0.664c-0.022,0.237,0.065,0.469,0.181,0.675c0.232,0.423,0.601,0.754,0.957,1.093
			c1.503,1.29,3.317,2.37,5.194,3.552c1.884,1.173,3.884,2.39,5.899,3.788c2,1.405,4.094,2.946,5.802,5.018
			c0.83,1.039,1.539,2.265,1.735,3.653c0.133,0.691,0.594,1.266,1.057,1.792c0.489,0.514,1.011,1.005,1.57,1.462
			c2.23,1.839,4.741,3.48,7.288,5.23c2.55,1.746,5.192,3.544,7.732,5.631c1.258,1.052,2.514,2.162,3.588,3.468
			c0.546,0.645,1.021,1.358,1.396,2.126c0.082,0.197,0.176,0.391,0.247,0.593l0.174,0.621c0.127,0.416,0.413,0.758,0.708,1.07
			c1.212,1.243,2.652,2.269,4.083,3.319c1.444,1.038,2.931,2.054,4.437,3.077c3.013,2.045,6.119,4.106,9.228,6.301
			c3.083,2.218,6.289,4.462,9.041,7.317c0.667,0.723,1.312,1.513,1.661,2.453c0.146,0.475,0.105,1.002,0.347,1.452
			c0.222,0.45,0.537,0.851,0.894,1.206c1.44,1.419,3.209,2.471,4.967,3.516c3.547,2.064,7.305,3.893,10.931,6.085
			c1.82,1.087,3.506,2.406,5.271,3.632c0.872,0.629,1.762,1.239,2.627,1.89c0.846,0.676,1.695,1.354,2.547,2.035
			c1.738,1.319,3.322,2.846,4.935,4.354c0.757,0.804,1.549,1.581,2.285,2.415c0.732,0.836,1.476,1.667,2.255,2.471
			c0.364,0.427,0.812,0.768,1.243,1.126c0.435,0.355,0.849,0.74,1.354,0.997c0.964,0.581,1.934,1.159,2.941,1.676
			c0.998,0.535,1.999,1.07,3.002,1.608l1.507,0.808l1.477,0.871c3.979,2.268,7.838,4.832,11.652,7.53
			c3.802,2.715,7.514,5.64,11.547,8.168c2.012,1.267,4.108,2.417,6.183,3.618c2.132,1.098,4.233,2.275,6.425,3.294
			c4.328,2.149,8.831,4.009,13.204,6.213c1.091,0.555,2.149,1.175,3.229,1.761c1.047,0.639,2.053,1.348,3.084,2.021
			c1.986,1.456,3.874,3.05,5.826,4.572c0.989,0.741,1.971,1.506,3.06,2.104c1.075,0.601,2.237,1.131,3.486,1.224
			c1.229,0.103,2.51-0.078,3.629-0.635c1.15-0.484,2.175-1.217,3.159-1.98c1.92-1.598,3.661-3.403,5.451-5.156
			c1.775-1.77,3.533-3.563,5.25-5.4c3.404-3.696,6.721-7.516,9.576-11.673c1.423-2.077,2.764-4.22,3.829-6.488
			c1.052-2.257,1.899-4.67,1.906-7.098c-0.023-1.201-0.278-2.389-0.882-3.385c-0.299-0.522-0.671-0.889-1.098-1.286l-0.754-0.586
			c-0.034-0.014-0.157-0.145-0.293-0.325c-0.141-0.187-0.145-0.278-0.196-0.408c-0.102-0.271-0.109-0.448-0.142-0.653
			c-0.14-1.502,0.103-2.733,0.337-4.008c0.261-1.257,0.522-2.498,0.816-3.728c0.559-2.463,1.172-4.906,1.488-7.379
			c0.155-1.232,0.259-2.475,0.172-3.689c-0.118-1.184-0.382-2.442-1.19-3.187c-0.104-0.084-0.196-0.187-0.308-0.259l-0.354-0.192
			c-0.114-0.079-0.245-0.079-0.364-0.127c-0.124-0.036-0.229-0.089-0.403-0.086l-0.475-0.03l-0.234-0.011
			c-0.102-0.011-0.211-0.004-0.307-0.036c-0.414-0.068-0.755-0.266-1.072-0.471c-1.184-0.888-1.978-2.012-2.675-3.142
			c-0.692-1.141-1.18-2.348-1.59-3.568c-0.424-1.216-0.812-2.433-1.188-3.648c-1.476-4.867-2.662-9.754-4.176-14.51
			c-0.762-2.373-1.589-4.717-2.585-6.967c-0.999-2.235-2.199-4.412-3.801-6.129c-0.803-0.847-1.722-1.555-2.727-1.955
			c-0.488-0.209-1.045-0.329-1.529-0.327c-0.186-0.019-0.602,0.038-0.811,0.071l-1.18,0.077c-1.574-0.072-2.982-0.593-4.217-1.26
			c-1.264-0.661-2.226-1.583-3.157-2.512c-3.634-3.736-6.433-7.831-9.288-11.793c-1.424-1.981-2.844-3.936-4.317-5.81
			c-1.48-1.858-2.988-3.695-4.689-5.182c-0.429-0.357-0.845-0.749-1.289-1.05c-0.221-0.156-0.436-0.333-0.658-0.473l-0.677-0.39
			c-0.901-0.465-1.812-0.774-2.604-0.751c-0.194,0.03-0.382,0.07-0.575,0.088c-0.2,0.021-0.285,0.141-0.427,0.191
			c-0.078,0.058-0.092,0.015-0.224,0.142c-0.11,0.105-0.226,0.201-0.332,0.313l-0.323,0.326c-0.229,0.181,0.159-0.083-0.072,0.1
			c-0.151,0.123-0.314,0.241-0.483,0.349c-0.314,0.234-0.767,0.341-1.197,0.428c-0.422,0.067-0.779,0.023-1.179-0.02
			c-0.321-0.06-0.603-0.146-0.9-0.254c-0.254-0.103-0.458-0.207-0.689-0.321c-0.808-0.45-1.386-0.965-1.832-1.484
			c-1.784-2.087-2.824-4.186-3.955-6.246c-0.551-1.026-1.106-2.031-1.72-2.96c-0.619-0.914-1.297-1.793-2.068-2.353
			c-0.375-0.301-0.766-0.468-1.081-0.523c-0.316-0.057-0.563-0.016-0.794,0.241c-0.126,0.107-0.19,0.277-0.227,0.431l-0.102,0.329
			c-0.048,0.145-0.083,0.3-0.124,0.45c-0.007,0.055-0.068,0.198-0.024,0.186c-0.101,0.183-0.184,0.357-0.342,0.536
			c-0.288,0.357-0.726,0.675-1.152,0.848c-0.885,0.351-1.59,0.331-2.142,0.299c-2.11-0.193-3.085-1.036-4.092-1.836
			c-0.984-0.793-1.843-1.623-2.67-2.458c-1.632-1.687-3.072-3.455-4.544-5.148c-1.466-1.682-2.973-3.334-4.68-4.532
			c-0.833-0.589-1.783-1.073-2.546-1.121c-0.758-0.091-1.104,0.41-1.151,1.278l0.017,0.727c0.023-0.009-0.064,0.37-0.133,0.539
			c-0.125,0.256-0.261,0.505-0.498,0.715c-0.481,0.455-0.984,0.572-1.372,0.646c-0.739,0.097-1.137,0.021-1.555-0.021
			c-0.407-0.058-0.742-0.129-1.076-0.22c-1.299-0.339-2.3-0.91-3.236-1.557c-3.746-2.489-6.649-5.674-9.993-8.161
			c-0.828-0.623-1.697-1.169-2.587-1.612c-0.879-0.424-1.85-0.761-2.63-0.682c-0.388,0.042-0.632,0.227-0.76,0.493
			c-0.123,0.271-0.154,0.692-0.079,1.067l0.063,0.332l0.039,0.195c0.014,0.027,0.03,0.12,0.014,0.367
			c-0.031,0.218-0.082,0.482-0.29,0.763c-0.174,0.271-0.499,0.479-0.719,0.568c-0.514,0.199-0.775,0.167-1.04,0.178
			c-0.917-0.034-1.426-0.209-2.013-0.354c-1.108-0.331-2.046-0.799-2.935-1.329c-0.891-0.521-1.738-1.07-2.559-1.642
			c-1.643-1.129-3.188-2.37-4.841-3.265c-0.823-0.425-1.679-0.81-2.46-0.928c-0.385-0.065-0.739-0.048-0.916,0.049
			c-0.163,0.105-0.144,0.175-0.142,0.384c0.015,0.103,0.007,0.261,0.056,0.369c0.009,0.031,0.017,0.047,0.025,0.089l0.033,0.183
			c0.009,0.083,0.025,0.074,0.028,0.231c0.059,0.583-0.638,1.467-1.148,1.562c-0.397,0.139-0.629,0.137-0.809,0.146
			c-0.148,0.003-0.301-0.004-0.398-0.011c-0.227-0.016-0.389-0.036-0.554-0.057c-0.316-0.049-0.587-0.104-0.855-0.159
			c-1.046-0.226-1.929-0.595-2.792-0.998c-1.719-0.797-3.316-1.706-4.918-2.513c-0.8-0.401-1.612-0.747-2.419-1.001
			c-0.802-0.247-1.632-0.382-2.307-0.298c-0.328,0.038-0.614,0.143-0.756,0.294c-0.148,0.151-0.178,0.323-0.166,0.542
			c0.013,0.059,0.032,0.02,0.027,0.139l0,0.173c0.02-0.03-0.004,0.201-0.148,0.546c-0.308,0.626-0.818,0.906-1.145,1.046
			c-0.147,0.06-0.296,0.108-0.427,0.143l-0.339,0.074c-0.788,0.133-1.295,0.108-1.827,0.09c-1.032-0.053-1.918-0.298-2.772-0.597
			c-0.856-0.283-1.68-0.592-2.484-0.919c-3.218-1.243-6.216-2.843-9.291-3.448c-0.759-0.148-1.521-0.219-2.214-0.132
			c-0.688,0.091-1.283,0.352-1.503,0.862c-0.138,0.279-0.075,0.404-0.214,1.083c-0.065,0.289-0.251,0.6-0.489,0.855
			c-0.246,0.235-0.542,0.411-0.798,0.502c-1.043,0.362-1.842,0.361-2.644,0.38c-1.573-0.002-3.028-0.199-4.486-0.184
			c-1.451-0.015-2.876,0.062-4.271,0.212c-1.394,0.155-2.76,0.387-4.084,0.677c-0.647,0.143-1.307,0.304-1.974,0.482
			c-0.624,0.185-1.267,0.406-1.891,0.604c-1.254,0.406-2.483,0.804-3.686,1.193c-1.176,0.465-2.306,0.974-3.423,1.442
			c-2.264,0.875-4.273,2.035-6.237,3.025c-0.995,0.475-1.889,1.066-2.776,1.61c-0.887,0.547-1.749,1.078-2.583,1.593
			c-1.642,1.074-3.104,2.199-4.508,3.184c-2.701,2.109-4.985,3.946-6.684,5.595c-1.778,1.571-3.007,2.929-3.868,3.805
			C168.897,207.524,168.456,207.98,168.456,207.98z"/>
	</g>
	<path fill-rule="evenodd" clip-rule="evenodd" fill="#5A6E21" d="M448.55,55.463c1.563,13.367,0.508,23.157,6.833,33.542
		c6.318,10.374,0.625,24.995,8.222,57.363c4.473,19.057,8.426,40.66,15.307,93.09c1.518,11.565-5.856,2.454-6.966-2.92
		c-1.866-9.038-8.717-15.876-6.729-20.279c1.848-4.094-8.172-22.173-6.189-27.25c0.84-2.151-4.121-16.619-4.908-25.218
		c-0.198-2.165-4.684-11.819-5.25-20.933c-0.908-14.612-9.908-17.849-5.038-24.643c3.082-4.3-1.896-18.58-0.12-22.971
		c1.608-3.977-2.094-7.218-0.866-11.133c2.978-9.498-3.449-20.416-1.074-25.309c1.603-3.302-2.518-13.586-0.826-19.509
		C442.836,32.665,446.597,38.761,448.55,55.463z"/>
	<path fill-rule="evenodd" clip-rule="evenodd" fill="#9BAA66" d="M460.867,179.803c2.347,4.014,6.41,9.927,4.522-4.771
		s-10.562-69.475-8.392-75.503s-13.983-17.936-11.462-11.524c3.931,9.995-2.153,5.472,0.897,15.419
		c7.471,24.355-7.702,10.156,0.104,24.516c6.465,11.893,2.734,16.821,6.767,26.274S457.732,174.44,460.867,179.803z"/>
	<path fill-rule="evenodd" clip-rule="evenodd" fill="#9BAA66" d="M465.978,192.938c0,1.538-2.566,3.57-3.772,3.57
		c-1.207,0-2.185-3.315-2.185-4.853s0.978-2.785,2.185-2.785C463.411,188.871,465.978,191.4,465.978,192.938z"/>
	
		<ellipse transform="matrix(0.895 0.446 -0.446 0.895 145.5319 -186.2891)" fill-rule="evenodd" clip-rule="evenodd" fill="#9BAA66" cx="468.519" cy="216.023" rx="1.629" ry="4.05"/>
	<path fill-rule="evenodd" clip-rule="evenodd" fill="#3A3F04" d="M359.513,232.721c6.154,7.828-9.513-17.71-15.773-12.981
		c-3.728,2.816-11.573-19.268-16.769-11.227c-2.629,4.069-20.918-21.443-23.304-10.647c-0.864,3.908-23.505-18.475-23.505-7.862
		c0,3.179-18.13-12.638-18.13-4.494c0,1.56-15.865-8.644-17.032-2.349c-0.438,2.361-20.557-8.112-21.462-1.547
		c-0.419,3.036-6.038-1.001-18.533,2.586c-12.602,3.618-23.556,11.129-31.558,18.958l0,0c20.658-1.006,48.986,7.721,63.343,16.311
		C277.97,244.107,344.638,213.799,359.513,232.721z"/>
	<path fill-rule="evenodd" clip-rule="evenodd" fill="#50611D" d="M174.406,202.236c58.667-3.039,123.709,58.677,164.521,103.322
		c9.383,10.264-22.787-4.499-39.31-7.326c-8.078-1.382-20.739-1.265-24.536-4.135c-6.19-4.68-18.646-9.16-18.72-12.72
		c-0.113-5.553-28.604-20.782-29.279-24.151c-1.464-7.295-22.549-16.643-23.068-20.984c-0.932-7.811-20.988-14.757-19.636-18.112
		c0.38-0.942-9.378-7.942-15.922-10.149C171.129,204.989,172.848,203.722,174.406,202.236z"/>
	<g>
		<path fill="#3A4000" d="M373.186,357.622c0,0-0.157-0.202-0.462-0.593c-0.312-0.379-0.746-0.989-1.308-1.799
			c-1.11-1.601-2.582-4.009-4.455-7.067c-1.872-3.057-4.146-6.758-6.806-10.959c-2.677-4.19-5.806-8.844-9.47-13.724
			c-0.902-1.231-1.846-2.469-2.825-3.716c-0.958-1.264-1.99-2.507-3.03-3.778c-2.087-2.539-4.326-5.138-6.598-7.806
			c-4.582-5.32-9.508-10.85-14.694-16.487c-10.393-11.253-21.97-22.814-34.209-33.637c-6.115-5.415-12.407-10.627-18.758-15.551
			c-6.347-4.931-12.769-9.558-19.176-13.743c-6.407-4.184-12.79-7.94-19.023-11.155c-3.111-1.619-6.189-3.09-9.204-4.429
			c-3.012-1.346-5.958-2.568-8.826-3.635c-5.726-2.168-11.129-3.732-15.978-4.85c-4.852-1.119-9.161-1.72-12.719-2.072
			c-3.561-0.371-6.378-0.39-8.296-0.429c-1.919,0.029-2.943,0.045-2.943,0.045s1.023-0.047,2.942-0.134
			c1.919-0.019,4.743-0.085,8.325,0.179c3.58,0.256,7.922,0.768,12.828,1.775c4.902,1.009,10.379,2.456,16.196,4.503
			c5.831,2.011,11.991,4.635,18.315,7.783c6.331,3.139,12.819,6.821,19.337,10.932c6.519,4.112,13.057,8.667,19.523,13.528
			c6.443,4.892,12.806,10.098,19.001,15.492c12.393,10.789,24.12,22.318,34.653,33.547c5.275,5.608,10.226,11.167,14.813,16.53
			c4.593,5.345,8.828,10.549,12.427,15.59c3.577,5.047,6.607,9.833,9.188,14.128c2.596,4.287,4.68,8.121,6.404,11.263
			c1.716,3.146,3.098,5.594,4.056,7.229c0.482,0.802,0.861,1.419,1.154,1.826c0.279,0.411,0.424,0.623,0.424,0.623L373.186,357.622z
			"/>
	</g>
	<path fill-rule="evenodd" clip-rule="evenodd" fill="#64484B" d="M382.986,389.576c1.486-11.926-4.486-30.576-8.286-36.491
		s-5.974-11.854-29.727-39.072C363.946,349.025,371.5,388.5,365.9,400.34L382.986,389.576z"/>
	<path fill-rule="evenodd" clip-rule="evenodd" fill="#60343C" d="M366.779,397.866c5.158-2.679-0.882-44.06,6.298-47.424
		c0,0-3.952-9.255-28.104-36.257C357.084,336.534,371.812,377.562,366.779,397.866z"/>
	<path fill-rule="evenodd" clip-rule="evenodd" fill="#60343C" d="M477.126,321.655c-24.498-19.328,1.615-39.647,28.508-34.26
		C492.55,289.068,461.968,308.685,477.126,321.655z"/>
	<path fill-rule="evenodd" clip-rule="evenodd" fill="#2A100F" d="M474.153,317.987c-12.148-10.019,4.85-35.979,31.742-30.592
		C492.304,288.325,468.869,309.285,474.153,317.987z"/>
	<path display="none" fill-rule="evenodd" clip-rule="evenodd" fill="none" d="M365.899,400.339
		c25.107-23.053,46.998-41.204,52.061-45.199c9.96-7.86,23.54-14.64,33.874-39.142S471,291.5,479.003,282.008
		s5.526,0.326,10.998-7.987c55.374-84.133-9.505-213.86-32.512-260.875c60.501,100.563,70.001,192.857,43.804,257.299
		c-2.64,6.494-6.791,15.119,4.603,16.95c-8.107-0.938-35.072,17.841-32.655,28.168"/>
	<path fill-rule="evenodd" clip-rule="evenodd" fill="#7D6367" d="M468.821,331.033c0.138-6.954,9.562-8.355,12.928-5.819
		c3.979,2.999,7.022,6.214,3.188,13.787c-1.666,3.291-3.806,5.535-5.653,7.608C475.258,351.125,468.664,339,468.821,331.033z"/>
	<path fill-rule="evenodd" clip-rule="evenodd" fill="#60343C" d="M454.777,341.466c-16.813,17.576-28.197,19.926-43.783,31.543
		c-23.278,17.352-42.405,40.24-60.771,62.478c-47.227,57.185-39.555,39.184-59.555,62.184c-3.32,3.818-4.365,10.456-16.501,20.168
		c-8.6,6.882-14.555,11.321-19.182,20.521c-11.342,22.553-13.077,15.813-11.614,20.73c0.754,2.535,5.68,1.822,9.141,0.583
		c2.925-1.048,3.868-2.625,4.396-3.661c14.258-27.992,9.488-11.594,26.258-31.509c13.333-15.833,28.748-28.624,37.077-38.276
		c20.327-23.559,75.906-90.957,103.417-108.949c22.772-14.895,27.56-16.207,30.23-20.363c3.481-5.418,14.441-2.303,23.523-8.871
		C469.745,348.26,461.661,334.27,454.777,341.466z"/>
	<path fill-rule="evenodd" clip-rule="evenodd" fill="#2A100F" d="M477.504,348.033c-7.004,4.967-18.024-6.214-27.514,2.002
		c0,0-9.216,8.855-14.412,11.959c-10.864,6.488-20.217,14.611-29.844,22.908c-19.642,16.927-36.438,37.076-53.412,56.59
		c-19.874,22.848-31.815,38.684-54.322,59.012c-1.98,1.788-6.667,10.833-12.183,15.355c-7.975,6.538-16.699,12.273-23.573,19.947
		c-2.312,2.581-12.908,18.653-15.999,19.882c-5.504,2.188-2.637,7.041,4.651,4.512c4.089-1.419,4.733-2.073,6.108-4.188
		c17.662-27.175,15.025-17.509,27.973-31.984c20.98-23.456,16.356-16.023,35.362-37.801c20.46-23.443,75.906-90.957,103.417-108.949
		c22.772-14.895,27.56-16.207,30.23-20.363c3.481-5.418,14.441-2.303,23.523-8.871L477.504,348.033z"/>
	<path fill-rule="evenodd" clip-rule="evenodd" fill="#7D6367" d="M458.967,306.553c-3.279,7.161-6.843,17.387-9.593,20.854
		s5.247-7.325,13.124-5.491s-3.531-3.053-1.355-9.777C464.421,302.006,460.718,302.729,458.967,306.553z"/>
	<path fill-rule="evenodd" clip-rule="evenodd" fill="#967E83" d="M471.997,327.856c2.016-2.796,8.796-2.748,11.753,1.001
		c3.351,4.247-1.872,8.794-3.792,8.601C477.414,337.201,467.51,334.082,471.997,327.856z"/>
	<path fill-rule="evenodd" clip-rule="evenodd" fill="#967E83" d="M457.162,321.08c4.56-1.718,2.306,0.701,1.354-5.043
		s-2.435,0.683-4.543,4.978C452.875,323.25,454.431,322.109,457.162,321.08z"/>
	<path fill-rule="evenodd" clip-rule="evenodd" fill="#7D6367" d="M495.25,282.915c-4.66-0.18-11.496-0.082-6.04-5.499
		s13.533-24.289,14.616-28.238s0.336,5.673-7.837,24.732C492.684,281.619,494.336,278.737,495.25,282.915z"/>
	<path fill-rule="evenodd" clip-rule="evenodd" fill="#967E83" d="M489.635,278.583c2.047-2.801,6.71-10.833,8.482-14.582
		c2.05-4.335,0.234,0.418-4.454,10.415c-1.683,3.587-1.065,5.58-1.683,5.589C489.688,280.042,488.962,279.503,489.635,278.583z"/>
	<path fill-rule="evenodd" clip-rule="evenodd" fill="#2A100F" d="M364.646,337.743c-2.742-3.487-2.333-3.993-19.673-23.558
		c12.111,22.349,23.113,54.805,22.801,75.642C370.345,360.644,355.817,338.52,364.646,337.743z"/>
	<path fill="#7D6367" d="M385.9,383.896c6.322-5.924,8.852-6.896-3.234,8.021c-2.33,2.876-8.916,2.654-8.416-2.09
		s2.719-12.307,1.836-17.994c-2.159-13.903,4.443-8.722,4.997,12.75C381.243,390.808,382.677,386.917,385.9,383.896z"/>
	<path fill="#967E83" d="M380.026,377.083c0.916,6.033-3.724,13.057-2.856,5.417c0.416-3.667,0.688-4.592,0.499-6.25
		C377.052,370.833,378.217,365.166,380.026,377.083z"/>
	<path fill="#7D6367" d="M410.831,363.336c5.233-4.591,9.499-8.335,12.5-10c6.166-3.419,9.833-2.176-2,5.975
		S405.166,368.306,410.831,363.336z"/>
	<path fill="#7D6367" d="M318.667,455.501c8.506-12.343,19.166-24,9.999-15.167s-15.359,15.896-23.5,26.5
		C298,476.168,310.168,467.834,318.667,455.501z"/>
	<path fill="#7D6367" d="M243.371,526.172c3.937-5.851,6.796-11.668,19.629-20.834s11-0.5,0.697,6.571
		C248.801,522.134,239.262,532.279,243.371,526.172z"/>
	<g>
		<path fill="#64484B" d="M221.808,521.535c6.854-1.813,9.191,5.715,28.509-7.627c-7.15,6.804-19.833,27.036-24.241,24.938
			S215.696,523.152,221.808,521.535z"/>
		<path fill="#472C2D" d="M221.752,521.291c0.606-0.148,1.282-0.255,1.929-0.282c0.653-0.028,1.304,0.022,1.943,0.104
			c1.28,0.17,2.516,0.463,3.768,0.617c2.503,0.34,5.054-0.002,7.465-0.764c2.422-0.746,4.721-1.86,6.955-3.067
			c2.231-1.219,4.391-2.572,6.504-3.991l0,0l0,0.001c-1.672,1.638-3.167,3.442-4.643,5.256c-1.47,1.819-2.902,3.67-4.336,5.519
			c-2.883,3.684-5.701,7.434-8.964,10.823c-0.824,0.839-1.675,1.657-2.619,2.382c-0.474,0.359-0.972,0.695-1.52,0.964
			c-0.544,0.257-1.171,0.476-1.845,0.354c-0.691-0.171-1.13-0.55-1.613-0.931c-0.462-0.39-0.874-0.826-1.259-1.279
			c-0.766-0.913-1.419-1.906-1.999-2.937c-1.142-2.067-2.034-4.291-2.423-6.646c-0.181-1.172-0.237-2.401,0.105-3.59
			c0.173-0.589,0.47-1.164,0.919-1.614c0.442-0.458,1.027-0.756,1.625-0.916l0-0.001L221.752,521.291z M221.869,521.777
			c-1.079,0.258-1.904,1.112-2.19,2.189c-0.31,1.07-0.267,2.241-0.09,3.37c0.374,2.27,1.248,4.458,2.365,6.479
			c0.566,1.008,1.206,1.978,1.945,2.858c0.371,0.438,0.766,0.855,1.199,1.22c0.417,0.347,0.933,0.723,1.388,0.825
			c0.49,0.099,1.04-0.064,1.541-0.3c0.505-0.243,0.986-0.559,1.446-0.902c0.92-0.691,1.769-1.491,2.59-2.313
			c1.637-1.656,3.155-3.437,4.659-5.224c1.5-1.794,2.964-3.618,4.429-5.442c1.465-1.823,2.928-3.651,4.43-5.446
			c1.507-1.79,3.034-3.571,4.734-5.182l0-0.001c-2.081,1.467-4.21,2.87-6.419,4.144c-2.222,1.245-4.516,2.396-6.954,3.186
			c-2.424,0.805-5.033,1.194-7.597,0.882c-1.278-0.139-2.53-0.417-3.777-0.563c-0.624-0.07-1.248-0.109-1.867-0.074
			C223.079,521.52,222.495,521.617,221.869,521.777z"/>
	</g>
	<g>
		<path fill="#64484B" d="M242.219,517.938c3.086-2.327,3.27,16.983,8.781,7.727c3-5.039,5.667-1.991,7.083-3.412
			c-7.845,10.861,1.43,12.16-0.303,30.654C256.102,570.837,238.131,521.021,242.219,517.938z"/>
		<path fill="#472C2D" d="M242.063,517.697c0.167-0.145,0.66-0.352,0.992-0.178c0.35,0.138,0.539,0.394,0.705,0.625
			c0.319,0.479,0.514,0.979,0.702,1.479c0.361,1.004,0.637,2.019,0.928,3.025c0.291,1.006,0.581,2.011,0.955,2.979
			c0.188,0.482,0.397,0.956,0.661,1.392c0.264,0.423,0.596,0.842,1.039,0.982c0.443,0.151,0.929-0.092,1.308-0.414
			c0.387-0.327,0.719-0.73,1.021-1.151c0.587-0.845,1.093-1.803,1.861-2.544c0.731-0.763,1.743-1.301,2.811-1.322
			c0.529-0.026,1.053,0.047,1.574,0.081c0.511,0.039,1.083-0.011,1.464-0.398l0.001-0.001l0,0c-0.944,1.343-1.792,2.766-2.381,4.293
			c-0.596,1.524-0.829,3.177-0.649,4.796c0.167,1.623,0.677,3.191,1.141,4.765c0.475,1.573,0.933,3.16,1.264,4.779
			c0.671,3.235,0.884,6.562,0.725,9.86c-0.124,1.641-0.121,3.308-0.699,4.943c-0.16,0.398-0.355,0.82-0.764,1.127
			c-0.424,0.329-1.046,0.255-1.429,0.031c-0.806-0.443-1.333-1.118-1.847-1.775c-0.999-1.343-1.798-2.795-2.556-4.262
			c-0.752-1.47-1.439-2.97-2.092-4.482c-1.3-3.028-2.461-6.113-3.518-9.232c-1.052-3.121-2.006-6.276-2.783-9.482
			c-0.385-1.604-0.728-3.221-0.958-4.863c-0.112-0.821-0.198-1.649-0.205-2.492c-0.003-0.421,0.018-0.847,0.09-1.278
			c0.088-0.422,0.186-0.901,0.625-1.27L242.063,517.697z M242.392,518.166c-0.212,0.163-0.342,0.542-0.407,0.911
			c-0.064,0.379-0.086,0.777-0.083,1.178c0.005,0.801,0.087,1.611,0.196,2.418c0.225,1.613,0.561,3.217,0.941,4.81
			c0.767,3.185,1.712,6.329,2.756,9.438c1.048,3.108,2.2,6.183,3.489,9.197c0.647,1.506,1.328,2.997,2.071,4.454
			c0.747,1.452,1.539,2.892,2.502,4.189c0.484,0.632,1.019,1.279,1.667,1.63c0.325,0.172,0.648,0.196,0.901,0.01
			c0.26-0.188,0.448-0.538,0.586-0.896c0.534-1.48,0.553-3.165,0.674-4.786c0.203-3.263,0.039-6.551-0.581-9.764
			c-0.306-1.607-0.738-3.189-1.19-4.769c-0.442-1.579-0.935-3.167-1.083-4.825c-0.168-1.654,0.11-3.343,0.756-4.863
			c0.634-1.526,1.519-2.928,2.497-4.247l0,0l-0.001,0.001c-0.371,0.396-0.952,0.463-1.466,0.436
			c-0.525-0.022-1.048-0.083-1.568-0.045c-1.05,0.047-2.011,0.59-2.71,1.352c-0.735,0.744-1.201,1.68-1.785,2.568
			c-0.298,0.438-0.627,0.86-1.034,1.222c-0.389,0.348-0.959,0.68-1.559,0.502c-0.58-0.177-0.943-0.648-1.239-1.089
			c-0.292-0.457-0.519-0.941-0.723-1.431c-0.406-0.981-0.723-1.987-1.038-2.989c-0.315-1-0.616-2.006-0.989-2.968
			c-0.19-0.477-0.396-0.955-0.672-1.344c-0.136-0.188-0.299-0.359-0.447-0.411c-0.074-0.03-0.138-0.035-0.215-0.014
			c-0.069,0.013-0.133,0.049-0.262,0.136L242.392,518.166z"/>
	</g>
	<path fill="#7D6367" d="M226.666,523.487c2.392,2.07,4.708,7.55,7.5,4.532s7.347-7.168,2.386-5.643
		C230.625,524.199,222.93,520.252,226.666,523.487z"/>
	<g>
		<path fill-rule="evenodd" clip-rule="evenodd" fill="#64484B" d="M230.041,529.213c-1.537-1.479-2.721-4.048-4.475-6.036
			c-0.869-0.984-1.503-1.539-2.002-1.817c0.616,6.752,7.787,25.11,12.879,32.697C235.093,544.301,232.664,535.842,230.041,529.213z"
			/>
		<path fill-rule="evenodd" clip-rule="evenodd" fill="#64484B" d="M236.467,554.245c-7.392-4.884-14.653-25.045-16.371-32.005
			c-0.716,0.03-1.678-0.216-3.101-1.063c-0.491-0.292-0.957-0.435-1.396-0.461c2.636,8.495,16.125,32.662,20.953,34.192
			C236.521,554.688,236.497,554.464,236.467,554.245z"/>
		<path fill-rule="evenodd" clip-rule="evenodd" fill="#967E83" d="M226.83,549.31c-4.869-4.531-7.941-10.024-14.541-16.33
			c0.186,0.681,0.404,1.357,0.68,2.015c3.028,7.213,5.355,9.306,4.19,19.151c-0.974,8.227,1.843,9.77,6.877,14.133
			C225.764,554.556,232.866,554.927,226.83,549.31z"/>
		<path fill-rule="evenodd" clip-rule="evenodd" fill="#7D6367" d="M236.858,557.306c-0.089-0.814-0.198-1.605-0.306-2.397
			c-4.828-1.53-18.317-25.697-20.953-34.192c-3.224-0.188-4.941,6.287-3.31,12.264c6.6,6.306,9.672,11.799,14.541,16.33
			c6.036,5.617-1.066,5.246-2.794,18.969c0.991,0.859,2.06,1.816,3.211,2.968c3.229,3.228,6.968,7.668,9.698,10.431
			c0.1-0.971,0.172-1.927,0.247-2.885C230.102,567.438,229.373,560.571,236.858,557.306z"/>
		<path fill-rule="evenodd" clip-rule="evenodd" fill="#7D6367" d="M236.443,554.057c-5.092-7.587-12.263-25.945-12.879-32.697
			c-1.494-0.832-1.782,0.809-3.468,0.881c1.718,6.96,8.979,27.121,16.371,32.005C236.458,554.183,236.452,554.119,236.443,554.057z"
			/>
		<path fill-rule="evenodd" clip-rule="evenodd" fill="#2A100F" d="M258.732,568.623c0.202-1.423-0.781-2.977-3.743-4.58
			c-10.63-5.757-0.445-2.014,2.012-8.034c0.966-2.366,1.76-10.677-5.338-14.511c-10.104-5.458-5.818-25.051-9.246-23.924
			c-0.812,13.097-3.025,28.042-6.218,34.675c0.286,1.846,0.522,3.752,0.724,5.693C241.955,566.563,251.341,567.849,258.732,568.623z
			"/>
		<path fill-rule="evenodd" clip-rule="evenodd" fill="#7D6367" d="M236.945,581.677c1.911,1.934,3.319,3.03,3.718,2.323
			c-1.042-1.485-2.255-11.669-3.127-13.028c-0.2-0.312-0.144,8.141-0.334,7.835C237.128,579.757,237.045,580.713,236.945,581.677z"
			/>
		<path fill-rule="evenodd" clip-rule="evenodd" fill="#64484B" d="M236.858,557.306c-7.485,3.266-6.756,10.132,0.335,21.486
			c2.078,3.15-0.514-0.835,2.078,3.15C239.756,574.762,237.548,563.61,236.858,557.306z"/>
		<path fill-rule="evenodd" clip-rule="evenodd" fill="#472C2D" d="M236.923,557.942c0.675,6.483,0.216,18.659,0.907,20.85
			s1.553,3.383,2.833,5.208c0.266-0.475,0.084-1.749-0.719-4.152c-0.953-2.851,3.093-3.563,6.977-4.249
			c2.802-0.494,11.289-3.294,11.812-6.976C251.341,567.849,241.955,566.563,236.923,557.942z"/>
		<path fill-rule="evenodd" clip-rule="evenodd" fill="#472C2D" d="M239.996,519.966c-3.137,4.256-1.803,7.65-3.791,9.04
			c-2.912,2.035-4.699,1.617-6.165,0.207c2.461,6.222,4.766,14.037,6.159,23.036c3.193-6.633,5.407-21.578,6.218-34.675
			C241.852,517.761,241.083,518.491,239.996,519.966z"/>
		<path fill-rule="evenodd" clip-rule="evenodd" fill="#472C2D" d="M236.923,557.942c-0.202-1.941-0.438-3.848-0.724-5.693
			c3.382-4.835,11.465-13.086,13.798-3.252S241.266,558.971,236.923,557.942z"/>
		<path fill-rule="evenodd" clip-rule="evenodd" fill="#64484B" d="M236.83,557.942c-0.202-1.941-0.435-3.758-0.721-5.604
			c1.967-2.523,7.222-6.546,7.722-1.148C244.403,557.361,241.275,557.497,236.83,557.942z"/>
		<path fill-rule="evenodd" clip-rule="evenodd" fill="none" d="M250.143,544.747"/>
	</g>
	<g>
		<path fill="#967E83" d="M216.998,521.18c0,0,0.13,0.065,0.375,0.189c0.247,0.114,0.592,0.332,1.077,0.486
			c0.236,0.093,0.499,0.19,0.801,0.235c0.295,0.082,0.624,0.082,0.967,0.068c0.34-0.056,0.692-0.154,1.018-0.371
			c0.34-0.189,0.635-0.493,1.075-0.683c0.458-0.211,0.994-0.05,1.415,0.188c0.424,0.254,0.794,0.585,1.174,0.927
			c0.722,0.719,1.426,1.51,2.076,2.416c0.625,0.896,1.271,1.824,1.927,2.766c0.675,0.905,1.408,1.805,2.341,2.359
			c0.945,0.555,2.124,0.448,3.141,0.021c0.252-0.118,0.515-0.211,0.757-0.349l0.714-0.432c0.129-0.084,0.225-0.12,0.332-0.219
			c0.099-0.092,0.237-0.173,0.3-0.271c0.164-0.177,0.304-0.399,0.418-0.633c0.431-0.958,0.537-2.041,0.788-3.013
			c0.231-0.982,0.541-1.893,0.914-2.691c0.378-0.797,0.812-1.481,1.232-2.058c0.429-0.571,0.812-1.056,1.165-1.43
			c0.334-0.387,0.651-0.644,0.865-0.811c0.229-0.15,0.351-0.23,0.351-0.23s-0.12,0.084-0.343,0.24
			c-0.208,0.173-0.516,0.437-0.837,0.832c-0.338,0.378-0.712,0.879-1.119,1.456c-0.401,0.584-0.81,1.272-1.161,2.069
			c-0.344,0.798-0.623,1.7-0.823,2.676c-0.225,0.973-0.286,2.037-0.723,3.101c-0.119,0.261-0.263,0.516-0.473,0.752
			c-0.095,0.134-0.207,0.196-0.311,0.297c-0.096,0.096-0.255,0.186-0.36,0.256l-0.728,0.468c-0.248,0.151-0.525,0.26-0.789,0.392
			c-1.06,0.488-2.423,0.663-3.575,0.079c-1.122-0.598-1.868-1.597-2.52-2.546c-0.627-0.964-1.243-1.912-1.84-2.83
			c-0.599-0.895-1.277-1.709-1.955-2.429c-0.677-0.66-1.475-1.415-2.262-1.124c-0.377,0.143-0.699,0.441-1.061,0.631
			c-0.351,0.218-0.745,0.309-1.107,0.351c-0.365-0.001-0.708-0.019-1.005-0.116c-0.308-0.06-0.57-0.172-0.806-0.276
			c-0.484-0.18-0.814-0.411-1.058-0.537C217.125,521.251,216.998,521.18,216.998,521.18z"/>
	</g>
	<g>
		<path fill="#2A100F" d="M246.924,575.602c0,0-0.766,0.269-1.915,0.602c-0.572,0.173-1.242,0.358-1.93,0.604
			c-0.345,0.118-0.701,0.24-1.036,0.4c-0.34,0.151-0.671,0.32-0.958,0.524c-0.291,0.2-0.521,0.44-0.659,0.698
			c-0.173,0.25-0.159,0.55-0.174,0.848c0.043,0.29,0.134,0.661,0.209,0.995c0.069,0.337,0.146,0.652,0.196,0.949
			c0.046,0.3,0.125,0.557,0.118,0.822c0.011,0.255,0.018,0.475,0.016,0.654c0.003,0.358-0.01,0.556-0.01,0.556
			s-0.071-0.191-0.194-0.526c-0.054-0.163-0.119-0.36-0.194-0.588c-0.058-0.222-0.189-0.479-0.297-0.756
			c-0.12-0.276-0.228-0.583-0.353-0.904c-0.129-0.321-0.234-0.646-0.345-1.09c-0.051-0.438-0.031-0.953,0.22-1.386
			c0.215-0.447,0.584-0.771,0.951-1.017c0.372-0.247,0.758-0.443,1.149-0.576c0.388-0.149,0.773-0.255,1.146-0.347
			c0.749-0.177,1.449-0.274,2.05-0.34C246.115,575.596,246.924,575.602,246.924,575.602z"/>
	</g>
	<g>
		<path fill="#967E83" d="M258.136,570.052c0,0,0.109-0.19,0.242-0.534c0.14-0.334,0.27-0.858,0.177-1.445
			c-0.046-0.292-0.155-0.596-0.325-0.891c-0.155-0.303-0.401-0.578-0.653-0.859c-0.26-0.276-0.568-0.528-0.884-0.782
			c-0.325-0.245-0.664-0.483-1.021-0.701c-0.698-0.443-1.461-0.849-2.14-1.282c-0.684-0.424-1.306-0.848-1.821-1.24
			c-0.518-0.387-0.917-0.759-1.175-1.039c-0.27-0.28-0.306-0.52-0.293-0.516c-0.013,0.006,0.078,0.205,0.383,0.42
			c0.288,0.23,0.75,0.494,1.299,0.813c0.558,0.309,1.208,0.667,1.905,1.052c0.699,0.381,1.451,0.768,2.201,1.229
			c0.733,0.469,1.442,1.008,1.983,1.657c0.269,0.323,0.508,0.662,0.66,1.028c0.169,0.355,0.25,0.731,0.26,1.076
			c0.021,0.346-0.052,0.657-0.14,0.914c-0.09,0.256-0.197,0.465-0.302,0.627c-0.094,0.169-0.197,0.274-0.258,0.354
			C258.17,570.01,258.136,570.052,258.136,570.052z"/>
	</g>
	<g>
		<path fill="#60343C" d="M257.005,556.012c0,0-0.011,0.057-0.031,0.164c-0.018,0.109-0.051,0.261-0.118,0.459
			c-0.134,0.39-0.382,0.943-0.863,1.488c-0.473,0.547-1.167,1.06-1.975,1.43c-0.806,0.368-1.708,0.638-2.559,0.88
			c-0.209,0.063-0.418,0.128-0.593,0.204c-0.18,0.064-0.291,0.2-0.247,0.125l-0.002-0.004l-0.001-0.001
			c-0.023-0.176-0.005-0.046-0.01-0.084l0.002,0.011l0.011,0.04l0.021,0.08c0.01,0.067,0.03,0.101,0.052,0.104
			c0.05,0.033,0.031,0.061,0.123,0.141c0.133,0.139,0.275,0.275,0.441,0.4c0.309,0.26,0.651,0.487,0.959,0.714
			c0.319,0.219,0.621,0.425,0.9,0.615c0.564,0.377,1.035,0.692,1.364,0.912c0.327,0.227,0.514,0.356,0.514,0.356
			s-0.844-0.337-2.072-0.933c-0.312-0.139-0.634-0.323-0.982-0.504c-0.344-0.194-0.71-0.385-1.071-0.646
			c-0.184-0.115-0.367-0.262-0.549-0.425c-0.083-0.054-0.209-0.225-0.299-0.361c-0.056-0.079-0.085-0.144-0.094-0.188l-0.026-0.079
			l-0.013-0.04l-0.003-0.01c-0.006-0.041,0.011,0.085-0.013-0.094l0-0.012l0.003-0.045c0.01-0.257,0.174-0.45,0.294-0.546
			c0.129-0.112,0.248-0.171,0.366-0.233c0.233-0.114,0.454-0.193,0.674-0.271c0.872-0.3,1.711-0.543,2.442-0.899
			c0.734-0.339,1.358-0.738,1.859-1.136c0.49-0.406,0.866-0.811,1.107-1.115C256.866,556.207,257.005,556.012,257.005,556.012z"/>
	</g>
	<g>
		<path fill="#60343C" d="M232.438,530.398c0,0,0.274-0.054,0.754-0.148c0.231-0.071,0.489-0.201,0.782-0.306
			c0.29-0.135,0.602-0.353,0.948-0.533c0.313-0.229,0.653-0.479,1.013-0.741c0.18-0.163,0.362-0.342,0.426-0.479
			c0.093-0.15,0.198-0.351,0.268-0.562c0.301-0.852,0.387-1.983,0.655-3.088c0.11-0.559,0.303-1.108,0.503-1.639
			c0.226-0.524,0.488-1.021,0.788-1.472c0.604-0.897,1.299-1.619,1.872-2.217c0.579-0.605,1.074-1.093,1.468-1.375
			c0.395-0.29,0.682-0.321,0.682-0.321s-0.067,0.018-0.192,0.052c-0.12,0.046-0.295,0.126-0.484,0.277
			c-0.389,0.288-0.855,0.808-1.307,1.498c-0.459,0.698-0.899,1.553-1.261,2.489c-0.354,0.942-0.652,1.941-0.907,2.98
			c-0.27,1.035-0.38,2.138-0.859,3.216c-0.113,0.271-0.271,0.518-0.477,0.762c-0.227,0.274-0.423,0.404-0.611,0.542
			c-0.495,0.292-0.866,0.467-1.264,0.664c-0.414,0.146-0.779,0.285-1.125,0.366c-0.36,0.057-0.666,0.102-0.909,0.113
			C232.715,530.428,232.438,530.398,232.438,530.398z"/>
	</g>
	<g>
		<path fill="#60343C" d="M216.998,521.18c0,0,0.103,0.021,0.282,0.061c0.176,0.038,0.426,0.124,0.718,0.192
			c0.288,0.072,0.614,0.152,0.961,0.217c0.172,0.049,0.349,0.042,0.523,0.069c0.173,0.026,0.342,0.012,0.508,0.011
			c0.16-0.027,0.318-0.034,0.462-0.082c0.147-0.04,0.284-0.093,0.417-0.173c0.263-0.146,0.558-0.31,0.878-0.433
			c0.166-0.062,0.326-0.104,0.487-0.111c0.146-0.028,0.3,0.022,0.398,0.034c0.213,0.087,0.297,0.17,0.297,0.17
			s-0.117,0.076-0.254,0.173c-0.143,0.116-0.264,0.272-0.448,0.478c-0.089,0.116-0.208,0.21-0.34,0.343
			c-0.14,0.116-0.303,0.242-0.509,0.339c-0.194,0.102-0.43,0.186-0.664,0.237c-0.239,0.061-0.482,0.073-0.724,0.064
			c-0.962-0.062-1.713-0.521-2.224-0.891c-0.257-0.183-0.431-0.369-0.567-0.491C217.071,521.255,216.998,521.18,216.998,521.18z"/>
	</g>
	<path fill="#2A100F" d="M286.167,573.106"/>
	<path fill-rule="evenodd" clip-rule="evenodd" fill="#64484B" d="M255.469,560.188c-0.473,0.811-0.312,2.312,0,2.969
		s2.307,1.634,1.812,0.89C256.062,562.213,255.906,559.438,255.469,560.188z"/>
	<path fill="#7D6367" d="M245.291,525.081c-0.439-1.362-0.382,1.114,0.208,3.916c0.77,3.648,2.291,7.968,3.21,6.294
		c1.625-2.958,2.945-7.696,5.917-10.958c1.708-1.875-1.667-0.625-4.308,3.687C248.571,530.869,246.271,528.124,245.291,525.081z"/>
	<path fill="#967E83" d="M246.166,527.372c-0.5-0.698-0.917-1.666-0.583,0.417c0.188,1.179,0.917,3.749,1.083,3.208
		S247.733,529.562,246.166,527.372z"/>
	<path fill="#7D6367" d="M255.048,543.312c2.038,2.731,2.365,1.314,1.698-2.144s-2.364-6.833-3.406-3.458
		S253.716,541.527,255.048,543.312z"/>
	<path fill="#967E83" d="M256.673,543.312c0.125,1.681-0.705,0.079-1.654-0.81C254.173,541.71,256.464,540.496,256.673,543.312z"/>
	<path fill="#7D6367" d="M229.608,518.711"/>
	<path fill="#967E83" d="M228.083,524.461c-1.119-1.133-1.686-1.709,0.199-1.542s4.302,0.708,2.843,1.958
		S228.876,525.265,228.083,524.461z"/>
	<path fill="#967E83" d="M258.084,510.75c2.045-1.459,11.555-8.087,7.166-2.375c-2.428,3.159-4.683,3.441-8.029,5.533
		S256.787,511.675,258.084,510.75z"/>
</g>
<g id="Layer_4">
	<g>
		<path fill="#3A4000" d="M394.415,385.844c25.335-5.844,94.559,9.032,110.505,71.713c4.83,18.986-14.497,10.01-15.67,2.942
			c-4.345-26.178-42.946-78.086-94.111-72.5c17.611,24,41.984,5.796,72.182,89.972c6.597,18.39-8.427,11.9-10.867,5.294
			c-19.953-54.016-62.779-85.874-64.028-94.592c-2.316,43.895-26.341,44.525-12.196,135.326
			c4.513,28.968-16.504,16.353-18.405,1.959c-10.522-79.657,20.374-91.458,27.616-136.132"/>
		<path fill="#1D2000" d="M394.415,385.844c3.061-0.722,6.206-1.039,9.345-1.188c3.144-0.167,6.294-0.042,9.435,0.156
			c6.277,0.476,12.511,1.52,18.626,3.042c6.115,1.527,12.093,3.598,17.881,6.101c5.785,2.512,11.373,5.495,16.654,8.958
			c5.276,3.467,10.272,7.392,14.768,11.843c4.507,4.436,8.559,9.339,12.047,14.617c3.492,5.275,6.416,10.922,8.765,16.8l1.598,4.469
			c0.283,0.739,0.509,1.497,0.72,2.26l0.659,2.279l0.658,2.298c0.165,0.775,0.374,1.508,0.487,2.333
			c0.267,1.608,0.427,3.235,0.152,4.915c-0.171,0.828-0.364,1.684-0.857,2.447c-0.464,0.76-1.14,1.442-1.965,1.843
			c-1.674,0.79-3.484,0.636-5.076,0.233c-1.601-0.443-3.099-1.143-4.459-2.044c-1.355-0.907-2.622-1.967-3.639-3.29
			c-0.516-0.651-0.964-1.378-1.272-2.192c-0.323-0.857-0.405-1.631-0.574-2.393c-0.143-0.777-0.309-1.54-0.52-2.274
			c-0.204-0.743-0.367-1.491-0.624-2.229c-0.882-2.98-2.084-5.866-3.371-8.705c-2.626-5.661-5.832-11.058-9.47-16.143
			c-3.632-5.089-7.655-9.903-12.028-14.378c-8.775-8.897-19.029-16.46-30.511-21.489c-5.723-2.53-11.748-4.408-17.932-5.462
			c-6.181-1.063-12.513-1.275-18.768-0.649l-0.005,0l0,0c1.642,2.154,3.456,4.173,5.473,5.975c2.008,1.813,4.237,3.362,6.539,4.773
			c4.615,2.816,9.557,5.071,14.188,7.914c4.641,2.814,8.979,6.166,12.81,10.021c3.843,3.847,7.247,8.11,10.319,12.584
			c3.074,4.476,5.846,9.155,8.354,13.965c1.31,2.377,2.445,4.842,3.662,7.266c1.131,2.464,2.294,4.915,3.365,7.406
			c2.153,4.977,4.198,10,6.091,15.08c0.923,2.55,1.969,5.042,2.717,7.692c0.353,1.332,0.67,2.676,0.762,4.079
			c0.09,1.381,0.014,2.896-0.831,4.219c-0.436,0.649-1.139,1.137-1.884,1.339c-0.749,0.208-1.51,0.185-2.225,0.067
			c-1.434-0.262-2.72-0.891-3.892-1.654c-1.168-0.773-2.222-1.715-3.111-2.809c-0.438-0.553-0.831-1.147-1.154-1.789
			c-0.31-0.676-0.524-1.282-0.774-1.921c-1.876-5.091-4.067-10.001-6.402-14.882c-2.336-4.871-4.92-9.622-7.672-14.271
			c-2.755-4.649-5.675-9.2-8.74-13.653c-6.155-8.893-12.92-17.356-20.022-25.521c-3.532-4.101-7.161-8.119-10.763-12.163
			c-1.796-2.026-3.591-4.056-5.306-6.154c-0.851-1.054-1.698-2.113-2.451-3.241c-0.745-1.118-1.517-2.285-1.761-3.631l-0.005-0.017
			l0,0c-0.486,6.663-1.156,13.35-2.83,19.845c-1.575,6.508-3.75,12.851-5.847,19.197c-2.164,6.326-3.932,12.778-5.221,19.326
			l-0.858,4.932c-0.298,1.643-0.397,3.313-0.606,4.969c-0.164,1.66-0.407,3.313-0.508,4.979l-0.244,5.002l-0.123,2.501l-0.062,1.25
			l0.007,1.253l0.037,5.009c0.021,1.669,0.005,3.34,0.058,5.008l0.29,5.002c0.258,6.679,1.074,13.316,1.73,19.965
			c0.842,6.635,1.858,13.224,2.729,19.875c0.166,1.684,0.298,3.368,0.255,5.062c-0.004,1.691-0.202,3.4-0.664,5.061
			c-0.11,0.417-0.24,0.829-0.43,1.227l-0.258,0.602l-0.344,0.567c-0.444,0.762-1.101,1.428-1.878,1.897
			c-0.775,0.505-1.718,0.655-2.605,0.675c-0.903-0.002-1.766-0.236-2.585-0.531c-1.633-0.63-3.046-1.651-4.311-2.793
			c-1.26-1.153-2.362-2.465-3.312-3.876c-1.897-2.812-3.183-6.093-3.48-9.492c-0.65-6.657-1.56-13.284-1.712-20.001l-0.239-5.021
			c-0.06-0.837-0.051-1.674-0.03-2.512l0.037-2.513l0.076-5.024l0.039-2.513l0.208-2.505c0.452-6.685,1.288-13.353,2.742-19.896
			l1.125-4.899c0.39-1.629,0.943-3.215,1.406-4.824l0.728-2.406l0.363-1.202l0.434-1.18l1.735-4.715
			c0.544-1.586,1.261-3.102,1.892-4.652c0.662-1.537,1.27-3.1,1.984-4.612c1.386-3.046,2.766-6.095,4.2-9.114
			c1.438-3.021,2.8-6.071,4.183-9.115c1.26-3.094,2.656-6.136,3.711-9.309c0.542-1.58,1.179-3.13,1.642-4.735l1.381-4.819
			c0.512-1.595,0.811-3.241,1.151-4.877l1.018-4.912l-0.969,4.922c-0.325,1.641-0.609,3.292-1.104,4.892l-1.335,4.838
			c-0.448,1.612-1.07,3.169-1.598,4.757c-1.025,3.19-2.394,6.249-3.625,9.361c-1.354,3.059-2.688,6.129-4.097,9.162
			c-1.404,3.036-2.787,6.079-4.156,9.128c-0.709,1.514-1.309,3.073-1.965,4.609c-0.623,1.549-1.334,3.064-1.87,4.646l-1.714,4.705
			l-0.428,1.177l-0.358,1.199l-0.716,2.398c-0.456,1.604-1.002,3.186-1.385,4.81l-1.104,4.882c-1.426,6.52-2.235,13.161-2.663,19.82
			l-0.198,2.495l-0.031,2.504l-0.059,5.007l-0.028,2.503c-0.019,0.835-0.024,1.669,0.038,2.502l0.256,4.998
			c0.171,6.67,1.104,13.312,1.776,19.964c0.298,3.275,1.541,6.417,3.386,9.135c0.921,1.359,1.99,2.621,3.201,3.721
			c1.212,1.09,2.565,2.053,4.063,2.623c1.48,0.562,3.167,0.707,4.488-0.088c1.335-0.764,2.104-2.288,2.557-3.813
			c0.438-1.557,0.641-3.202,0.648-4.853c0.048-1.649-0.076-3.307-0.23-4.95c-0.843-6.613-1.843-13.253-2.661-19.89
			c-0.635-6.665-1.428-13.315-1.664-20.013l-0.272-5.015c-0.047-1.674-0.024-3.35-0.04-5.023l-0.02-5.023l-0.002-1.256l0.065-1.254
			l0.132-2.51l0.264-5.018c0.106-1.671,0.355-3.331,0.526-4.997c0.216-1.661,0.322-3.337,0.627-4.985l0.879-4.948
			c1.317-6.568,3.114-13.041,5.305-19.363c2.163-6.331,4.397-12.636,6.037-19.117c1.736-6.466,2.474-13.136,3.028-19.796l0,0
			l0.005,0.017c0.265,1.341,1.05,2.493,1.811,3.597c0.768,1.113,1.629,2.159,2.494,3.198c1.743,2.069,3.565,4.071,5.391,6.07
			c3.659,3.99,7.349,7.955,10.945,12.007c7.181,8.114,14.028,16.54,20.276,25.408c3.122,4.436,6.075,8.991,8.847,13.655
			c2.775,4.661,5.384,9.426,7.744,14.313c2.353,4.879,4.591,9.865,6.474,14.934c0.244,0.621,0.489,1.29,0.746,1.844
			c0.289,0.566,0.646,1.105,1.05,1.612c0.82,1.005,1.812,1.887,2.901,2.604c1.091,0.709,2.292,1.279,3.532,1.5
			c1.228,0.22,2.512-0.023,3.162-1.004c0.641-0.98,0.772-2.323,0.683-3.613c-0.077-1.305-0.377-2.612-0.71-3.896
			c-0.71-2.568-1.748-5.088-2.655-7.631c-1.864-5.078-3.878-10.098-6.001-15.07c-1.056-2.489-2.203-4.938-3.318-7.399
			c-1.2-2.421-2.32-4.883-3.612-7.256c-2.476-4.804-5.212-9.474-8.246-13.939c-3.033-4.464-6.394-8.714-10.188-12.55
			c-3.78-3.85-8.071-7.177-12.659-10.02c-4.562-2.893-9.474-5.22-14.066-8.112c-2.29-1.449-4.507-3.036-6.495-4.883
			c-1.997-1.836-3.784-3.885-5.395-6.062l0,0l0.005,0c6.242-0.737,12.593-0.639,18.82,0.319c6.23,0.949,12.33,2.729,18.144,5.178
			c11.626,4.954,22.045,12.478,30.989,21.367c4.47,4.461,8.552,9.306,12.231,14.439c3.691,5.125,6.952,10.568,9.636,16.304
			c1.315,2.876,2.547,5.805,3.461,8.851c0.262,0.747,0.439,1.536,0.652,2.308c0.224,0.776,0.394,1.548,0.537,2.316
			c0.168,0.77,0.276,1.574,0.521,2.184c0.249,0.655,0.634,1.284,1.095,1.861c1.852,2.308,4.564,4.053,7.413,4.847
			c1.422,0.362,2.944,0.432,4.148-0.152c1.198-0.589,1.876-1.884,2.11-3.312c0.246-1.431,0.109-2.984-0.135-4.465
			c-0.093-0.734-0.31-1.52-0.469-2.281l-0.636-2.234l-0.643-2.251c-0.206-0.753-0.426-1.502-0.703-2.231l-1.562-4.413
			c-2.299-5.805-5.165-11.381-8.593-16.596c-6.836-10.456-15.966-19.345-26.364-26.285c-10.404-6.952-22.029-12.059-34.139-15.282
			c-6.055-1.616-12.243-2.761-18.491-3.341c-3.126-0.25-6.266-0.428-9.403-0.313C400.631,384.912,397.49,385.174,394.415,385.844z"
			/>
	</g>
	<g>
		<path fill="#1D2000" d="M394.438,385.843l-4.976,3.983c-0.496,3.063-1.107,5.968-1.806,8.755c1.777-1.692,2.608-1.497,4.202-3.815
			c0.209-1.941,0.477-3.964,0.589-6.093c0.325,2.269,3.472,6.11,8.294,11.498c0.229-1.949,0.01-4.397-0.543-6.504
			c-1.736-1.607-3.416-3.457-5.037-5.667c3.254-0.355,6.457-0.476,9.604-0.387c1.709-0.721,2.471-1.831,4.202-2.892
			C403.316,384.533,398.353,384.94,394.438,385.843z"/>
		<path fill="#1D2000" d="M394.493,385.959l-4.952,3.964l0.045-0.078l-0.873,4.389l-1.056,4.346l0,0l0,0
			c0.354-0.319,0.709-0.635,1.095-0.917c0.382-0.283,0.781-0.543,1.165-0.825c0.187-0.147,0.383-0.283,0.552-0.451
			c0.177-0.159,0.354-0.319,0.506-0.503c0.156-0.179,0.324-0.349,0.459-0.546l0.426-0.573l0,0v0l0.274-3.049l0.189-3.05l0.053-0.843
			l0.196,0.832v0c0.191,1.142,0.829,2.187,1.452,3.183c0.649,0.993,1.366,1.944,2.103,2.878c1.482,1.863,3.044,3.663,4.615,5.454
			l0,0c0.226-2.177-0.006-4.388-0.543-6.504v0l0,0c-0.46-0.435-0.927-0.863-1.382-1.303c-0.438-0.457-0.887-0.905-1.317-1.37
			c-0.417-0.477-0.842-0.948-1.252-1.432l-1.187-1.488l0,0l-0.137-0.178l0.224-0.021l2.399-0.22l2.404-0.138l2.408-0.056
			l2.409,0.026l-0.053,0.01c0.387-0.162,0.764-0.347,1.124-0.565c0.355-0.228,0.7-0.474,1.037-0.734
			c0.672-0.522,1.352-1.048,2.09-1.477l0,0c-1.218-0.019-2.435-0.031-3.652-0.001c-1.216,0.03-2.433,0.082-3.645,0.179
			c-0.607,0.035-1.212,0.107-1.816,0.168c-0.606,0.053-1.207,0.149-1.809,0.229c-0.604,0.072-1.198,0.199-1.798,0.297
			C395.659,385.695,395.078,385.836,394.493,385.959z M394.41,385.721c0.601-0.115,1.196-0.25,1.799-0.347
			c0.604-0.088,1.204-0.206,1.812-0.268c0.605-0.069,1.21-0.155,1.818-0.198c0.607-0.05,1.214-0.112,1.823-0.137
			c1.217-0.076,2.435-0.107,3.653-0.116c1.218-0.009,2.436,0.024,3.652,0.064l0,0c-0.717,0.465-1.364,1.018-2.011,1.574
			c-0.325,0.278-0.662,0.543-1.014,0.794c-0.358,0.242-0.736,0.452-1.129,0.639l-0.021,0.01l-0.031,0l-2.399-0.026l-2.4,0.056
			l-2.396,0.138l-2.391,0.219l0.087-0.198l0,0l1.131,1.519c0.393,0.494,0.8,0.977,1.2,1.467c0.414,0.477,0.846,0.938,1.269,1.409
			c0.439,0.454,0.892,0.897,1.337,1.347l0,0v0c0.537,2.116,0.769,4.327,0.543,6.504l0,0c-1.603-1.763-3.195-3.535-4.712-5.375
			c-0.755-0.923-1.49-1.864-2.162-2.853c-0.646-0.999-1.313-2.028-1.544-3.251l0,0l0.249-0.011l-0.315,3.05l-0.398,3.036v0l0,0
			l-0.426,0.573c-0.135,0.197-0.303,0.367-0.459,0.546c-0.152,0.185-0.329,0.344-0.506,0.503c-0.169,0.168-0.365,0.304-0.552,0.451
			c-0.384,0.282-0.783,0.542-1.165,0.825c-0.386,0.281-0.74,0.598-1.095,0.917l0,0l0,0l0.933-4.371l0.75-4.404l0,0l0.009-0.048
			l0.036-0.029l5-4.002L394.41,385.721z"/>
	</g>
	<g>
		<path fill="#6B750B" d="M391.188,385.844c24.067-19.232,60.714-17.337,86.322-6.898c16.489,6.721-0.14,15.239-8.343,7.39
			c-13.5-12.917-47.915-13.898-69.714-0.492c26.879,3.156,32.371,10.835,33.792,14.496s-16.505,14.18-16.542,4.42
			s-8.973-14.193-20.371-14.933c6.667,13.84,2.377,36.939-5.145,54.89s-12.787,0.976-7.52-2.741s16.476-25.058,8.756-52.148
			c-11.425,13.506-33.56,8.798-29.05,24.548c4.51,15.75-12.074,7-12.074-0.396c0-16.578,20.304-13.325,34.668-24.151
			C388.084,389.917,392.333,386.583,391.188,385.844z"/>
		<path fill="#404609" d="M391.188,385.844c6.214-5.067,13.477-8.8,21.126-11.238c7.663-2.434,15.701-3.584,23.733-3.775
			c8.039-0.193,16.096,0.619,23.961,2.292c3.934,0.834,7.822,1.882,11.642,3.149c1.912,0.624,3.798,1.329,5.669,2.068
			c1.868,0.743,3.755,1.619,5.393,2.922c0.811,0.655,1.581,1.446,2.038,2.494c0.227,0.52,0.339,1.12,0.28,1.714
			c-0.05,0.596-0.292,1.157-0.609,1.631c-0.663,0.942-1.606,1.551-2.571,1.982c-0.974,0.429-2.002,0.679-3.037,0.806
			c-2.072,0.249-4.196-0.011-6.143-0.768c-0.973-0.377-1.898-0.883-2.737-1.509c-0.852-0.642-1.533-1.343-2.3-1.996
			c-3.008-2.492-6.604-4.319-10.324-5.655c-3.741-1.323-7.639-2.194-11.582-2.727c-3.942-0.548-7.936-0.741-11.921-0.631
			c-3.985,0.105-7.968,0.493-11.895,1.208c-3.927,0.703-7.815,1.668-11.587,2.992c-3.767,1.333-7.425,2.996-10.87,5.04l0,0l0.006,0
			c1.838,0.226,3.686,0.403,5.521,0.669c1.832,0.286,3.673,0.531,5.49,0.915c1.828,0.329,3.626,0.804,5.432,1.247l2.675,0.797
			c0.891,0.269,1.758,0.616,2.639,0.92c0.88,0.31,1.723,0.717,2.587,1.071c0.844,0.401,1.678,0.829,2.496,1.285
			c1.624,0.935,3.169,2.034,4.517,3.368c0.333,0.338,0.67,0.672,0.957,1.054c0.312,0.36,0.59,0.748,0.846,1.153
			c0.275,0.391,0.484,0.828,0.703,1.253c0.099,0.233,0.188,0.412,0.295,0.689c0.033,0.089,0.07,0.254,0.084,0.427
			c0.005,0.147-0.003,0.292-0.026,0.429c-0.232,1.09-0.907,1.828-1.548,2.531c-0.666,0.689-1.397,1.294-2.16,1.852
			c-1.537,1.096-3.196,2.008-4.956,2.697c-1.754,0.652-3.653,1.209-5.634,0.84c-0.973-0.188-1.954-0.794-2.438-1.717
			c-0.505-0.896-0.585-1.944-0.586-2.854c-0.028-1.819-0.405-3.613-1.166-5.254c-0.772-1.635-1.949-3.065-3.353-4.224
			c-1.409-1.159-3.031-2.053-4.728-2.756c-3.4-1.419-7.088-2.093-10.773-2.41l0,0l0.002,0.005c1.25,2.572,2.099,5.33,2.629,8.143
			c0.272,1.405,0.468,2.825,0.599,4.251c0.143,1.425,0.202,2.857,0.233,4.289c0.081,5.732-0.578,11.458-1.686,17.079
			c-1.118,5.623-2.665,11.16-4.604,16.56c-0.486,1.35-0.987,2.694-1.525,4.025c-0.527,1.336-1.097,2.666-1.772,3.961
			c-0.677,1.289-1.435,2.558-2.473,3.683c-0.527,0.551-1.135,1.082-1.94,1.409c-0.791,0.354-1.898,0.271-2.637-0.269l0.086-0.125
			c-0.688-0.485-1.11-1.164-1.42-1.842c-0.308-0.685-0.499-1.399-0.614-2.12c-0.222-1.441-0.165-2.924,0.262-4.338
			c0.214-0.705,0.541-1.39,1.006-1.993c0.235-0.299,0.51-0.572,0.817-0.806c0.262-0.21,0.576-0.418,0.8-0.64
			c0.973-0.879,1.844-1.977,2.615-3.102c1.545-2.273,2.799-4.754,3.857-7.308c0.52-1.281,1.007-2.578,1.426-3.898
			c0.433-1.315,0.799-2.652,1.14-3.996c0.657-2.693,1.131-5.433,1.423-8.192s0.401-5.54,0.336-8.317
			c-0.032-1.389-0.12-2.776-0.229-4.162c-0.138-1.383-0.287-2.765-0.503-4.139c-0.088-0.69-0.225-1.372-0.346-2.057
			c-0.117-0.686-0.248-1.369-0.405-2.046c-0.276-1.364-0.638-2.708-0.984-4.056l0,0l-0.004,0.004
			c-1.459,1.816-3.206,3.401-5.122,4.74c-1.913,1.348-3.987,2.456-6.111,3.431c-2.133,0.958-4.322,1.776-6.499,2.593
			c-2.172,0.824-4.354,1.631-6.366,2.716c-1.984,1.076-3.854,2.531-4.614,4.594c-0.779,2.057-0.446,4.38,0.199,6.56
			c0.314,1.127,0.583,2.306,0.694,3.504c0.103,1.196,0.104,2.466-0.426,3.69c-0.271,0.602-0.724,1.17-1.324,1.531
			c-0.601,0.359-1.286,0.502-1.934,0.508c-1.306,0-2.498-0.423-3.579-0.974c-2.15-1.131-3.997-2.779-5.296-4.847
			c-0.638-1.036-1.124-2.213-1.222-3.488c-0.033-1.237,0.05-2.408,0.277-3.599c0.42-2.367,1.554-4.646,3.255-6.364
			c1.687-1.742,3.802-2.93,5.94-3.891c2.151-0.961,4.37-1.705,6.584-2.429c2.217-0.718,4.434-1.416,6.625-2.18
			c4.386-1.5,8.672-3.387,12.466-6.102l0,0h0.001c0.607,0.013,1.193-0.188,1.743-0.426c0.553-0.242,1.077-0.546,1.576-0.884
			c0.497-0.341,0.973-0.717,1.392-1.151c0.208-0.217,0.405-0.45,0.554-0.712c0.069-0.133,0.133-0.273,0.146-0.425
			C391.396,386.078,391.319,385.923,391.188,385.844z M391.188,385.844c0.131,0.079,0.208,0.233,0.191,0.385
			c-0.013,0.152-0.076,0.292-0.146,0.425c-0.148,0.262-0.346,0.495-0.554,0.712c-0.419,0.434-0.895,0.81-1.392,1.151
			c-0.499,0.338-1.023,0.642-1.576,0.884c-0.55,0.237-1.136,0.438-1.743,0.426h-0.001l0,0c-3.654,2.908-7.944,4.917-12.29,6.584
			c-2.181,0.83-4.394,1.563-6.588,2.329c-2.192,0.766-4.378,1.551-6.458,2.533c-2.073,0.98-4.057,2.177-5.618,3.795
			c-1.566,1.609-2.584,3.686-2.966,5.902c-0.206,1.095-0.273,2.261-0.239,3.348c0.087,1.054,0.51,2.092,1.096,3.026
			c1.186,1.869,2.945,3.42,4.915,4.435c0.986,0.491,2.055,0.865,3.089,0.867c1.04,0.019,1.928-0.483,2.332-1.415
			c0.415-0.924,0.455-2.065,0.36-3.17c-0.098-1.121-0.337-2.223-0.64-3.337c-0.64-2.234-1.031-4.793-0.122-7.149
			c0.438-1.167,1.205-2.188,2.106-3.002c0.904-0.821,1.936-1.45,2.986-1.997c2.113-1.081,4.329-1.843,6.521-2.623
			c2.196-0.771,4.387-1.537,6.521-2.439c2.136-0.891,4.224-1.913,6.163-3.18c1.937-1.267,3.734-2.763,5.283-4.502l0.004-0.004l0,0
			c0.367,1.342,0.748,2.682,1.045,4.043c0.168,0.676,0.31,1.357,0.438,2.042c0.131,0.684,0.278,1.365,0.376,2.055
			c0.237,1.373,0.407,2.756,0.566,4.141c0.131,1.388,0.239,2.777,0.293,4.171c0.107,2.787,0.039,5.582-0.213,8.362
			c-0.252,2.78-0.688,5.545-1.309,8.271c-0.324,1.359-0.674,2.714-1.09,4.05c-0.403,1.339-0.877,2.657-1.383,3.963
			c-1.034,2.602-2.266,5.136-3.816,7.493c-0.786,1.177-1.632,2.297-2.712,3.302c-0.273,0.269-0.542,0.447-0.819,0.676
			c-0.244,0.191-0.464,0.415-0.655,0.666c-0.378,0.506-0.655,1.1-0.835,1.729c-0.361,1.259-0.396,2.63-0.175,3.932
			c0.227,1.271,0.734,2.63,1.675,3.291l0.086-0.125c0.433,0.303,0.915,0.364,1.449,0.164c0.529-0.2,1.048-0.606,1.509-1.077
			c0.923-0.96,1.679-2.148,2.348-3.372c0.671-1.227,1.253-2.517,1.799-3.827c0.559-1.308,1.08-2.632,1.588-3.961
			c2.024-5.318,3.666-10.788,4.883-16.354c1.207-5.564,1.971-11.243,1.999-16.944c-0.005-1.424-0.037-2.851-0.152-4.271
			c-0.104-1.421-0.271-2.838-0.516-4.243c-0.474-2.811-1.268-5.576-2.468-8.171l-0.002-0.005l0,0
			c3.694,0.189,7.414,0.732,10.917,2.052c1.74,0.672,3.416,1.558,4.896,2.726c1.475,1.169,2.739,2.64,3.586,4.346
			c0.84,1.705,1.272,3.613,1.304,5.497c0.005,0.929,0.098,1.796,0.513,2.531c0.396,0.734,1.139,1.192,1.976,1.358
			c1.703,0.317,3.538-0.194,5.21-0.839c1.688-0.673,3.296-1.57,4.768-2.635c0.735-0.532,1.441-1.108,2.067-1.748
			c0.605-0.633,1.208-1.37,1.358-2.119c0.017-0.091,0.021-0.178,0.02-0.263c-0.006-0.058-0.007-0.122-0.052-0.252l-0.252-0.588
			c-0.202-0.396-0.391-0.804-0.647-1.172c-0.237-0.38-0.496-0.748-0.79-1.09c-0.268-0.362-0.587-0.683-0.902-1.007
			c-1.278-1.282-2.768-2.36-4.348-3.282c-0.796-0.451-1.612-0.872-2.435-1.277c-0.844-0.365-1.664-0.782-2.527-1.104
			c-0.864-0.317-1.714-0.677-2.591-0.96l-2.637-0.842c-1.784-0.477-3.563-0.979-5.376-1.35c-1.796-0.445-3.622-0.753-5.44-1.102
			c-1.822-0.329-3.659-0.57-5.49-0.86l-0.006,0l0,0c6.804-4.248,14.482-7.011,22.36-8.555c3.944-0.771,7.951-1.212,11.969-1.37
			c4.019-0.162,8.054-0.019,12.052,0.485c4.002,0.475,7.957,1.376,11.778,2.698c3.81,1.356,7.475,3.179,10.658,5.795
			c0.76,0.642,1.488,1.374,2.241,1.932c0.77,0.568,1.618,1.029,2.514,1.372c1.789,0.688,3.76,0.92,5.662,0.683
			c1.862-0.237,3.842-0.944,4.881-2.368c0.495-0.706,0.592-1.568,0.238-2.366c-0.342-0.799-0.993-1.509-1.732-2.104
			c-1.5-1.202-3.284-2.053-5.125-2.79c-1.85-0.739-3.714-1.443-5.606-2.068c-3.778-1.269-7.63-2.322-11.528-3.164
			c-7.795-1.678-15.777-2.518-23.755-2.437c-7.974,0.092-15.957,1.173-23.607,3.468C404.809,377.331,397.502,380.9,391.188,385.844z
			"/>
	</g>
	<path fill="#9BAA66" d="M423.748,373.333c7.748-1.586,21.5-1.583,31.75,0.667s7.667,4.469-1.083,2.776s-16.251-3.443-28.167-1.526
		S416.831,374.75,423.748,373.333z"/>
	<path fill="#9BAA66" d="M358.497,403.75c3.433-3.432,12.416-5,17.583-7.417s4.951,1-1.857,3s-10.643,4.083-11.476,6.167
		S356.33,405.916,358.497,403.75z"/>
	<path fill="#9BAA66" d="M409.165,391.833c4.647,2.079,7.364,4.839,7.834,7.306s11.85-0.982,7.258-4.686
		S402.831,389,409.165,391.833z"/>
	<path fill="#50611D" d="M417,386c4.488,0.39,10.489,1.553,13.188,2.562c7.188,2.688-3.375,2.25-7.531,0.938
		S412.373,385.598,417,386z"/>
	<path fill-rule="evenodd" clip-rule="evenodd" fill="#504647" d="M384.558,390.834c2.442-1.792,2.124-2.485,3.859-3.792
		c2.233-1.68,2.583-1.417,9.896-6.085c5.148-3.286,6.096,2.189,1.142,4.887c6.36,0.891,3.087,4.352-3.121,3.983
		c1.508,3.851-2.65,5.035-3.908,0C389.833,393.542,379.684,394.41,384.558,390.834z"/>
	<g>
		<path fill-rule="evenodd" clip-rule="evenodd" fill="#60343C" d="M398.013,389.157c-2.638-2.794-2.886-2.562-4.541-4.363
			c0.498,0.797,2.487,3.19,3.719,4.829C397.463,389.506,397.741,389.347,398.013,389.157z"/>
		<path fill-rule="evenodd" clip-rule="evenodd" fill="#472C2D" d="M393.472,384.794c1.139,2.278,2.225,3.327,2.866,5.065
			c-0.003-0.01,0.001-0.02-0.003-0.03c0.267-0.001,0.558-0.079,0.855-0.206C395.959,387.984,393.97,385.591,393.472,384.794z"/>
		<path fill-rule="evenodd" clip-rule="evenodd" fill="#60343C" d="M391.824,390.198c0.478-0.96,1.336-3.14,1.199-4.487
			c-0.371,1.15-0.309,1.721-2.146,4.716C391.214,390.398,391.534,390.32,391.824,390.198z"/>
		<path fill-rule="evenodd" clip-rule="evenodd" fill="#472C2D" d="M391.824,390.198c0.224-0.095,0.431-0.213,0.603-0.368
			c0.003,0.01,0.011,0.017,0.015,0.027c0.302-1.116,0.895-2.55,0.582-4.146C393.16,387.058,392.302,389.238,391.824,390.198z"/>
		<path fill-rule="evenodd" clip-rule="evenodd" fill="#60343C" d="M393.188,387.743c0.208-0.87,0.006-1.74-0.164-2.032
			c0.312,1.596-0.28,3.029-0.582,4.146c0.094,0.239,0.282,0.421,0.522,0.559C392.616,389.65,393.016,388.462,393.188,387.743z"/>
		<path fill-rule="evenodd" clip-rule="evenodd" fill="#64484B" d="M399.475,385.852c-0.594-0.018-1.113-0.263-4.973-0.641
			c1.994-0.504,3.507,0.164,5.3-0.49c0.109-1.645-0.542-4.313-2.917-2.855c-3.196,1.962-3.383,1.012-4.383,1.596
			s-2.296,0.75-3.875,2.75c-2.248,2.847,0.214,4.391,2.251,4.216c1.837-2.995,1.774-3.566,2.146-4.716
			c0.17,0.292,0.372,1.163,0.164,2.032c-0.172,0.719-0.571,1.907-0.224,2.672c1.151,0.662,3.576,0.242,3.374-0.556
			c-0.642-1.738-1.728-2.787-2.866-5.065c1.655,1.801,1.903,1.568,4.541,4.363C399.529,388.095,400.804,386.119,399.475,385.852z"/>
		<path fill-rule="evenodd" clip-rule="evenodd" fill="#60343C" d="M394.502,385.211c1.473-0.097,3.859,0.269,5.162,0.29
			c0.068-0.203,0.117-0.47,0.138-0.78C398.009,385.375,396.496,384.707,394.502,385.211z"/>
		<path fill-rule="evenodd" clip-rule="evenodd" fill="#472C2D" d="M399.664,385.5c-1.303-0.021-3.689-0.387-5.162-0.29
			c3.859,0.378,4.379,0.624,4.973,0.641c-0.007-0.001-0.012-0.004-0.019-0.005C399.538,385.797,399.607,385.67,399.664,385.5z"/>
		<path fill-rule="evenodd" clip-rule="evenodd" fill="#7D6367" d="M389.092,387.1c-0.812,1.202,1.001,1.906,1.834,0.865
			S391.508,383.526,389.092,387.1z"/>
		<path fill-rule="evenodd" clip-rule="evenodd" fill="#7D6367" d="M393.709,385.96c-0.25,0.042,0.2,1.142-0.125,2.081
			c-0.517,1.491,3.115,2.924,1.45,0.066C394.216,386.703,393.959,385.918,393.709,385.96z"/>
		<path fill-rule="evenodd" clip-rule="evenodd" fill="#7D6367" d="M397.708,385.847c-1.912-0.195-4-0.72-2.729,0.114
			s1.688,1.751,2.729,1.292S398.691,385.947,397.708,385.847z"/>
		<path fill-rule="evenodd" clip-rule="evenodd" fill="#7D6367" d="M395.141,383.186c1.312-0.658,2.254-1.682,2.817-0.724
			c0.833,1.417-1.794,0.835-2.334,1.125C395.08,383.878,394.896,383.308,395.141,383.186z"/>
		<path fill-rule="evenodd" clip-rule="evenodd" fill="#967E83" d="M396.577,386.096c0.374,0.719,1.62,0.861,1.543,0.343
			S396.436,385.824,396.577,386.096z"/>
		<path fill-rule="evenodd" clip-rule="evenodd" fill="#967E83" d="M390.416,386.096c-0.782,0.951-1.224,1.801-0.39,1.623
			C391.188,387.471,390.85,385.569,390.416,386.096z"/>
	</g>
</g>
<g id="Layer_2">
	
		<ellipse fill="#181F46" stroke="#181F46" stroke-width="2" stroke-miterlimit="10" cx="424.395" cy="501.028" rx="45.404" ry="47.889"/>
	
		<ellipse fill="#181F46" stroke="#181F46" stroke-width="2" stroke-miterlimit="10" cx="474.755" cy="458.21" rx="45.403" ry="47.888"/>
	<path fill="#242957" stroke="#181F46" stroke-width="2" stroke-miterlimit="10" d="M385.969,449.712
		c0,23.661-18.666,47.465-40.619,42.842c-25.307-5.33-40.619-15.177-40.619-38.838c0-23.662,16.146-40.452,37.617-44.846
		C364.326,404.373,385.969,426.05,385.969,449.712z"/>
	<path fill="#242957" stroke="#181F46" stroke-width="2" stroke-miterlimit="10" d="M484.758,554.508
		c0,23.304-20.113,44.162-42.008,41.193c-22.371-3.033-38.004-17.89-38.004-41.193c0-23.305,17.91-42.196,40.006-42.196
		S484.758,531.203,484.758,554.508z"/>
	<path fill="#181F46" d="M335.499,490.071c-8.724-3.169,8.867-21.653,15.279-9.351c4.994,9.583,5.426,9.907,0,10.87
		C345.35,492.554,338.675,491.226,335.499,490.071z"/>
	<path fill="#181F46" d="M442.1,543.898c2.137,8.605,20.146,19.737,32.076,19.07s12.178-8.263,10.385-12.639
		s-20.088-8.695-26.105-8.028C452.439,542.969,440.428,537.161,442.1,543.898z"/>
	
		<ellipse fill="#2E3C7B" stroke="#181F46" stroke-width="2" stroke-miterlimit="10" cx="367.167" cy="536.26" rx="45.403" ry="47.888"/>
	<path fill="#242957" d="M348.105,560.625c6.532-15.229,36.653-10.378,38.993-20.017s-7.404-17.826-10.031-26.232
		c-2.629-8.406,16.811-6.284,26.039,10.26s7.844,29.335-5.078,40.668s-19.373,18.572-33.25,17.771
		C351.438,582.304,342.105,574.613,348.105,560.625z"/>
	<path fill="#181F46" d="M409.771,522.886c-0.762-2.806-1.768-5.443-2.963-7.92c-1.904-0.627-4.119-0.778-6.664-0.336
		c-30.703,5.338,8.064,12.396,4.602,30.998c-4.898,26.315-46.945,24.291-41.857,37.306c1.73,0.169,3.502,0.244,5.32,0.202
		C395.359,582.509,418.779,556.088,409.771,522.886z"/>
	<path fill="#242957" stroke="#181F46" stroke-width="2" stroke-miterlimit="10" d="M560.006,477.277
		c-2.439,26.713-13.127,41.372-39.121,41.372c-22.715,0-41.125-17.417-41.125-41.372c0-23.957,18.889-45.014,41.125-40.374
		C544.117,441.751,562.148,453.793,560.006,477.277z"/>
	<path fill="#3A4785" d="M505.848,473.69c-8.955-8.343,3.799-9.203,10.697-8.991s19.23-1.506,20.227-5.653
		c2.5-10.41-5.482-18.01,0.875-15.994c9.332,2.959,35.477,29.507,7.783,28.2C517.439,469.932,513.828,481.126,505.848,473.69z"/>
	<path fill="#2E3C7B" stroke="#181F46" stroke-width="2" stroke-miterlimit="10" d="M527.998,441.027
		c-34.135,37.298-78.129-6.765-78.129-34.79c0-28.028,21.541-50.748,48.113-50.748S573.256,391.575,527.998,441.027z"/>
	<path fill="#181F46" d="M510.443,501.028c8-4.729,20.334,8.062,31,0s11.656-13.065,16.328-10.23
		c-3.834,11.671-10.264,31.317-44.84,27.119S510.443,501.028,510.443,501.028z"/>
	<path fill="#181F46" d="M524.396,443.261c8.305,3.856,6.371,16.804-12.629,17.923s-29.021-0.06-27.01,5.863
		c2.01,5.923-20.732,2.396-17.029-7.553c2.996-8.051,6.096-12.2,24.373-9.694C510.377,452.306,515.691,439.219,524.396,443.261z"/>
	<path fill="#3C498C" stroke="#181F46" stroke-width="2" stroke-miterlimit="10" d="M513.35,507.572
		c0,25.491-14.688,43.374-41.123,43.374c-32.488,0-44.127-9.822-44.127-43.374c0-23.957,21.414-43.377,44.127-43.377
		S513.35,483.615,513.35,507.572z"/>
	<path fill="#242957" d="M450.188,547.47c16.15,4.483,41.201,5.603,53.99-11.865c4.406-6.02,6.799-13.319,7.781-20.656
		c-0.973-5.328-5.342-8.391-13.773-7.377c-15.24,1.832-17.752,26.73-27.461,31.305s-25.291,2.163-32.291-12.75
		c-5.07-10.806-8.193-13.909-9.072-9.907C430.449,524.094,430.783,542.086,450.188,547.47z"/>
	<path fill="#181F46" d="M466.896,550.294c10.535,0.361,29.51-1.839,35.879-12.909s-2.695-7.785-10.895,1.491
		c-19.232,21.757-55.633,3.977-47.205,7.533C453.105,549.966,457.021,549.955,466.896,550.294z"/>
	<path fill="#7075B7" d="M469.797,512.312c7.322-25.594,24.602-34.841,7.59-39.676c-13.49-3.834-40.723,2.063-44.723,26.084
		C428.1,526.126,464.658,530.271,469.797,512.312z"/>
	<path fill="#242957" d="M524.396,443.261c12.488-11.911,21.705-27.566,20.996-43.819c-29.258-4.599-32.357,45.026-58.52,37.669
		c-8.686-2.441-17.512-0.736-19.977,2.588C489.008,460.23,509.672,457.304,524.396,443.261z"/>
	<path fill="#3A4785" d="M358.223,410.983c-15.924-5.777-33.973,5.375-41.202,12.902c-6.35,6.611-12.921,21.41-10.785,36.768
		c1.828,4.389,4.641,6.546,7.883,2.695c18.899-22.446,69.067-12.817,68.079-28.848C379.445,428.487,371.98,415.975,358.223,410.983z
		"/>
	<path fill="#3C498C" stroke="#181F46" stroke-width="2" stroke-miterlimit="10" d="M392.426,434.874
		c-22.084-5.309-41.125,17.418-41.125,41.375c0,23.955,18.412,43.374,41.125,43.374s41.123-19.419,41.123-43.374
		C433.549,452.292,415.807,440.494,392.426,434.874z"/>
	<path fill="#242957" d="M424.393,471.56c-7.049,2.584-15.592,22.764-34.285,21.574c-29.461-1.874-27.645,9.837-16.646,20.684
		c7.217,4.011,17.357,5.966,27.322,3.884c7.852-5.025,16.049-13.113,23.609-20.332C439.344,483.096,431.441,468.976,424.393,471.56z
		"/>
	<path fill="#7075B7" d="M383.156,436.807L383.156,436.807L383.156,436.807c-10.99,2.714-23.75,11.087-25.244,24.377
		c-1.129,10.023,3.859,5.669,12.359-1.689c13.984-12.106,25.078,15.142,29.135-17.36
		C400.146,436.192,392.26,434.558,383.156,436.807z"/>
	<path fill="#AAB1EF" d="M390.424,436.809c-10.717,0.147-15.451,5.325-15.451,5.325c-2.736,6.841,15.994,17.18,18.223,4.496
		C394.197,440.932,396.355,436.727,390.424,436.809z"/>
	
		<ellipse fill="#3A4785" stroke="#181F46" stroke-width="2" stroke-miterlimit="10" cx="436.263" cy="435.952" rx="41.124" ry="43.374"/>
	<path fill="#AAB1EF" d="M432.455,417.781c-3.402,6.244-15.26,3.791-19.777,11.033c-4.664,7.476-13.275,16.58-12.482,1.018
		c1.455-28.527,36.928-41.345,48.01-30.54C453.318,404.278,442.541,399.271,432.455,417.781z"/>
	<path fill="#CED7F8" d="M429.201,411.596c-9.887,2.343-7.697-10.754-0.479-12.537c17.799-4.388,16.029,2.577,9.309,5.474
		C434.385,406.104,435.262,410.159,429.201,411.596z"/>
	<path fill="#181F46" d="M455.818,455.709c-14.855,9.057-23.363,5.475-30.164,3.785c-12.814-3.184-11.006,17.021-0.045,18.725
		s18.664,0.746,23.68-1.656c5.014-2.402,10.281-4.572,12.787-7.13C474.662,456.586,479.76,441.114,455.818,455.709z"/>
	<ellipse fill="#3A4785" cx="449.869" cy="436.257" rx="12.746" ry="13.295"/>
	<path fill="#3C498C" d="M384.15,472.711c9.115-11.977-5.811-17.915-13.363-10.198c-4.879,4.985-7.729,19.821,5.82,22.899
		S388.758,482.525,384.15,472.711z"/>
	<path fill="#7075B7" d="M504.748,378.04c4.441-9.737-4.496-15.172-0.805-18.43c1.021-0.9,1.592-1.647,1.801-2.26
		c-6.922-1.366-13.682-0.967-19.988,0.808c-13.107,4.472-18.578,13.078-17.984,27.396C468.797,410.33,497.76,393.361,504.748,378.04
		z"/>
	<path fill="#AAB1EF" d="M491.176,356.998c-9.646,4.792-7.523,18.877,2.006,19.653c17.59,1.434,4.447-9.801,9.594-16.973
		c0.809-1.127,1.154-1.992,1.115-2.651C499.553,356.364,495.291,356.388,491.176,356.998z"/>
	<path fill="#181F46" d="M408.406,497.136c-11.039,15.585-44.807,3.893-22.438,21.514c5.1,4.017,22.438-2.424,22.438-2.424
		C442.271,497.136,440.771,451.443,408.406,497.136z"/>
	<path fill="#7075B7" d="M317.021,423.886c-3.65,3.802-7.373,10.312-9.475,18.076c6.181,0.54,27.709-15.248,37.459-15.715
		c11.274-0.54,21.239-6.089,19.592-12.188c-1.955-1.19-4.074-2.24-6.375-3.075C342.298,405.206,324.25,416.358,317.021,423.886z"/>
	<path fill="#A1ABE5" d="M454.271,512.312c6.5-0.176,8.344-7.24,8.344-19.178c0-6.908-12.186-12.018-20.516,5.242
		C437.785,507.318,447.771,512.487,454.271,512.312z"/>
	<path fill="#3C264A" d="M309.661,435.366c-2.543,5.63-5.216,14.646-3.324,25.876c1.063-3.965,2.23-10.566,2.305-12.114
		C308.775,446.322,312.984,437.751,309.661,435.366z"/>
	<path fill="#AAB1EF" d="M317.021,423.886c-2.288,2.383-4.604,5.831-6.533,9.984c1.611,1.309,6.073-0.444,8.778-2.43
		c4.505-3.306,6.372-8.549,6.049-11.531c-0.104-0.952-0.593-1.556-1.338-1.823C321.15,420.037,318.767,422.067,317.021,423.886z"/>
	<path fill="#3A4785" d="M425.24,587.481c-18.15-10.358-10.428-20.889-4.559-25.13c4.559-3.295,14.473-2.355,17.879,7.062
		C441.971,578.832,449.475,601.312,425.24,587.481z"/>
	<path fill="#7075B7" d="M324.396,549.198c2.562,6.062,3.996-20.561,21.853-21.561c17.857-1,14.154-14.466,11.505-20.066
		s-17.355-10.924-28.295,3.689C320.23,527.792,322.563,540.974,324.396,549.198z"/>
	<path fill="#4A3D6C" d="M456.439,446.302c-4.455-5.17-9.152-5.401-14.094-0.693c3.541-5.834,2.309-10.373-3.695-13.617
		c6.645,1.565,10.58-1.009,11.809-7.723c0.564,6.802,4.229,9.75,10.994,8.845C455.158,435.752,453.488,440.148,456.439,446.302z"/>
	<path fill="#4A3D6C" d="M387.92,465.983c-5.141,6.841-4.023,13.842,1.52,20.708c-5.346-5.261-11.27-6.732-17.92-3.426
		c1.93-5.714,0.512-10.319-4.254-13.816c5.512-1.926,9.793-5.372,12.844-10.339C379.941,464.84,382.545,467.131,387.92,465.983z"/>
	<path fill="#3C264A" d="M469.225,548.944c-6.678-2.995-10.895-2.259-18.041-1.583c-0.613-5.014-3.197-8.714-7.754-11.103
		c3.189-2.465,3.234-5.123,1.322-8.872c6.738,2.785,14.354,4.584,21.018,3.01C460.271,539.304,468.674,548.283,469.225,548.944z"/>
	<path fill="#3C264A" d="M509.359,358.421c-1.811,1.579-4.197,2.334-7.166,2.263c3.879,2.201,6.471,5.444,7.775,9.729
		c6.781-1.146,13.117,0.033,19.098,3.44c0,0-3.301-5.408-3.133-6.212s1.346,0.063,1.346,0.063
		C521.305,363.175,514.75,360.144,509.359,358.421z"/>
	<path fill="#3C264A" d="M552.152,461.897c3.025,4.931,4.896,10.31,5.619,16.074c0,0,0.49-4.271,1.459-5.328
		c-0.27-7.116-1.834-10.958-4.367-15.086C554.443,459.209,553.547,460.658,552.152,461.897z"/>
	<path fill="#3C264A" d="M456.439,446.302c-0.371-0.774-6.658-8.295,5.014-13.188c-8.141,1.09-10.365-1.27-10.994-8.845
		c-1.92,10.484-7.641,8.704-11.809,7.723l0,0c6.645,1.565,10.58-1.009,11.809-7.723c0.564,6.802,4.229,9.75,10.994,8.845
		C455.158,435.752,453.488,440.148,456.439,446.302L456.439,446.302z"/>
	<path fill="#3C264A" d="M380.229,459.11c-4.82,7.849-4.486,7.419-12.842,10.339c6.371,4.675,6.531,6.714,4.133,13.816l0,0
		c1.93-5.714,0.512-10.319-4.254-13.816C372.777,467.523,377.178,464.077,380.229,459.11L380.229,459.11z"/>
	<path fill="#261B15" d="M444.752,527.387c1.008,1.976,4.439,4.421-1.322,8.872c8.299,4.352,6.924,4.314,7.754,11.103
		c4.305-0.407,4.836-4.34,18.041,1.583l0,0c-6.678-2.995-10.895-2.259-18.041-1.583c-0.613-5.014-3.197-8.714-7.754-11.103
		C446.619,533.794,446.664,531.136,444.752,527.387L444.752,527.387z"/>
	<path fill="#261B15" d="M529.066,373.853c-0.348-0.571-3.488-4.51-3.133-6.212c0.168-0.804,1.346,0.063,1.346,0.063
		c-6.342-3.69-12.924-7.19-17.92-9.283c-3.514,3.065-5.617,2.608-7.166,2.263l0,0c2.969,0.071,5.355-0.684,7.166-2.263
		c6.578,2.102,12.123,4.889,17.92,9.283c0,0-1.178-0.867-1.346-0.063S529.066,373.853,529.066,373.853L529.066,373.853z"/>
	<path fill="#261B15" d="M306.336,461.242c-1.611-9.566,1.897-22.718,3.324-25.876l0,0
		C307.118,440.996,304.445,450.012,306.336,461.242L306.336,461.242z"/>
</g>
</svg>
