<?xml version="1.0" encoding="utf-8"?>
<!-- Generator: Adobe Illustrator 16.0.0, SVG Export Plug-In . SVG Version: 6.00 Build 0)  -->
<!DOCTYPE svg PUBLIC "-//W3C//DTD SVG 1.1//EN" "http://www.w3.org/Graphics/SVG/1.1/DTD/svg11.dtd">
<svg version="1.1" id="Layer_1" focusable="false" xmlns="http://www.w3.org/2000/svg" xmlns:xlink="http://www.w3.org/1999/xlink"
	 x="0px" y="0px" width="700px" height="850px" viewBox="0 0 700 850" enable-background="new 0 0 700 850" xml:space="preserve">
<path d="M690.484,680.199L554.162,543.904c-6.152-6.152-14.492-9.57-23.242-9.57h-22.285
	c37.734-48.262,60.156-108.951,60.156-174.986C568.791,202.271,441.492,75,284.402,75S0,202.271,0,359.348
	s127.299,284.348,284.402,284.348c66.035,0,126.752-22.422,175.014-60.156v22.285c0,8.75,3.418,17.09,9.57,23.242l136.322,136.295
	c12.852,12.852,33.633,12.852,46.348,0l38.691-38.691C703.199,713.818,703.199,693.051,690.484,680.199z M284.402,556.195
	c-108.746,0-196.875-87.965-196.875-196.848c0-108.732,87.979-196.848,196.875-196.848c108.746,0,196.875,87.965,196.875,196.848
	C481.277,468.08,393.299,556.195,284.402,556.195z"/>
<path d="M400.819,238.577c-2.633-5.878-10.158-6.114-13.31-0.565c-14.578,25.348-40.678,41.15-70.493,41.15h-37.623
	c-49.85,0-90.294,40.444-90.294,90.293c0,3.292,0.376,6.442,0.706,9.641c30.004-21.492,73.316-39.739,134.735-39.739
	c4.138,0,7.525,3.386,7.525,7.524c0,4.139-3.387,7.525-7.525,7.525c-118.229,0-168.359,72.469-179.458,99.699
	c-3.104,7.666,0.564,16.412,8.23,19.563c7.713,3.198,16.46-0.518,19.658-8.136c0.706-1.693,9.829-22.526,33.813-42.607
	c15.237,20.646,44.207,40.351,82.251,36.306c73.834-5.361,125.799-71.577,125.799-152.652
	C414.833,282.971,409.755,258.517,400.819,238.577z"/>
</svg>
